<svg xmlns="http://www.w3.org/2000/svg" viewBox="0 0 596.4 256"><defs><style>.cls-1{isolation:isolate;}.cls-2{fill:#189aa1;}.cls-3{fill:#0c656a;}.cls-4{fill:#010101;}.cls-5{fill:#11b0bc;}.cls-6{fill:#51c4cc;}.cls-7{fill:#138e96;}.cls-10,.cls-8{fill:#ea5533;}.cls-9{fill:#a8a8a1;}.cls-10{mix-blend-mode:screen;}.cls-11{fill:#fffce8;}.cls-12{fill:#878888;}.cls-13{fill:#636463;}.cls-14{fill:#7a7b7a;}.cls-15{fill:#323030;}.cls-16{fill:#10261a;}.cls-17{fill:#afafae;}.cls-18{fill:#fff;}.cls-19{fill:#6b6c6b;}.cls-20{fill:#7c1816;}.cls-21{fill:#c4c4c3;}.cls-22{fill:#553b23;}.cls-23{fill:#6f4d31;}</style></defs><g class="cls-1"><g id="Layer_2" data-name="Layer 2"><g id="Layer_1-2" data-name="Layer 1"><path class="cls-2" d="M405.83,183.15c0,6.87-6.34,12.43-14.17,12.43h-235c-7.83,0-14.17-5.56-14.17-12.43V72.84c0-6.86,6.34-12.42,14.17-12.42h235c7.83,0,14.17,5.56,14.17,12.42Z"/><rect class="cls-3" x="142.5" y="91.45" width="263.34" height="73.63"/><rect class="cls-3" x="142.5" y="167.45" width="263.34" height="8.13"/><path class="cls-3" d="M405.64,185.08a10.27,10.27,0,0,0,.19-1.93V178H142.5v5.2a11.17,11.17,0,0,0,.18,1.93Z"/><path class="cls-3" d="M143.38,187.45c2,4.74,7.19,8.13,13.29,8.13h235c6.1,0,11.29-3.39,13.28-8.13Z"/><rect class="cls-3" x="142.5" y="82.45" width="263.34" height="6.63"/><rect class="cls-3" x="142.5" y="74.45" width="263.34" height="5.63"/><path class="cls-3" d="M405.79,72.08c-.46-6.51-6.6-11.66-14.13-11.66h-235c-7.53,0-13.68,5.15-14.13,11.66Z"/><path class="cls-2" d="M405.83,155.19c0,3.39-6.34,6.13-14.17,6.13h-235c-7.83,0-14.17-2.74-14.17-6.13V100.8c0-3.38,6.34-6.13,14.17-6.13h235c7.83,0,14.17,2.75,14.17,6.13Z"/><rect class="cls-4" y="112.96" width="95.55" height="30.07" rx="14.17"/><path class="cls-5" d="M132.48,90.94H83c-52.33.55-69.61,18.68-69.61,25V140c0,6.26,18.61,25.72,62.11,24.58l57,.1Z"/><path class="cls-6" d="M177.66,40.34S81.52,59.58,64.58,111.16c0,0-27.29,98.21,113.08,104.49Z"/><path class="cls-5" d="M177.66,40.34s-53.51,19.24-62.94,70.82c0,0-15.19,98.21,62.94,104.49Z"/><path class="cls-7" d="M160.33,78.72S135.82,87.34,130.91,110s1.41,58.81,30.9,69.89Z"/><path class="cls-2" d="M140.17,86.32a5.18,5.18,0,0,0,5.17,5.17h14.2a5.18,5.18,0,0,0,5.17-5.17h0a5.18,5.18,0,0,0-5.17-5.17h-14.2a5.18,5.18,0,0,0-5.17,5.17Z"/><path class="cls-8" d="M140.24,74s-18.11,3.92-14.78,15.85c1.74,6.23,21.11,12,27.52,8.42,2.72-1.51,3.17-17,.67-22.5C152.35,72.94,145.37,72.76,140.24,74Z"/><path class="cls-9" d="M153.65,75.78c-.93-2-4.77-2.7-8.75-2.46V99.24c3.28.31,6.23.07,8.08-1C155.7,96.77,156.15,81.27,153.65,75.78Z"/><path class="cls-10" d="M125.52,84.18C128.06,76.65,140.24,74,140.24,74c5.13-1.25,12.11-1.07,13.41,1.77a25.78,25.78,0,0,1,1.57,8.4Z"/><path class="cls-2" d="M140.17,169.68a5.17,5.17,0,0,0,5.17,5.16h14.2a5.17,5.17,0,0,0,5.17-5.16h0a5.17,5.17,0,0,0-5.17-5.17h-14.2a5.17,5.17,0,0,0-5.17,5.17Z"/><path class="cls-8" d="M140.24,157.36s-18.11,3.92-14.78,15.85c1.74,6.23,21.11,12,27.52,8.43,2.72-1.51,3.17-17,.67-22.5C152.35,156.29,145.37,156.11,140.24,157.36Z"/><path class="cls-9" d="M153.65,159.14c-.93-2-4.77-2.7-8.75-2.46v25.91c3.28.32,6.23.08,8.08-1C155.7,180.13,156.15,164.62,153.65,159.14Z"/><path class="cls-10" d="M125.52,167.54c2.54-7.53,14.72-10.18,14.72-10.18,5.13-1.25,12.11-1.07,13.41,1.78a25.78,25.78,0,0,1,1.57,8.4Z"/><path class="cls-2" d="M157.14,130c0,6.37-4.7,16-12.24,18l-30.37,3.62c-6.72,0-12.16-5.16-12.16-11.53V115.93c0-6.37,5.44-11.54,12.16-11.54L144.9,108c6.71,0,12.24,11,12.24,17.37Z"/><path class="cls-11" d="M118.39,104.85l-3.86-.46c-6.72,0-12.16,5.17-12.16,11.54v24.14c0,6.37,5.44,11.53,12.16,11.53l3.86-.46Z"/><path class="cls-12" d="M118.39,104.85l-3.86-.46c-.33,0-.65,0-1,0v47.12c.33,0,.65,0,1,0l3.86-.46Z"/><path class="cls-5" d="M193.21,126.61l-45.56-2a113.06,113.06,0,0,0,5.24,34.2c4.52,14.6,14.12,30.55,23.08,47.81l6.67-6s-7.9-28.84-2.45-34.84S195.12,138.11,193.21,126.61Z"/><path class="cls-12" d="M152.74,234.35c-1.49-11.57-5.52-20.66-9-20.29s-5.08,10.06-3.59,21.63,5.53,20.66,9,20.3S154.24,245.93,152.74,234.35Z"/><path class="cls-13" d="M152.74,234.35c1.5,11.58-.11,21.26-3.59,21.64a2,2,0,0,1-.73-.07c2.62-2.24,3.7-10.93,2.39-21.08-1.39-10.77-5-19.37-8.27-20.23a2.27,2.27,0,0,1,1.2-.55C147.22,213.69,151.25,222.78,152.74,234.35Z"/><path class="cls-14" d="M140.06,235.52a2.48,2.48,0,0,1-1.94-.82c-1-1.12-.72-2.95-.61-3.84a2.05,2.05,0,0,0,0-.28c0-.15.18-1.68.88-7.65,1.27-10.76,3.62-30.8,3.62-33.1,0-3.63,2.42-4.08,2.52-4.1l34.27-8.57.25,1-34.31,8.58c-.1,0-1.72.37-1.73,3.12,0,2.36-2.27,21.68-3.63,33.22-.48,4.09-.86,7.31-.87,7.55a2.9,2.9,0,0,1,0,.39c-.09.68-.29,2.28.38,3.06a1.53,1.53,0,0,0,1.2.47Z"/><path class="cls-15" d="M194.14,237.69a2.42,2.42,0,0,1-1.53,3.06l-5.8,1.64a2.41,2.41,0,0,1-2.9-1.79L173.21,203a2.43,2.43,0,0,1,1.54-3.05l5.79-1.65a2.43,2.43,0,0,1,2.91,1.8Z"/><path class="cls-16" d="M184.94,197.75c.19.67,0,1.31-.44,1.43l-13,3.79c-.43.13-.94-.31-1.13-1h0c-.19-.66,0-1.3.43-1.43l13-3.79c.44-.13.95.31,1.14,1Z"/><path class="cls-5" d="M193.21,128l-45.56-3.34s-.94-11.31,4.24-26.8c4.53-13.57,14.49-30.07,24.08-48.53l6.67,6s-7.9,28.83-2.45,34.83S195.12,116.5,193.21,128Z"/><path class="cls-12" d="M152.69,21.64c-1.49,11.58-5.52,20.66-9,20.29s-5.08-10-3.59-21.63S145.63-.36,149.1,0,154.19,10.06,152.69,21.64Z"/><path class="cls-13" d="M152.69,21.64C154.19,10.06,152.58.38,149.1,0a2,2,0,0,0-.73.06c2.62,2.24,3.7,10.94,2.39,21.09-1.39,10.76-5,19.37-8.26,20.22a2.07,2.07,0,0,0,1.19.55C147.17,42.3,151.2,33.22,152.69,21.64Z"/><path class="cls-14" d="M178.8,81.63,144.44,70.25h0S142,69.79,142,66.16c0-2.3-2.36-22.34-3.63-33.11-.7-6-.88-7.48-.88-7.64a2.22,2.22,0,0,0,0-.28c-.11-.88-.35-2.72.61-3.83a2.53,2.53,0,0,1,1.94-.83l0,1a1.53,1.53,0,0,0-1.2.48c-.67.78-.47,2.37-.38,3.06a2.85,2.85,0,0,1,0,.4c0,.22.39,3.44.87,7.52C140.72,44.48,143,63.8,143,66.16c0,2.76,1.62,3.11,1.69,3.12l34.42,11.4Z"/><path class="cls-15" d="M194.14,18.3a2.41,2.41,0,0,0-1.53-3.05l-5.8-1.65a2.43,2.43,0,0,0-2.9,1.79L173.21,53a2.44,2.44,0,0,0,1.54,3.06l5.79,1.64a2.42,2.42,0,0,0,2.91-1.79Z"/><path class="cls-16" d="M184.94,58.24c.19-.66,0-1.3-.44-1.43l-13-3.79c-.43-.12-.94.31-1.13,1h0c-.19.66,0,1.3.43,1.43l13,3.79c.44.12.95-.31,1.14-1Z"/><path class="cls-17" d="M192,124.66c0,11.93-6.4,21.61-14.3,21.61s-14.29-9.68-14.29-21.61,6.4-21.6,14.29-21.6S192,112.73,192,124.66Z"/><path class="cls-17" d="M192,124.66c0,11.93-6.4,21.61-14.3,21.61s-14.29-9.68-14.29-21.61,6.4-21.6,14.29-21.6S192,112.73,192,124.66Z"/><path class="cls-18" d="M192,124.66c0,9-4.84,16.36-10.82,16.36s-10.83-7.33-10.83-16.36,4.85-16.35,10.83-16.35S192,115.63,192,124.66Z"/><path class="cls-18" d="M65.31,132.72S71,82.57,132.48,57.81C132.48,57.81,67,76.39,65.31,132.72Z"/><path class="cls-18" d="M16.3,124.66s6.34-23.18,52-29.39c0,0-28.66,1.78-44,11.45C24.3,106.72,15.64,114.27,16.3,124.66Z"/><path class="cls-19" d="M342.51,87.64c0,6.62-3.93,12-8.79,12h0c-4.86,0-8.8-5.36-8.8-12V60.16c0-6.62,3.94-12,8.8-12h0c4.86,0,8.79,5.36,8.79,12Z"/><path class="cls-19" d="M342.51,200.32c0,6.62-3.93,12-8.79,12h0c-4.86,0-8.8-5.37-8.8-12V172.84c0-6.62,3.94-12,8.8-12h0c4.86,0,8.79,5.36,8.79,12Z"/><path class="cls-5" d="M596.4,161.4c0,7.83-10.85,14.18-24.23,14.18H298.81c-13.38,0-24.23-6.35-24.23-14.18V97.32c0-7.83,10.85-14.17,24.23-14.17H572.17c13.38,0,24.23,6.34,24.23,14.17Z"/><path class="cls-5" d="M584.32,170.55s-31.6,38.46-92.88,40.87-116.77-.86-116.77-.86-79.9-13.1-100.09-69.07Z"/><path class="cls-5" d="M584.32,85.44S552.72,47,491.44,44.58s-116.77.85-116.77.85-79.9,13.1-100.09,69.08Z"/><path class="cls-2" d="M553.48,164.76s-25.31,30.81-74.39,32.73-93.51-.69-93.51-.69-64-10.49-80.15-55.31Z"/><path class="cls-2" d="M547.53,92.35S523.43,63,476.71,61.19s-89,.65-89,.65-60.92,10-76.31,52.67Z"/><path class="cls-5" d="M468.5,167.86c0,1.9-2.89,3.45-6.45,3.45h0c-3.55,0-6.44-1.55-6.44-3.45V93.46c0-1.9,2.89-3.45,6.44-3.45h0c3.56,0,6.45,1.55,6.45,3.45Z"/><path class="cls-20" d="M494.83,116.48c0,1.09-1.55,2-3.46,2h0c-1.91,0-3.46-.89-3.46-2V88.9c0-1.1,1.55-2,3.46-2h0c1.91,0,3.46.88,3.46,2Z"/><path class="cls-20" d="M512.17,90A5.17,5.17,0,0,1,507,95.18H492.8A5.17,5.17,0,0,1,487.64,90h0a5.17,5.17,0,0,1,5.16-5.17H507A5.17,5.17,0,0,1,512.17,90Z"/><path class="cls-8" d="M512.11,77.69s18.1,3.93,14.78,15.86c-1.74,6.23-21.11,12-27.52,8.42-2.73-1.51-3.18-17-.67-22.49C500,76.63,507,76.45,512.11,77.69Z"/><path class="cls-9" d="M498.7,79.48c.93-2,4.76-2.71,8.75-2.47v25.92c-3.29.32-6.23.07-8.08-1C496.64,100.46,496.19,85,498.7,79.48Z"/><path class="cls-10" d="M526.83,87.87c-2.55-7.53-14.72-10.18-14.72-10.18C507,76.45,500,76.63,498.7,79.48a25.4,25.4,0,0,0-1.57,8.39Z"/><path class="cls-20" d="M494.83,141.28c0-1.1-1.55-2-3.46-2h0c-1.91,0-3.46.88-3.46,2v27.58c0,1.09,1.55,2,3.46,2h0c1.91,0,3.46-.89,3.46-2Z"/><path class="cls-20" d="M512.17,167.74a5.16,5.16,0,0,0-5.16-5.16H492.8a5.16,5.16,0,0,0-5.16,5.16h0a5.16,5.16,0,0,0,5.16,5.17H507a5.16,5.16,0,0,0,5.16-5.17Z"/><path class="cls-8" d="M512.11,180.06s18.1-3.92,14.78-15.85c-1.74-6.23-21.11-12-27.52-8.43-2.73,1.52-3.18,17-.67,22.5C500,181.13,507,181.31,512.11,180.06Z"/><path class="cls-9" d="M498.7,178.28c.93,2,4.76,2.7,8.75,2.47V154.83c-3.29-.32-6.23-.07-8.08.95C496.64,157.3,496.19,172.8,498.7,178.28Z"/><path class="cls-10" d="M526.83,169.89c-2.55,7.53-14.72,10.17-14.72,10.17-5.13,1.25-12.11,1.07-13.41-1.78a25.5,25.5,0,0,1-1.57-8.39Z"/><path class="cls-5" d="M475.26,92.52a11.69,11.69,0,1,1-11.68-11.69A11.69,11.69,0,0,1,475.26,92.52Z"/><path class="cls-5" d="M475.26,163.43a11.69,11.69,0,1,1-11.68-11.69A11.69,11.69,0,0,1,475.26,163.43Z"/><rect class="cls-8" x="531.89" y="108.78" width="37.25" height="38.03"/><rect class="cls-9" x="531.89" y="108.78" width="14.84" height="38.03"/><rect class="cls-10" x="531.89" y="108.78" width="37.25" height="9.67"/><path class="cls-21" d="M548.06,94.61H479.14c-5.62,0-10.17,6.35-10.17,14.18v38c0,7.83,4.55,14.18,10.17,14.18h68.92c5.62,0,10.17-6.35,10.17-14.18v-38C558.23,101,553.68,94.61,548.06,94.61Zm2.45,49.27c0,6.72-3.58,12.17-8,12.17H488.37c-4.42,0-8-5.45-8-12.17V111.25c0-6.71,3.57-12.16,8-12.16h54.15c4.41,0,8,5.45,8,12.16Z"/><path class="cls-21" d="M506.93,158a3,3,0,0,1-3,3h0a3,3,0,0,1-3-3v-59a3,3,0,0,1,3-3h0a3,3,0,0,1,3,3Z"/><path class="cls-21" d="M535.89,158a3,3,0,0,1-3,3h0a3,3,0,0,1-3-3v-59a3,3,0,0,1,3-3h0a3,3,0,0,1,3,3Z"/><path class="cls-22" d="M391.64,75.12c-33.14,18.63-40.77,19.08-76,26.09S288,128.76,288,128.76l1.32.12L288,129s-7.57,20.54,27.66,27.55,42.86,7.47,76,26.1C418.76,197.89,468.58,201.9,474,147V110.76C468.58,55.86,418.76,59.87,391.64,75.12Z"/><path class="cls-23" d="M382.27,83c-28,15.75-34.47,16.13-64.26,22.06s-23.38,23.3-23.38,23.3l1.11.09-1.11.1s-6.41,17.36,23.38,23.29,36.24,6.32,64.26,22.07c22.93,12.89,65.06,16.29,69.62-30.14V113.14C447.33,66.71,405.2,70.1,382.27,83Z"/><path class="cls-18" d="M305.43,80.83S342.3,52.66,394,48.18C394,48.18,338.89,47.91,305.43,80.83Z"/><path class="cls-18" d="M342.08,198.19s37.83,12.09,126.17,13.09C468.25,211.28,368.91,212.43,342.08,198.19Z"/></g></g></g></svg>