<svg width="1008" height="550" viewBox="0 0 1008 550" fill="none" xmlns="http://www.w3.org/2000/svg">
<g filter="url(#filter0_d_167_2381)">
<rect x="4" y="4" width="1000" height="541.468" rx="8" fill="#D9D9D9"/>
<rect x="4.5" y="4.5" width="999" height="540.468" rx="7.5" stroke="#BFBFBF"/>
<path d="M51 117C51 80.5492 80.5492 51 117 51H118V117H51Z" fill="#8C8C8C"/>
<path d="M118 510C80.9969 510 51 480.003 51 443L118 443L118 510Z" fill="#8C8C8C"/>
<circle cx="488" cy="84" r="28" fill="#8C8C8C"/>
<ellipse cx="488" cy="475.5" rx="28" ry="28.5" fill="#8C8C8C"/>
<circle cx="437.5" cy="280.5" r="36.5" fill="#BFBFBF"/>
<path fill-rule="evenodd" clip-rule="evenodd" d="M788.147 409.739C788.814 409.354 788.814 408.392 788.147 408.007L781.441 404.135C780.774 403.751 779.941 404.232 779.941 405.001L779.941 406.285L769 406.285C767.895 406.285 767 407.18 767 408.285L767 409.461C767 410.566 767.895 411.461 769 411.461L779.941 411.461L779.941 412.745C779.941 413.515 780.774 413.996 781.441 413.611L788.147 409.739Z" fill="#BFBFBF"/>
<path fill-rule="evenodd" clip-rule="evenodd" d="M967.009 409.673C967.676 409.288 967.676 408.326 967.009 407.941L960.418 404.135C959.752 403.751 958.918 404.232 958.918 405.001L958.918 406.249L948.13 406.249C947.025 406.249 946.13 407.145 946.13 408.249L946.13 409.365C946.13 410.469 947.025 411.365 948.13 411.365L958.918 411.365L958.918 412.612C958.918 413.382 959.752 413.863 960.418 413.478L967.009 409.673Z" fill="#BFBFBF"/>
<rect x="980.5" y="429.5" width="230" height="50" rx="3.5" transform="rotate(180 980.5 429.5)" stroke="#8C8C8C"/>
<path d="M827.875 412.195L830.141 402.625H831.406L831.695 404.219L829.281 414H827.922L827.875 412.195ZM826.711 402.625L828.586 412.195L828.43 414H826.914L824.391 402.625H826.711ZM833.688 412.156L835.539 402.625H837.859L835.344 414H833.828L833.688 412.156ZM832.117 402.625L834.398 412.234L834.336 414H832.977L830.547 404.211L830.859 402.625H832.117ZM843.414 404.57L840.32 414H837.828L842.055 402.625H843.641L843.414 404.57ZM845.984 414L842.883 404.57L842.633 402.625H844.234L848.484 414H845.984ZM845.844 409.766V411.602H839.836V409.766H845.844ZM850.07 402.625L852.445 407.813L854.82 402.625H857.375L853.633 409.859V414H851.258V409.859L847.508 402.625H850.07ZM871.742 408.047V408.586C871.742 409.451 871.625 410.227 871.391 410.914C871.156 411.602 870.826 412.188 870.398 412.672C869.971 413.151 869.461 413.518 868.867 413.773C868.279 414.029 867.625 414.156 866.906 414.156C866.193 414.156 865.539 414.029 864.945 413.773C864.357 413.518 863.846 413.151 863.414 412.672C862.982 412.188 862.646 411.602 862.406 410.914C862.172 410.227 862.055 409.451 862.055 408.586V408.047C862.055 407.177 862.172 406.401 862.406 405.719C862.641 405.031 862.971 404.445 863.398 403.961C863.831 403.477 864.341 403.107 864.93 402.852C865.523 402.596 866.177 402.469 866.891 402.469C867.609 402.469 868.263 402.596 868.852 402.852C869.445 403.107 869.956 403.477 870.383 403.961C870.815 404.445 871.148 405.031 871.383 405.719C871.622 406.401 871.742 407.177 871.742 408.047ZM869.375 408.586V408.031C869.375 407.427 869.32 406.896 869.211 406.438C869.102 405.979 868.94 405.594 868.727 405.281C868.513 404.969 868.253 404.734 867.945 404.578C867.638 404.417 867.286 404.336 866.891 404.336C866.495 404.336 866.143 404.417 865.836 404.578C865.534 404.734 865.276 404.969 865.062 405.281C864.854 405.594 864.695 405.979 864.586 406.438C864.477 406.896 864.422 407.427 864.422 408.031V408.586C864.422 409.185 864.477 409.716 864.586 410.18C864.695 410.638 864.857 411.026 865.07 411.344C865.284 411.656 865.544 411.893 865.852 412.055C866.159 412.216 866.51 412.297 866.906 412.297C867.302 412.297 867.654 412.216 867.961 412.055C868.268 411.893 868.526 411.656 868.734 411.344C868.943 411.026 869.102 410.638 869.211 410.18C869.32 409.716 869.375 409.185 869.375 408.586ZM879.711 402.625H882.047V410.141C882.047 411.016 881.859 411.753 881.484 412.352C881.115 412.951 880.602 413.401 879.945 413.703C879.294 414.005 878.544 414.156 877.695 414.156C876.846 414.156 876.091 414.005 875.43 413.703C874.773 413.401 874.258 412.951 873.883 412.352C873.513 411.753 873.328 411.016 873.328 410.141V402.625H875.672V410.141C875.672 410.651 875.753 411.068 875.914 411.391C876.076 411.714 876.307 411.951 876.609 412.102C876.917 412.253 877.279 412.328 877.695 412.328C878.122 412.328 878.484 412.253 878.781 412.102C879.083 411.951 879.312 411.714 879.469 411.391C879.63 411.068 879.711 410.651 879.711 410.141V402.625ZM889.062 402.625V414H886.727V402.625H889.062ZM892.562 402.625V404.461H883.281V402.625H892.562Z" fill="#8C8C8C"/>
<g clip-path="url(#clip0_167_2381)">
<line x1="689.354" y1="48.6464" x2="808.354" y2="167.646" stroke="#8C8C8C"/>
<line x1="751.354" y1="48.6464" x2="870.354" y2="167.646" stroke="#8C8C8C"/>
<line x1="813.354" y1="48.6464" x2="932.354" y2="167.646" stroke="#8C8C8C"/>
<line x1="875.354" y1="48.6464" x2="994.354" y2="167.646" stroke="#8C8C8C"/>
<line x1="937.354" y1="48.6464" x2="1056.35" y2="167.646" stroke="#8C8C8C"/>
</g>
<rect x="751.5" y="50.5" width="229" height="58" rx="3.5" stroke="#8C8C8C"/>
<g clip-path="url(#clip1_167_2381)">
<line x1="687.354" y1="441.646" x2="806.354" y2="560.646" stroke="#8C8C8C"/>
<line x1="749.354" y1="441.646" x2="868.354" y2="560.646" stroke="#8C8C8C"/>
<line x1="811.354" y1="441.646" x2="930.354" y2="560.646" stroke="#8C8C8C"/>
<line x1="873.354" y1="441.646" x2="992.354" y2="560.646" stroke="#8C8C8C"/>
<line x1="935.354" y1="441.646" x2="1054.35" y2="560.646" stroke="#8C8C8C"/>
</g>
<rect x="749.5" y="443.5" width="229" height="66" rx="3.5" stroke="#8C8C8C"/>
<rect x="833" y="198" width="140" height="167" rx="4" fill="#BFBFBF"/>
<path d="M858.135 284.338C858.135 284.045 858.089 283.785 857.998 283.557C857.913 283.329 857.76 283.12 857.539 282.932C857.318 282.743 857.005 282.561 856.602 282.385C856.204 282.202 855.697 282.017 855.078 281.828C854.401 281.62 853.776 281.389 853.203 281.135C852.637 280.874 852.142 280.575 851.719 280.236C851.296 279.891 850.967 279.497 850.732 279.055C850.498 278.605 850.381 278.088 850.381 277.502C850.381 276.923 850.501 276.395 850.742 275.92C850.99 275.445 851.338 275.035 851.787 274.689C852.243 274.338 852.78 274.068 853.398 273.879C854.017 273.684 854.701 273.586 855.449 273.586C856.504 273.586 857.412 273.781 858.174 274.172C858.942 274.562 859.531 275.087 859.941 275.744C860.358 276.402 860.566 277.128 860.566 277.922H858.135C858.135 277.453 858.034 277.04 857.832 276.682C857.637 276.317 857.337 276.031 856.934 275.822C856.536 275.614 856.032 275.51 855.42 275.51C854.84 275.51 854.359 275.598 853.975 275.773C853.59 275.949 853.304 276.187 853.115 276.486C852.926 276.786 852.832 277.124 852.832 277.502C852.832 277.769 852.894 278.013 853.018 278.234C853.141 278.449 853.33 278.651 853.584 278.84C853.838 279.022 854.157 279.195 854.541 279.357C854.925 279.52 855.378 279.676 855.898 279.826C856.686 280.061 857.373 280.321 857.959 280.607C858.545 280.887 859.033 281.206 859.424 281.564C859.814 281.923 860.107 282.329 860.303 282.785C860.498 283.234 860.596 283.745 860.596 284.318C860.596 284.917 860.475 285.458 860.234 285.939C859.993 286.415 859.648 286.822 859.199 287.16C858.757 287.492 858.223 287.749 857.598 287.932C856.979 288.107 856.289 288.195 855.527 288.195C854.844 288.195 854.17 288.104 853.506 287.922C852.848 287.74 852.249 287.463 851.709 287.092C851.169 286.714 850.739 286.245 850.42 285.686C850.101 285.119 849.941 284.458 849.941 283.703H852.393C852.393 284.165 852.471 284.559 852.627 284.885C852.79 285.21 853.014 285.477 853.301 285.686C853.587 285.887 853.919 286.037 854.297 286.135C854.681 286.232 855.091 286.281 855.527 286.281C856.1 286.281 856.579 286.2 856.963 286.037C857.354 285.874 857.646 285.646 857.842 285.354C858.037 285.061 858.135 284.722 858.135 284.338ZM867.373 277.434V279.152H861.416V277.434H867.373ZM863.135 274.846H865.488V285.08C865.488 285.406 865.534 285.656 865.625 285.832C865.723 286.001 865.856 286.115 866.025 286.174C866.195 286.232 866.393 286.262 866.621 286.262C866.784 286.262 866.94 286.252 867.09 286.232C867.24 286.213 867.36 286.193 867.451 286.174L867.461 287.971C867.266 288.029 867.038 288.081 866.777 288.127C866.523 288.173 866.23 288.195 865.898 288.195C865.358 288.195 864.88 288.101 864.463 287.912C864.046 287.717 863.721 287.401 863.486 286.965C863.252 286.529 863.135 285.949 863.135 285.227V274.846ZM875.146 285.881V280.842C875.146 280.464 875.078 280.139 874.941 279.865C874.805 279.592 874.596 279.38 874.316 279.23C874.043 279.081 873.698 279.006 873.281 279.006C872.897 279.006 872.565 279.071 872.285 279.201C872.005 279.331 871.787 279.507 871.631 279.729C871.475 279.95 871.396 280.201 871.396 280.48H869.053C869.053 280.064 869.154 279.66 869.355 279.27C869.557 278.879 869.85 278.531 870.234 278.225C870.618 277.919 871.077 277.678 871.611 277.502C872.145 277.326 872.744 277.238 873.408 277.238C874.202 277.238 874.906 277.372 875.518 277.639C876.136 277.906 876.621 278.309 876.973 278.85C877.331 279.383 877.51 280.054 877.51 280.861V285.559C877.51 286.04 877.542 286.473 877.607 286.857C877.679 287.235 877.78 287.564 877.91 287.844V288H875.498C875.387 287.746 875.299 287.424 875.234 287.033C875.176 286.636 875.146 286.252 875.146 285.881ZM875.488 281.574L875.508 283.029H873.818C873.382 283.029 872.998 283.072 872.666 283.156C872.334 283.234 872.057 283.352 871.836 283.508C871.615 283.664 871.449 283.853 871.338 284.074C871.227 284.296 871.172 284.546 871.172 284.826C871.172 285.106 871.237 285.363 871.367 285.598C871.497 285.826 871.686 286.005 871.934 286.135C872.188 286.265 872.493 286.33 872.852 286.33C873.333 286.33 873.753 286.232 874.111 286.037C874.476 285.835 874.762 285.591 874.971 285.305C875.179 285.012 875.29 284.735 875.303 284.475L876.064 285.52C875.986 285.786 875.853 286.073 875.664 286.379C875.475 286.685 875.228 286.978 874.922 287.258C874.622 287.531 874.261 287.756 873.838 287.932C873.421 288.107 872.939 288.195 872.393 288.195C871.702 288.195 871.087 288.059 870.547 287.785C870.007 287.505 869.583 287.131 869.277 286.662C868.971 286.187 868.818 285.65 868.818 285.051C868.818 284.491 868.923 283.996 869.131 283.566C869.346 283.13 869.658 282.766 870.068 282.473C870.485 282.18 870.993 281.958 871.592 281.809C872.191 281.652 872.874 281.574 873.643 281.574H875.488ZM884.814 277.434V279.152H878.857V277.434H884.814ZM880.576 274.846H882.93V285.08C882.93 285.406 882.975 285.656 883.066 285.832C883.164 286.001 883.298 286.115 883.467 286.174C883.636 286.232 883.835 286.262 884.062 286.262C884.225 286.262 884.382 286.252 884.531 286.232C884.681 286.213 884.801 286.193 884.893 286.174L884.902 287.971C884.707 288.029 884.479 288.081 884.219 288.127C883.965 288.173 883.672 288.195 883.34 288.195C882.799 288.195 882.321 288.101 881.904 287.912C881.488 287.717 881.162 287.401 880.928 286.965C880.693 286.529 880.576 285.949 880.576 285.227V274.846ZM889.15 277.434V288H886.787V277.434H889.15ZM886.631 274.66C886.631 274.302 886.748 274.006 886.982 273.771C887.223 273.531 887.555 273.41 887.979 273.41C888.395 273.41 888.724 273.531 888.965 273.771C889.206 274.006 889.326 274.302 889.326 274.66C889.326 275.012 889.206 275.305 888.965 275.539C888.724 275.773 888.395 275.891 887.979 275.891C887.555 275.891 887.223 275.773 886.982 275.539C886.748 275.305 886.631 275.012 886.631 274.66ZM891.279 282.834V282.609C891.279 281.848 891.39 281.141 891.611 280.49C891.833 279.833 892.152 279.263 892.568 278.781C892.992 278.293 893.506 277.915 894.111 277.648C894.723 277.375 895.413 277.238 896.182 277.238C896.956 277.238 897.646 277.375 898.252 277.648C898.864 277.915 899.382 278.293 899.805 278.781C900.228 279.263 900.55 279.833 900.771 280.49C900.993 281.141 901.104 281.848 901.104 282.609V282.834C901.104 283.596 900.993 284.302 900.771 284.953C900.55 285.604 900.228 286.174 899.805 286.662C899.382 287.144 898.867 287.521 898.262 287.795C897.656 288.062 896.969 288.195 896.201 288.195C895.426 288.195 894.733 288.062 894.121 287.795C893.516 287.521 893.001 287.144 892.578 286.662C892.155 286.174 891.833 285.604 891.611 284.953C891.39 284.302 891.279 283.596 891.279 282.834ZM893.633 282.609V282.834C893.633 283.309 893.682 283.758 893.779 284.182C893.877 284.605 894.03 284.976 894.238 285.295C894.447 285.614 894.714 285.865 895.039 286.047C895.365 286.229 895.752 286.32 896.201 286.32C896.637 286.32 897.015 286.229 897.334 286.047C897.66 285.865 897.926 285.614 898.135 285.295C898.343 284.976 898.496 284.605 898.594 284.182C898.698 283.758 898.75 283.309 898.75 282.834V282.609C898.75 282.141 898.698 281.698 898.594 281.281C898.496 280.858 898.34 280.484 898.125 280.158C897.917 279.833 897.65 279.579 897.324 279.396C897.005 279.208 896.624 279.113 896.182 279.113C895.739 279.113 895.355 279.208 895.029 279.396C894.71 279.579 894.447 279.833 894.238 280.158C894.03 280.484 893.877 280.858 893.779 281.281C893.682 281.698 893.633 282.141 893.633 282.609ZM905.41 279.689V288H903.057V277.434H905.273L905.41 279.689ZM904.99 282.326L904.229 282.316C904.235 281.568 904.339 280.881 904.541 280.256C904.749 279.631 905.036 279.094 905.4 278.645C905.771 278.195 906.214 277.85 906.729 277.609C907.243 277.362 907.816 277.238 908.447 277.238C908.955 277.238 909.414 277.31 909.824 277.453C910.241 277.59 910.596 277.814 910.889 278.127C911.188 278.439 911.416 278.846 911.572 279.348C911.729 279.842 911.807 280.451 911.807 281.174V288H909.443V281.164C909.443 280.656 909.368 280.256 909.219 279.963C909.076 279.663 908.864 279.452 908.584 279.328C908.311 279.198 907.969 279.133 907.559 279.133C907.155 279.133 906.794 279.217 906.475 279.387C906.156 279.556 905.885 279.787 905.664 280.08C905.449 280.373 905.283 280.712 905.166 281.096C905.049 281.48 904.99 281.89 904.99 282.326ZM919.98 275.676L915.732 288H913.164L918.516 273.781H920.156L919.98 275.676ZM923.535 288L919.277 275.676L919.092 273.781H920.742L926.113 288H923.535ZM923.33 282.727V284.67H915.596V282.727H923.33ZM932.207 280.988V282.863H927.041V280.988H932.207ZM943.398 279.699V282.023C943.398 283.137 943.288 284.087 943.066 284.875C942.852 285.656 942.539 286.291 942.129 286.779C941.719 287.268 941.227 287.626 940.654 287.854C940.088 288.081 939.453 288.195 938.75 288.195C938.19 288.195 937.669 288.124 937.188 287.98C936.712 287.837 936.283 287.613 935.898 287.307C935.514 287.001 935.186 286.607 934.912 286.125C934.645 285.637 934.437 285.054 934.287 284.377C934.144 283.7 934.072 282.915 934.072 282.023V279.699C934.072 278.579 934.183 277.635 934.404 276.867C934.626 276.092 934.941 275.464 935.352 274.982C935.762 274.494 936.25 274.139 936.816 273.918C937.389 273.697 938.027 273.586 938.73 273.586C939.297 273.586 939.818 273.658 940.293 273.801C940.775 273.938 941.204 274.156 941.582 274.455C941.966 274.755 942.292 275.145 942.559 275.627C942.832 276.102 943.04 276.678 943.184 277.355C943.327 278.026 943.398 278.807 943.398 279.699ZM941.045 282.355V279.348C941.045 278.781 941.012 278.283 940.947 277.854C940.882 277.417 940.785 277.049 940.654 276.75C940.531 276.444 940.374 276.197 940.186 276.008C939.997 275.812 939.782 275.673 939.541 275.588C939.3 275.497 939.03 275.451 938.73 275.451C938.366 275.451 938.04 275.523 937.754 275.666C937.467 275.803 937.227 276.024 937.031 276.33C936.836 276.636 936.686 277.04 936.582 277.541C936.484 278.036 936.436 278.638 936.436 279.348V282.355C936.436 282.928 936.468 283.433 936.533 283.869C936.598 284.305 936.696 284.68 936.826 284.992C936.956 285.298 937.113 285.552 937.295 285.754C937.484 285.949 937.699 286.092 937.939 286.184C938.187 286.275 938.457 286.32 938.75 286.32C939.121 286.32 939.45 286.249 939.736 286.105C940.023 285.962 940.264 285.734 940.459 285.422C940.654 285.103 940.801 284.689 940.898 284.182C940.996 283.674 941.045 283.065 941.045 282.355ZM951.924 273.732V288H949.57V276.525L946.084 277.707V275.764L951.641 273.732H951.924Z" fill="#8C8C8C"/>
<path fill-rule="evenodd" clip-rule="evenodd" d="M942.853 146.261C942.186 146.646 942.186 147.608 942.853 147.993L949.559 151.865C950.225 152.249 951.059 151.768 951.059 150.999L951.059 149.715L962 149.715C963.105 149.715 964 148.82 964 147.715L964 146.539C964 145.434 963.105 144.539 962 144.539L951.059 144.539L951.059 143.255C951.059 142.485 950.225 142.004 949.559 142.389L942.853 146.261Z" fill="#BFBFBF"/>
<path fill-rule="evenodd" clip-rule="evenodd" d="M763.991 146.327C763.324 146.712 763.324 147.674 763.991 148.059L770.582 151.865C771.248 152.249 772.082 151.768 772.082 150.999L772.082 149.751L782.87 149.751C783.975 149.751 784.87 148.855 784.87 147.751L784.87 146.635C784.87 145.531 783.975 144.635 782.87 144.635L772.082 144.635L772.082 143.388C772.082 142.618 771.248 142.137 770.582 142.522L763.991 146.327Z" fill="#BFBFBF"/>
<rect x="750.5" y="121.5" width="230" height="50" rx="3.5" stroke="#8C8C8C"/>
<path d="M849.633 149.195L851.898 139.625L853.164 139.625L853.453 141.219L851.039 151L849.68 151L849.633 149.195ZM848.469 139.625L850.344 149.195L850.188 151L848.672 151L846.148 139.625L848.469 139.625ZM855.445 149.156L857.297 139.625L859.617 139.625L857.102 151L855.586 151L855.445 149.156ZM853.875 139.625L856.156 149.234L856.094 151L854.734 151L852.305 141.211L852.617 139.625L853.875 139.625ZM865.172 141.57L862.078 151L859.586 151L863.813 139.625L865.398 139.625L865.172 141.57ZM867.742 151L864.641 141.57L864.391 139.625L865.992 139.625L870.242 151L867.742 151ZM867.602 146.766L867.602 148.602L861.594 148.602L861.594 146.766L867.602 146.766ZM871.828 139.625L874.203 144.812L876.578 139.625L879.133 139.625L875.391 146.859L875.391 151L873.016 151L873.016 146.859L869.266 139.625L871.828 139.625ZM886.648 139.625L886.648 151L884.313 151L884.313 139.625L886.648 139.625ZM898.102 139.625L898.102 151L895.758 151L891.188 143.375L891.188 151L888.844 151L888.844 139.625L891.188 139.625L895.766 147.258L895.766 139.625L898.102 139.625Z" fill="#8C8C8C"/>
</g>
<defs>
<filter id="filter0_d_167_2381" x="0" y="0" width="1008" height="549.468" filterUnits="userSpaceOnUse" color-interpolation-filters="sRGB">
<feFlood flood-opacity="0" result="BackgroundImageFix"/>
<feColorMatrix in="SourceAlpha" type="matrix" values="0 0 0 0 0 0 0 0 0 0 0 0 0 0 0 0 0 0 127 0" result="hardAlpha"/>
<feOffset/>
<feGaussianBlur stdDeviation="2"/>
<feComposite in2="hardAlpha" operator="out"/>
<feColorMatrix type="matrix" values="0 0 0 0 0 0 0 0 0 0 0 0 0 0 0 0 0 0 0.25 0"/>
<feBlend mode="normal" in2="BackgroundImageFix" result="effect1_dropShadow_167_2381"/>
<feBlend mode="normal" in="SourceGraphic" in2="effect1_dropShadow_167_2381" result="shape"/>
</filter>
<clipPath id="clip0_167_2381">
<rect x="751" y="50" width="230" height="59" rx="4" fill="white"/>
</clipPath>
<clipPath id="clip1_167_2381">
<rect x="749" y="443" width="230" height="67" rx="4" fill="white"/>
</clipPath>
</defs>
</svg>
