<svg width="1008" height="550" viewBox="0 0 1008 550" fill="none" xmlns="http://www.w3.org/2000/svg">
<g filter="url(#filter0_d_180_3535)">
<rect x="4" y="4" width="1000" height="541.469" rx="8" fill="#D9D9D9"/>
<rect x="4.5" y="4.5" width="999" height="540.469" rx="7.5" stroke="#BFBFBF"/>
<path fill-rule="evenodd" clip-rule="evenodd" d="M921.5 48.4821C920.833 48.867 920.833 49.8292 921.5 50.2141L927.296 53.5607C927.963 53.9456 928.796 53.4645 928.796 52.6947L928.796 51.6938L938.525 51.6938C939.63 51.6938 940.525 50.7984 940.525 49.6938L940.525 49.0023C940.525 47.8978 939.63 47.0023 938.525 47.0023L928.796 47.0023L928.796 46.0015C928.796 45.2317 927.963 44.7506 927.296 45.1355L921.5 48.4821Z" fill="#D9D9D9"/>
<rect x="870.5" y="19.5" width="121" height="110" rx="3.5" fill="#BFBFBF" stroke="#8C8C8C"/>
<path d="M894.234 81.0234C894.234 80.8203 894.203 80.638 894.141 80.4766C894.083 80.3099 893.974 80.1589 893.812 80.0234C893.651 79.8828 893.424 79.7448 893.133 79.6094C892.841 79.474 892.464 79.3333 892 79.1875C891.484 79.0208 890.995 78.8333 890.531 78.625C890.073 78.4167 889.667 78.1745 889.312 77.8984C888.964 77.6172 888.688 77.2917 888.484 76.9219C888.286 76.5521 888.188 76.1224 888.188 75.6328C888.188 75.1589 888.292 74.7292 888.5 74.3438C888.708 73.9531 889 73.6198 889.375 73.3438C889.75 73.0625 890.193 72.8464 890.703 72.6953C891.219 72.5443 891.784 72.4688 892.398 72.4688C893.237 72.4688 893.969 72.6198 894.594 72.9219C895.219 73.224 895.703 73.638 896.047 74.1641C896.396 74.6901 896.57 75.2917 896.57 75.9688H894.242C894.242 75.6354 894.172 75.3438 894.031 75.0938C893.896 74.8385 893.688 74.638 893.406 74.4922C893.13 74.3464 892.781 74.2734 892.359 74.2734C891.953 74.2734 891.615 74.3359 891.344 74.4609C891.073 74.5807 890.87 74.7448 890.734 74.9531C890.599 75.1562 890.531 75.3854 890.531 75.6406C890.531 75.8333 890.578 76.0078 890.672 76.1641C890.771 76.3203 890.917 76.4661 891.109 76.6016C891.302 76.737 891.539 76.8646 891.82 76.9844C892.102 77.1042 892.427 77.2214 892.797 77.3359C893.417 77.5234 893.961 77.7344 894.43 77.9688C894.904 78.2031 895.299 78.4661 895.617 78.7578C895.935 79.0495 896.174 79.3802 896.336 79.75C896.497 80.1198 896.578 80.5391 896.578 81.0078C896.578 81.5026 896.482 81.9453 896.289 82.3359C896.096 82.7266 895.818 83.0573 895.453 83.3281C895.089 83.599 894.654 83.8047 894.148 83.9453C893.643 84.0859 893.078 84.1562 892.453 84.1562C891.891 84.1562 891.336 84.0833 890.789 83.9375C890.242 83.7865 889.745 83.5599 889.297 83.2578C888.854 82.9557 888.5 82.5703 888.234 82.1016C887.969 81.6328 887.836 81.0781 887.836 80.4375H890.188C890.188 80.7917 890.242 81.0911 890.352 81.3359C890.461 81.5807 890.615 81.7786 890.812 81.9297C891.016 82.0807 891.255 82.1901 891.531 82.2578C891.812 82.3255 892.12 82.3594 892.453 82.3594C892.859 82.3594 893.193 82.3021 893.453 82.1875C893.719 82.0729 893.914 81.9141 894.039 81.7109C894.169 81.5078 894.234 81.2786 894.234 81.0234ZM902.172 75.5469V77.1406H897.25V75.5469H902.172ZM898.469 73.4609H900.719V81.4531C900.719 81.6979 900.75 81.8854 900.812 82.0156C900.88 82.1458 900.979 82.237 901.109 82.2891C901.24 82.3359 901.404 82.3594 901.602 82.3594C901.742 82.3594 901.867 82.3542 901.977 82.3438C902.091 82.3281 902.188 82.3125 902.266 82.2969L902.273 83.9531C902.081 84.0156 901.872 84.0651 901.648 84.1016C901.424 84.138 901.177 84.1562 900.906 84.1562C900.411 84.1562 899.979 84.0755 899.609 83.9141C899.245 83.7474 898.964 83.4818 898.766 83.1172C898.568 82.7526 898.469 82.2734 898.469 81.6797V73.4609ZM908.016 82.0938V78.3281C908.016 78.0573 907.971 77.8255 907.883 77.6328C907.794 77.4349 907.656 77.2812 907.469 77.1719C907.286 77.0625 907.049 77.0078 906.758 77.0078C906.508 77.0078 906.292 77.0521 906.109 77.1406C905.927 77.224 905.786 77.3464 905.688 77.5078C905.589 77.6641 905.539 77.849 905.539 78.0625H903.289C903.289 77.7031 903.372 77.362 903.539 77.0391C903.706 76.7161 903.948 76.4323 904.266 76.1875C904.583 75.9375 904.961 75.7422 905.398 75.6016C905.841 75.4609 906.336 75.3906 906.883 75.3906C907.539 75.3906 908.122 75.5 908.633 75.7188C909.143 75.9375 909.544 76.2656 909.836 76.7031C910.133 77.1406 910.281 77.6875 910.281 78.3438V81.9609C910.281 82.4245 910.31 82.8047 910.367 83.1016C910.424 83.3932 910.508 83.6484 910.617 83.8672V84H908.344C908.234 83.7708 908.151 83.4844 908.094 83.1406C908.042 82.7917 908.016 82.4427 908.016 82.0938ZM908.312 78.8516L908.328 80.125H907.07C906.773 80.125 906.516 80.1589 906.297 80.2266C906.078 80.2943 905.898 80.3906 905.758 80.5156C905.617 80.6354 905.513 80.776 905.445 80.9375C905.383 81.099 905.352 81.276 905.352 81.4688C905.352 81.6615 905.396 81.8359 905.484 81.9922C905.573 82.1432 905.701 82.263 905.867 82.3516C906.034 82.4349 906.229 82.4766 906.453 82.4766C906.792 82.4766 907.086 82.4089 907.336 82.2734C907.586 82.138 907.779 81.9714 907.914 81.7734C908.055 81.5755 908.128 81.388 908.133 81.2109L908.727 82.1641C908.643 82.3776 908.529 82.599 908.383 82.8281C908.242 83.0573 908.062 83.2734 907.844 83.4766C907.625 83.6745 907.362 83.8385 907.055 83.9688C906.747 84.0938 906.383 84.1562 905.961 84.1562C905.424 84.1562 904.938 84.0495 904.5 83.8359C904.068 83.6172 903.724 83.3177 903.469 82.9375C903.219 82.5521 903.094 82.1146 903.094 81.625C903.094 81.1823 903.177 80.7891 903.344 80.4453C903.51 80.1016 903.755 79.8125 904.078 79.5781C904.406 79.3385 904.815 79.1589 905.305 79.0391C905.794 78.9141 906.362 78.8516 907.008 78.8516H908.312ZM916.156 75.5469V77.1406H911.234V75.5469H916.156ZM912.453 73.4609H914.703V81.4531C914.703 81.6979 914.734 81.8854 914.797 82.0156C914.865 82.1458 914.964 82.237 915.094 82.2891C915.224 82.3359 915.388 82.3594 915.586 82.3594C915.727 82.3594 915.852 82.3542 915.961 82.3438C916.076 82.3281 916.172 82.3125 916.25 82.2969L916.258 83.9531C916.065 84.0156 915.857 84.0651 915.633 84.1016C915.409 84.138 915.161 84.1562 914.891 84.1562C914.396 84.1562 913.964 84.0755 913.594 83.9141C913.229 83.7474 912.948 83.4818 912.75 83.1172C912.552 82.7526 912.453 82.2734 912.453 81.6797V73.4609ZM919.812 75.5469V84H917.555V75.5469H919.812ZM917.414 73.3438C917.414 73.0156 917.529 72.7448 917.758 72.5312C917.987 72.3177 918.294 72.2109 918.68 72.2109C919.06 72.2109 919.365 72.3177 919.594 72.5312C919.828 72.7448 919.945 73.0156 919.945 73.3438C919.945 73.6719 919.828 73.9427 919.594 74.1562C919.365 74.3698 919.06 74.4766 918.68 74.4766C918.294 74.4766 917.987 74.3698 917.758 74.1562C917.529 73.9427 917.414 73.6719 917.414 73.3438ZM921.312 79.8594V79.6953C921.312 79.0755 921.401 78.5052 921.578 77.9844C921.755 77.4583 922.013 77.0026 922.352 76.6172C922.69 76.2318 923.107 75.9323 923.602 75.7188C924.096 75.5 924.664 75.3906 925.305 75.3906C925.945 75.3906 926.516 75.5 927.016 75.7188C927.516 75.9323 927.935 76.2318 928.273 76.6172C928.617 77.0026 928.878 77.4583 929.055 77.9844C929.232 78.5052 929.32 79.0755 929.32 79.6953V79.8594C929.32 80.474 929.232 81.0443 929.055 81.5703C928.878 82.0911 928.617 82.5469 928.273 82.9375C927.935 83.3229 927.518 83.6224 927.023 83.8359C926.529 84.0495 925.961 84.1562 925.32 84.1562C924.68 84.1562 924.109 84.0495 923.609 83.8359C923.115 83.6224 922.695 83.3229 922.352 82.9375C922.013 82.5469 921.755 82.0911 921.578 81.5703C921.401 81.0443 921.312 80.474 921.312 79.8594ZM923.562 79.6953V79.8594C923.562 80.2135 923.594 80.5443 923.656 80.8516C923.719 81.1589 923.818 81.4297 923.953 81.6641C924.094 81.8932 924.276 82.0729 924.5 82.2031C924.724 82.3333 924.997 82.3984 925.32 82.3984C925.633 82.3984 925.901 82.3333 926.125 82.2031C926.349 82.0729 926.529 81.8932 926.664 81.6641C926.799 81.4297 926.898 81.1589 926.961 80.8516C927.029 80.5443 927.062 80.2135 927.062 79.8594V79.6953C927.062 79.3516 927.029 79.0286 926.961 78.7266C926.898 78.4193 926.797 78.1484 926.656 77.9141C926.521 77.6745 926.341 77.487 926.117 77.3516C925.893 77.2161 925.622 77.1484 925.305 77.1484C924.987 77.1484 924.716 77.2161 924.492 77.3516C924.273 77.487 924.094 77.6745 923.953 77.9141C923.818 78.1484 923.719 78.4193 923.656 78.7266C923.594 79.0286 923.562 79.3516 923.562 79.6953ZM932.906 77.3516V84H930.656V75.5469H932.766L932.906 77.3516ZM932.578 79.4766H931.969C931.969 78.8516 932.049 78.2891 932.211 77.7891C932.372 77.2839 932.599 76.8542 932.891 76.5C933.182 76.1406 933.529 75.8672 933.93 75.6797C934.336 75.487 934.789 75.3906 935.289 75.3906C935.685 75.3906 936.047 75.4479 936.375 75.5625C936.703 75.6771 936.984 75.8594 937.219 76.1094C937.458 76.3594 937.641 76.6901 937.766 77.1016C937.896 77.513 937.961 78.0156 937.961 78.6094V84H935.695V78.6016C935.695 78.2266 935.643 77.9349 935.539 77.7266C935.435 77.5182 935.281 77.3724 935.078 77.2891C934.88 77.2005 934.635 77.1562 934.344 77.1562C934.042 77.1562 933.779 77.2161 933.555 77.3359C933.336 77.4557 933.154 77.6224 933.008 77.8359C932.867 78.0443 932.76 78.2891 932.688 78.5703C932.615 78.8516 932.578 79.1536 932.578 79.4766ZM944.266 79.0078H941.344L941.328 77.3984H943.781C944.214 77.3984 944.568 77.3438 944.844 77.2344C945.12 77.1198 945.326 76.9557 945.461 76.7422C945.602 76.5234 945.672 76.2578 945.672 75.9453C945.672 75.5911 945.604 75.3047 945.469 75.0859C945.339 74.8672 945.133 74.7083 944.852 74.6094C944.576 74.5104 944.219 74.4609 943.781 74.4609H942.156V84H939.812V72.625H943.781C944.443 72.625 945.034 72.6875 945.555 72.8125C946.081 72.9375 946.526 73.1276 946.891 73.3828C947.255 73.638 947.534 73.9609 947.727 74.3516C947.919 74.737 948.016 75.1953 948.016 75.7266C948.016 76.1953 947.909 76.6276 947.695 77.0234C947.487 77.4193 947.156 77.7422 946.703 77.9922C946.255 78.2422 945.669 78.3802 944.945 78.4062L944.266 79.0078ZM944.164 84H940.703L941.617 82.1719H944.164C944.576 82.1719 944.911 82.1068 945.172 81.9766C945.432 81.8411 945.625 81.6589 945.75 81.4297C945.875 81.2005 945.938 80.9375 945.938 80.6406C945.938 80.3073 945.88 80.0182 945.766 79.7734C945.656 79.5286 945.479 79.3411 945.234 79.2109C944.99 79.0755 944.667 79.0078 944.266 79.0078H942.008L942.023 77.3984H944.836L945.375 78.0312C946.068 78.0208 946.625 78.1432 947.047 78.3984C947.474 78.6484 947.784 78.974 947.977 79.375C948.174 79.776 948.273 80.2057 948.273 80.6641C948.273 81.3932 948.115 82.0078 947.797 82.5078C947.479 83.0026 947.013 83.375 946.398 83.625C945.789 83.875 945.044 84 944.164 84ZM954.328 78.2344V80H949.914V78.2344H954.328ZM963.766 77.3125V79.2812C963.766 80.1354 963.674 80.8724 963.492 81.4922C963.31 82.1068 963.047 82.612 962.703 83.0078C962.365 83.3984 961.961 83.6875 961.492 83.875C961.023 84.0625 960.503 84.1562 959.93 84.1562C959.471 84.1562 959.044 84.099 958.648 83.9844C958.253 83.8646 957.896 83.6797 957.578 83.4297C957.266 83.1797 956.995 82.8646 956.766 82.4844C956.542 82.099 956.37 81.6406 956.25 81.1094C956.13 80.5781 956.07 79.9688 956.07 79.2812V77.3125C956.07 76.4583 956.161 75.7266 956.344 75.1172C956.531 74.5026 956.794 74 957.133 73.6094C957.477 73.2188 957.883 72.9323 958.352 72.75C958.82 72.5625 959.341 72.4688 959.914 72.4688C960.372 72.4688 960.797 72.5286 961.188 72.6484C961.583 72.763 961.94 72.9427 962.258 73.1875C962.576 73.4323 962.846 73.7474 963.07 74.1328C963.294 74.513 963.466 74.9688 963.586 75.5C963.706 76.026 963.766 76.6302 963.766 77.3125ZM961.508 79.5781V77.0078C961.508 76.5964 961.484 76.237 961.438 75.9297C961.396 75.6224 961.331 75.362 961.242 75.1484C961.154 74.9297 961.044 74.7526 960.914 74.6172C960.784 74.4818 960.635 74.3828 960.469 74.3203C960.302 74.2578 960.117 74.2266 959.914 74.2266C959.659 74.2266 959.432 74.276 959.234 74.375C959.042 74.474 958.878 74.6328 958.742 74.8516C958.607 75.0651 958.503 75.3516 958.43 75.7109C958.362 76.0651 958.328 76.4974 958.328 77.0078V79.5781C958.328 79.9896 958.349 80.3516 958.391 80.6641C958.438 80.9766 958.505 81.2448 958.594 81.4688C958.688 81.6875 958.797 81.8672 958.922 82.0078C959.052 82.1432 959.201 82.2422 959.367 82.3047C959.539 82.3672 959.727 82.3984 959.93 82.3984C960.18 82.3984 960.401 82.349 960.594 82.25C960.792 82.1458 960.958 81.9844 961.094 81.7656C961.234 81.5417 961.339 81.25 961.406 80.8906C961.474 80.5312 961.508 80.0938 961.508 79.5781ZM970.781 72.6016V84H968.531V75.1953L965.828 76.0547V74.2812L970.539 72.6016H970.781Z" fill="#8C8C8C"/>
<path fill-rule="evenodd" clip-rule="evenodd" d="M921.5 106.178C920.833 106.563 920.833 107.525 921.5 107.91L927.296 111.257C927.963 111.642 928.796 111.161 928.796 110.391L928.796 103.698C928.796 102.928 927.963 102.447 927.296 102.832L921.5 106.178ZM938.525 104.699L928.796 104.699L928.796 109.39L938.525 109.39C939.63 109.39 940.525 108.495 940.525 107.39L940.525 106.699C940.525 105.594 939.63 104.699 938.525 104.699Z" fill="#D9D9D9"/>
<mask id="path-7-inside-1_180_3535" fill="white">
<path d="M870 151H992V518H870V151Z"/>
</mask>
<path d="M870 151V150H869V151H870ZM992 151H993V150H992V151ZM992 518V519H993V518H992ZM870 518H869V519H870V518ZM870 152H992V150H870V152ZM991 151V518H993V151H991ZM992 517H870V519H992V517ZM871 518V151H869V518H871Z" fill="#8C8C8C" mask="url(#path-7-inside-1_180_3535)"/>
<path fill-rule="evenodd" clip-rule="evenodd" d="M932.236 431.439C931.851 430.773 930.888 430.773 930.504 431.439L927.381 436.848C926.996 437.515 927.477 438.348 928.247 438.348L929.127 438.348V447.561C929.127 448.665 930.023 449.561 931.127 449.561H931.612C932.717 449.561 933.612 448.665 933.612 447.561V438.348L934.492 438.348C935.262 438.348 935.743 437.515 935.359 436.848L932.236 431.439Z" fill="#BFBFBF"/>
<path fill-rule="evenodd" clip-rule="evenodd" d="M932.236 311.47C931.851 310.803 930.888 310.803 930.504 311.47L927.381 316.879C926.996 317.545 927.477 318.379 928.247 318.379H929.127V327.591C929.127 328.695 930.023 329.591 931.127 329.591H931.612C932.717 329.591 933.612 328.695 933.612 327.591V318.379H934.492C935.262 318.379 935.743 317.545 935.359 316.879L932.236 311.47Z" fill="#BFBFBF"/>
<path fill-rule="evenodd" clip-rule="evenodd" d="M932.236 191.5C931.851 190.833 930.888 190.833 930.504 191.5L927.381 196.909C926.996 197.576 927.477 198.409 928.247 198.409H929.127V207.621C929.127 208.726 930.023 209.621 931.127 209.621H931.612C932.717 209.621 933.612 208.726 933.612 207.621V198.409H934.492C935.262 198.409 935.743 197.576 935.359 196.909L932.236 191.5Z" fill="#BFBFBF"/>
<path d="M908.133 383.756L910.398 374.186H911.664L911.953 375.779L909.539 385.561H908.18L908.133 383.756ZM906.969 374.186L908.844 383.756L908.688 385.561H907.172L904.648 374.186H906.969ZM913.945 383.717L915.797 374.186H918.117L915.602 385.561H914.086L913.945 383.717ZM912.375 374.186L914.656 383.795L914.594 385.561H913.234L910.805 375.772L911.117 374.186H912.375ZM923.672 376.131L920.578 385.561H918.086L922.312 374.186H923.898L923.672 376.131ZM926.242 385.561L923.141 376.131L922.891 374.186H924.492L928.742 385.561H926.242ZM926.102 381.326V383.162H920.094V381.326H926.102ZM930.328 374.186L932.703 379.373L935.078 374.186H937.633L933.891 381.42V385.561H931.516V381.42L927.766 374.186H930.328ZM945.148 374.186V385.561H942.812V374.186H945.148ZM956.602 374.186V385.561H954.258L949.688 377.936V385.561H947.344V374.186H949.688L954.266 381.818V374.186H956.602Z" fill="#8C8C8C"/>
<path d="M908.133 263.756L910.398 254.186H911.664L911.953 255.779L909.539 265.561H908.18L908.133 263.756ZM906.969 254.186L908.844 263.756L908.688 265.561H907.172L904.648 254.186H906.969ZM913.945 263.717L915.797 254.186H918.117L915.602 265.561H914.086L913.945 263.717ZM912.375 254.186L914.656 263.795L914.594 265.561H913.234L910.805 255.772L911.117 254.186H912.375ZM923.672 256.131L920.578 265.561H918.086L922.312 254.186H923.898L923.672 256.131ZM926.242 265.561L923.141 256.131L922.891 254.186H924.492L928.742 265.561H926.242ZM926.102 261.326V263.162H920.094V261.326H926.102ZM930.328 254.186L932.703 259.373L935.078 254.186H937.633L933.891 261.42V265.561H931.516V261.42L927.766 254.186H930.328ZM945.148 254.186V265.561H942.812V254.186H945.148ZM956.602 254.186V265.561H954.258L949.688 257.936V265.561H947.344V254.186H949.688L954.266 261.818V254.186H956.602Z" fill="#8C8C8C"/>
<rect width="178" height="111" transform="translate(27 19)" fill="#BFBFBF"/>
<path fill-rule="evenodd" clip-rule="evenodd" d="M106.5 48.4821C105.833 48.867 105.833 49.8292 106.5 50.2141L112.296 53.5607C112.963 53.9456 113.796 53.4645 113.796 52.6947L113.796 51.6938L123.525 51.6938C124.63 51.6938 125.525 50.7984 125.525 49.6938L125.525 49.0023C125.525 47.8978 124.63 47.0023 123.525 47.0023L113.796 47.0023L113.796 46.0015C113.796 45.2317 112.963 44.7506 112.296 45.1355L106.5 48.4821Z" fill="#BFBFBF"/>
<rect x="27.5" y="19.5" width="177" height="110" rx="3.5" stroke="#8C8C8C"/>
<path d="M79.2344 81.0234C79.2344 80.8203 79.2031 80.638 79.1406 80.4766C79.0833 80.3099 78.974 80.1589 78.8125 80.0234C78.651 79.8828 78.4245 79.7448 78.1328 79.6094C77.8411 79.474 77.4635 79.3333 77 79.1875C76.4844 79.0208 75.9948 78.8333 75.5312 78.625C75.0729 78.4167 74.6667 78.1745 74.3125 77.8984C73.9635 77.6172 73.6875 77.2917 73.4844 76.9219C73.2865 76.5521 73.1875 76.1224 73.1875 75.6328C73.1875 75.1589 73.2917 74.7292 73.5 74.3438C73.7083 73.9531 74 73.6198 74.375 73.3438C74.75 73.0625 75.1927 72.8464 75.7031 72.6953C76.2188 72.5443 76.7839 72.4688 77.3984 72.4688C78.237 72.4688 78.9688 72.6198 79.5938 72.9219C80.2188 73.224 80.7031 73.638 81.0469 74.1641C81.3958 74.6901 81.5703 75.2917 81.5703 75.9688H79.2422C79.2422 75.6354 79.1719 75.3438 79.0312 75.0938C78.8958 74.8385 78.6875 74.638 78.4062 74.4922C78.1302 74.3464 77.7812 74.2734 77.3594 74.2734C76.9531 74.2734 76.6146 74.3359 76.3438 74.4609C76.0729 74.5807 75.8698 74.7448 75.7344 74.9531C75.599 75.1562 75.5312 75.3854 75.5312 75.6406C75.5312 75.8333 75.5781 76.0078 75.6719 76.1641C75.7708 76.3203 75.9167 76.4661 76.1094 76.6016C76.3021 76.737 76.5391 76.8646 76.8203 76.9844C77.1016 77.1042 77.4271 77.2214 77.7969 77.3359C78.4167 77.5234 78.9609 77.7344 79.4297 77.9688C79.9036 78.2031 80.2995 78.4661 80.6172 78.7578C80.9349 79.0495 81.1745 79.3802 81.3359 79.75C81.4974 80.1198 81.5781 80.5391 81.5781 81.0078C81.5781 81.5026 81.4818 81.9453 81.2891 82.3359C81.0964 82.7266 80.8177 83.0573 80.4531 83.3281C80.0885 83.599 79.6536 83.8047 79.1484 83.9453C78.6432 84.0859 78.0781 84.1562 77.4531 84.1562C76.8906 84.1562 76.3359 84.0833 75.7891 83.9375C75.2422 83.7865 74.7448 83.5599 74.2969 83.2578C73.8542 82.9557 73.5 82.5703 73.2344 82.1016C72.9688 81.6328 72.8359 81.0781 72.8359 80.4375H75.1875C75.1875 80.7917 75.2422 81.0911 75.3516 81.3359C75.4609 81.5807 75.6146 81.7786 75.8125 81.9297C76.0156 82.0807 76.2552 82.1901 76.5312 82.2578C76.8125 82.3255 77.1198 82.3594 77.4531 82.3594C77.8594 82.3594 78.1927 82.3021 78.4531 82.1875C78.7188 82.0729 78.9141 81.9141 79.0391 81.7109C79.1693 81.5078 79.2344 81.2786 79.2344 81.0234ZM87.1719 75.5469V77.1406H82.25V75.5469H87.1719ZM83.4688 73.4609H85.7188V81.4531C85.7188 81.6979 85.75 81.8854 85.8125 82.0156C85.8802 82.1458 85.9792 82.237 86.1094 82.2891C86.2396 82.3359 86.4036 82.3594 86.6016 82.3594C86.7422 82.3594 86.8672 82.3542 86.9766 82.3438C87.0911 82.3281 87.1875 82.3125 87.2656 82.2969L87.2734 83.9531C87.0807 84.0156 86.8724 84.0651 86.6484 84.1016C86.4245 84.138 86.1771 84.1562 85.9062 84.1562C85.4115 84.1562 84.9792 84.0755 84.6094 83.9141C84.2448 83.7474 83.9635 83.4818 83.7656 83.1172C83.5677 82.7526 83.4688 82.2734 83.4688 81.6797V73.4609ZM93.0156 82.0938V78.3281C93.0156 78.0573 92.9714 77.8255 92.8828 77.6328C92.7943 77.4349 92.6562 77.2812 92.4688 77.1719C92.2865 77.0625 92.0495 77.0078 91.7578 77.0078C91.5078 77.0078 91.2917 77.0521 91.1094 77.1406C90.9271 77.224 90.7865 77.3464 90.6875 77.5078C90.5885 77.6641 90.5391 77.849 90.5391 78.0625H88.2891C88.2891 77.7031 88.3724 77.362 88.5391 77.0391C88.7057 76.7161 88.9479 76.4323 89.2656 76.1875C89.5833 75.9375 89.9609 75.7422 90.3984 75.6016C90.8411 75.4609 91.3359 75.3906 91.8828 75.3906C92.5391 75.3906 93.1224 75.5 93.6328 75.7188C94.1432 75.9375 94.5443 76.2656 94.8359 76.7031C95.1328 77.1406 95.2812 77.6875 95.2812 78.3438V81.9609C95.2812 82.4245 95.3099 82.8047 95.3672 83.1016C95.4245 83.3932 95.5078 83.6484 95.6172 83.8672V84H93.3438C93.2344 83.7708 93.151 83.4844 93.0938 83.1406C93.0417 82.7917 93.0156 82.4427 93.0156 82.0938ZM93.3125 78.8516L93.3281 80.125H92.0703C91.7734 80.125 91.5156 80.1589 91.2969 80.2266C91.0781 80.2943 90.8984 80.3906 90.7578 80.5156C90.6172 80.6354 90.513 80.776 90.4453 80.9375C90.3828 81.099 90.3516 81.276 90.3516 81.4688C90.3516 81.6615 90.3958 81.8359 90.4844 81.9922C90.5729 82.1432 90.7005 82.263 90.8672 82.3516C91.0339 82.4349 91.2292 82.4766 91.4531 82.4766C91.7917 82.4766 92.0859 82.4089 92.3359 82.2734C92.5859 82.138 92.7786 81.9714 92.9141 81.7734C93.0547 81.5755 93.1276 81.388 93.1328 81.2109L93.7266 82.1641C93.6432 82.3776 93.5286 82.599 93.3828 82.8281C93.2422 83.0573 93.0625 83.2734 92.8438 83.4766C92.625 83.6745 92.362 83.8385 92.0547 83.9688C91.7474 84.0938 91.3828 84.1562 90.9609 84.1562C90.4245 84.1562 89.9375 84.0495 89.5 83.8359C89.0677 83.6172 88.724 83.3177 88.4688 82.9375C88.2188 82.5521 88.0938 82.1146 88.0938 81.625C88.0938 81.1823 88.1771 80.7891 88.3438 80.4453C88.5104 80.1016 88.7552 79.8125 89.0781 79.5781C89.4062 79.3385 89.8151 79.1589 90.3047 79.0391C90.7943 78.9141 91.362 78.8516 92.0078 78.8516H93.3125ZM101.156 75.5469V77.1406H96.2344V75.5469H101.156ZM97.4531 73.4609H99.7031V81.4531C99.7031 81.6979 99.7344 81.8854 99.7969 82.0156C99.8646 82.1458 99.9635 82.237 100.094 82.2891C100.224 82.3359 100.388 82.3594 100.586 82.3594C100.727 82.3594 100.852 82.3542 100.961 82.3438C101.076 82.3281 101.172 82.3125 101.25 82.2969L101.258 83.9531C101.065 84.0156 100.857 84.0651 100.633 84.1016C100.409 84.138 100.161 84.1562 99.8906 84.1562C99.3958 84.1562 98.9635 84.0755 98.5938 83.9141C98.2292 83.7474 97.9479 83.4818 97.75 83.1172C97.5521 82.7526 97.4531 82.2734 97.4531 81.6797V73.4609ZM104.812 75.5469V84H102.555V75.5469H104.812ZM102.414 73.3438C102.414 73.0156 102.529 72.7448 102.758 72.5312C102.987 72.3177 103.294 72.2109 103.68 72.2109C104.06 72.2109 104.365 72.3177 104.594 72.5312C104.828 72.7448 104.945 73.0156 104.945 73.3438C104.945 73.6719 104.828 73.9427 104.594 74.1562C104.365 74.3698 104.06 74.4766 103.68 74.4766C103.294 74.4766 102.987 74.3698 102.758 74.1562C102.529 73.9427 102.414 73.6719 102.414 73.3438ZM106.312 79.8594V79.6953C106.312 79.0755 106.401 78.5052 106.578 77.9844C106.755 77.4583 107.013 77.0026 107.352 76.6172C107.69 76.2318 108.107 75.9323 108.602 75.7188C109.096 75.5 109.664 75.3906 110.305 75.3906C110.945 75.3906 111.516 75.5 112.016 75.7188C112.516 75.9323 112.935 76.2318 113.273 76.6172C113.617 77.0026 113.878 77.4583 114.055 77.9844C114.232 78.5052 114.32 79.0755 114.32 79.6953V79.8594C114.32 80.474 114.232 81.0443 114.055 81.5703C113.878 82.0911 113.617 82.5469 113.273 82.9375C112.935 83.3229 112.518 83.6224 112.023 83.8359C111.529 84.0495 110.961 84.1562 110.32 84.1562C109.68 84.1562 109.109 84.0495 108.609 83.8359C108.115 83.6224 107.695 83.3229 107.352 82.9375C107.013 82.5469 106.755 82.0911 106.578 81.5703C106.401 81.0443 106.312 80.474 106.312 79.8594ZM108.562 79.6953V79.8594C108.562 80.2135 108.594 80.5443 108.656 80.8516C108.719 81.1589 108.818 81.4297 108.953 81.6641C109.094 81.8932 109.276 82.0729 109.5 82.2031C109.724 82.3333 109.997 82.3984 110.32 82.3984C110.633 82.3984 110.901 82.3333 111.125 82.2031C111.349 82.0729 111.529 81.8932 111.664 81.6641C111.799 81.4297 111.898 81.1589 111.961 80.8516C112.029 80.5443 112.062 80.2135 112.062 79.8594V79.6953C112.062 79.3516 112.029 79.0286 111.961 78.7266C111.898 78.4193 111.797 78.1484 111.656 77.9141C111.521 77.6745 111.341 77.487 111.117 77.3516C110.893 77.2161 110.622 77.1484 110.305 77.1484C109.987 77.1484 109.716 77.2161 109.492 77.3516C109.273 77.487 109.094 77.6745 108.953 77.9141C108.818 78.1484 108.719 78.4193 108.656 78.7266C108.594 79.0286 108.562 79.3516 108.562 79.6953ZM117.906 77.3516V84H115.656V75.5469H117.766L117.906 77.3516ZM117.578 79.4766H116.969C116.969 78.8516 117.049 78.2891 117.211 77.7891C117.372 77.2839 117.599 76.8542 117.891 76.5C118.182 76.1406 118.529 75.8672 118.93 75.6797C119.336 75.487 119.789 75.3906 120.289 75.3906C120.685 75.3906 121.047 75.4479 121.375 75.5625C121.703 75.6771 121.984 75.8594 122.219 76.1094C122.458 76.3594 122.641 76.6901 122.766 77.1016C122.896 77.513 122.961 78.0156 122.961 78.6094V84H120.695V78.6016C120.695 78.2266 120.643 77.9349 120.539 77.7266C120.435 77.5182 120.281 77.3724 120.078 77.2891C119.88 77.2005 119.635 77.1562 119.344 77.1562C119.042 77.1562 118.779 77.2161 118.555 77.3359C118.336 77.4557 118.154 77.6224 118.008 77.8359C117.867 78.0443 117.76 78.2891 117.688 78.5703C117.615 78.8516 117.578 79.1536 117.578 79.4766ZM129.266 79.0078H126.344L126.328 77.3984H128.781C129.214 77.3984 129.568 77.3438 129.844 77.2344C130.12 77.1198 130.326 76.9557 130.461 76.7422C130.602 76.5234 130.672 76.2578 130.672 75.9453C130.672 75.5911 130.604 75.3047 130.469 75.0859C130.339 74.8672 130.133 74.7083 129.852 74.6094C129.576 74.5104 129.219 74.4609 128.781 74.4609H127.156V84H124.812V72.625H128.781C129.443 72.625 130.034 72.6875 130.555 72.8125C131.081 72.9375 131.526 73.1276 131.891 73.3828C132.255 73.638 132.534 73.9609 132.727 74.3516C132.919 74.737 133.016 75.1953 133.016 75.7266C133.016 76.1953 132.909 76.6276 132.695 77.0234C132.487 77.4193 132.156 77.7422 131.703 77.9922C131.255 78.2422 130.669 78.3802 129.945 78.4062L129.266 79.0078ZM129.164 84H125.703L126.617 82.1719H129.164C129.576 82.1719 129.911 82.1068 130.172 81.9766C130.432 81.8411 130.625 81.6589 130.75 81.4297C130.875 81.2005 130.938 80.9375 130.938 80.6406C130.938 80.3073 130.88 80.0182 130.766 79.7734C130.656 79.5286 130.479 79.3411 130.234 79.2109C129.99 79.0755 129.667 79.0078 129.266 79.0078H127.008L127.023 77.3984H129.836L130.375 78.0312C131.068 78.0208 131.625 78.1432 132.047 78.3984C132.474 78.6484 132.784 78.974 132.977 79.375C133.174 79.776 133.273 80.2057 133.273 80.6641C133.273 81.3932 133.115 82.0078 132.797 82.5078C132.479 83.0026 132.013 83.375 131.398 83.625C130.789 83.875 130.044 84 129.164 84ZM139.328 78.2344V80H134.914V78.2344H139.328ZM148.766 77.3125V79.2812C148.766 80.1354 148.674 80.8724 148.492 81.4922C148.31 82.1068 148.047 82.612 147.703 83.0078C147.365 83.3984 146.961 83.6875 146.492 83.875C146.023 84.0625 145.503 84.1562 144.93 84.1562C144.471 84.1562 144.044 84.099 143.648 83.9844C143.253 83.8646 142.896 83.6797 142.578 83.4297C142.266 83.1797 141.995 82.8646 141.766 82.4844C141.542 82.099 141.37 81.6406 141.25 81.1094C141.13 80.5781 141.07 79.9688 141.07 79.2812V77.3125C141.07 76.4583 141.161 75.7266 141.344 75.1172C141.531 74.5026 141.794 74 142.133 73.6094C142.477 73.2188 142.883 72.9323 143.352 72.75C143.82 72.5625 144.341 72.4688 144.914 72.4688C145.372 72.4688 145.797 72.5286 146.188 72.6484C146.583 72.763 146.94 72.9427 147.258 73.1875C147.576 73.4323 147.846 73.7474 148.07 74.1328C148.294 74.513 148.466 74.9688 148.586 75.5C148.706 76.026 148.766 76.6302 148.766 77.3125ZM146.508 79.5781V77.0078C146.508 76.5964 146.484 76.237 146.438 75.9297C146.396 75.6224 146.331 75.362 146.242 75.1484C146.154 74.9297 146.044 74.7526 145.914 74.6172C145.784 74.4818 145.635 74.3828 145.469 74.3203C145.302 74.2578 145.117 74.2266 144.914 74.2266C144.659 74.2266 144.432 74.276 144.234 74.375C144.042 74.474 143.878 74.6328 143.742 74.8516C143.607 75.0651 143.503 75.3516 143.43 75.7109C143.362 76.0651 143.328 76.4974 143.328 77.0078V79.5781C143.328 79.9896 143.349 80.3516 143.391 80.6641C143.438 80.9766 143.505 81.2448 143.594 81.4688C143.688 81.6875 143.797 81.8672 143.922 82.0078C144.052 82.1432 144.201 82.2422 144.367 82.3047C144.539 82.3672 144.727 82.3984 144.93 82.3984C145.18 82.3984 145.401 82.349 145.594 82.25C145.792 82.1458 145.958 81.9844 146.094 81.7656C146.234 81.5417 146.339 81.25 146.406 80.8906C146.474 80.5312 146.508 80.0938 146.508 79.5781ZM158.078 82.2422V84H150.297V82.5L153.977 78.5547C154.346 78.1432 154.638 77.7812 154.852 77.4688C155.065 77.151 155.219 76.8672 155.312 76.6172C155.411 76.362 155.461 76.1198 155.461 75.8906C155.461 75.5469 155.404 75.2526 155.289 75.0078C155.174 74.7578 155.005 74.5651 154.781 74.4297C154.562 74.2943 154.292 74.2266 153.969 74.2266C153.625 74.2266 153.328 74.3099 153.078 74.4766C152.833 74.6432 152.646 74.875 152.516 75.1719C152.391 75.4688 152.328 75.8047 152.328 76.1797H150.07C150.07 75.5026 150.232 74.8828 150.555 74.3203C150.878 73.7526 151.333 73.3021 151.922 72.9688C152.51 72.6302 153.208 72.4609 154.016 72.4609C154.812 72.4609 155.484 72.5911 156.031 72.8516C156.583 73.1068 157 73.4766 157.281 73.9609C157.568 74.4401 157.711 75.013 157.711 75.6797C157.711 76.0547 157.651 76.4219 157.531 76.7812C157.411 77.1354 157.24 77.4896 157.016 77.8438C156.797 78.1927 156.531 78.5469 156.219 78.9062C155.906 79.2656 155.56 79.638 155.18 80.0234L153.203 82.2422H158.078Z" fill="#8C8C8C"/>
<path fill-rule="evenodd" clip-rule="evenodd" d="M106.5 105.482C105.833 105.867 105.833 106.829 106.5 107.214L112.296 110.561C112.963 110.946 113.796 110.464 113.796 109.695L113.796 108.694L123.525 108.694C124.63 108.694 125.525 107.798 125.525 106.694L125.525 106.002C125.525 104.898 124.63 104.002 123.525 104.002L113.796 104.002L113.796 103.001C113.796 102.232 112.963 101.751 112.296 102.135L106.5 105.482Z" fill="#BFBFBF"/>
<path fill-rule="evenodd" clip-rule="evenodd" d="M351.505 80.1361C350.832 80.5197 350.832 81.4903 351.505 81.8739L362.042 87.8774C362.709 88.2572 363.537 87.7758 363.537 87.0085L363.537 84.5727L379.612 84.5727C380.717 84.5727 381.612 83.6772 381.612 82.5727L381.612 79.4374C381.612 78.3328 380.717 77.4374 379.612 77.4374L363.537 77.4374L363.537 75.0015C363.537 74.2342 362.709 73.7528 362.042 74.1326L351.505 80.1361Z" fill="#BFBFBF"/>
<path fill-rule="evenodd" clip-rule="evenodd" d="M553.505 80.1361C552.832 80.5197 552.832 81.4903 553.505 81.8739L564.042 87.8774C564.709 88.2572 565.537 87.7758 565.537 87.0085L565.537 84.5727L581.612 84.5727C582.717 84.5727 583.612 83.6772 583.612 82.5727L583.612 79.4374C583.612 78.3328 582.717 77.4374 581.612 77.4374L565.537 77.4374L565.537 75.0015C565.537 74.2342 564.709 73.7528 564.042 74.1326L553.505 80.1361Z" fill="#BFBFBF"/>
<path fill-rule="evenodd" clip-rule="evenodd" d="M772.505 80.1361C771.832 80.5197 771.832 81.4903 772.505 81.8739L783.042 87.8774C783.709 88.2572 784.537 87.7758 784.537 87.0085L784.537 84.5727L800.612 84.5727C801.717 84.5727 802.612 83.6772 802.612 82.5727L802.612 79.4374C802.612 78.3328 801.717 77.4374 800.612 77.4374L784.537 77.4374L784.537 75.0015C784.537 74.2342 783.709 73.7528 783.042 74.1326L772.505 80.1361Z" fill="#BFBFBF"/>
</g>
<defs>
<filter id="filter0_d_180_3535" x="0" y="0" width="1008" height="549.469" filterUnits="userSpaceOnUse" color-interpolation-filters="sRGB">
<feFlood flood-opacity="0" result="BackgroundImageFix"/>
<feColorMatrix in="SourceAlpha" type="matrix" values="0 0 0 0 0 0 0 0 0 0 0 0 0 0 0 0 0 0 127 0" result="hardAlpha"/>
<feOffset/>
<feGaussianBlur stdDeviation="2"/>
<feComposite in2="hardAlpha" operator="out"/>
<feColorMatrix type="matrix" values="0 0 0 0 0 0 0 0 0 0 0 0 0 0 0 0 0 0 0.25 0"/>
<feBlend mode="normal" in2="BackgroundImageFix" result="effect1_dropShadow_180_3535"/>
<feBlend mode="normal" in="SourceGraphic" in2="effect1_dropShadow_180_3535" result="shape"/>
</filter>
</defs>
</svg>
