<svg width="1008" height="550" viewBox="0 0 1008 550" fill="none" xmlns="http://www.w3.org/2000/svg">
<g filter="url(#filter0_d_165_1352)">
<rect x="4" y="4" width="1000" height="541.469" rx="8" fill="#D9D9D9"/>
<rect x="4.5" y="4.5" width="999" height="540.469" rx="7.5" stroke="#BFBFBF"/>
<circle cx="504" cy="64" r="28" fill="#8C8C8C"/>
<circle cx="906" cy="64" r="36" fill="#8C8C8C"/>
<circle cx="906" cy="482" r="36" fill="#8C8C8C"/>
<g clip-path="url(#clip0_165_1352)">
<line y1="-0.5" x2="258.074" y2="-0.5" transform="matrix(0.461109 0.887344 -0.461109 0.887344 788 167)" stroke="#8C8C8C"/>
<line y1="-0.5" x2="258.074" y2="-0.5" transform="matrix(0.461109 0.887344 -0.461109 0.887344 817 167)" stroke="#8C8C8C"/>
<line y1="-0.5" x2="258.074" y2="-0.5" transform="matrix(0.461109 0.887344 -0.461109 0.887344 846 167)" stroke="#8C8C8C"/>
<line y1="-0.5" x2="258.074" y2="-0.5" transform="matrix(0.461109 0.887344 -0.461109 0.887344 875 167)" stroke="#8C8C8C"/>
<line y1="-0.5" x2="258.074" y2="-0.5" transform="matrix(0.461109 0.887344 -0.461109 0.887344 904 167)" stroke="#8C8C8C"/>
<line y1="-0.5" x2="258.074" y2="-0.5" transform="matrix(0.461109 0.887344 -0.461109 0.887344 933 167)" stroke="#8C8C8C"/>
<line y1="-0.5" x2="258.074" y2="-0.5" transform="matrix(0.461109 0.887344 -0.461109 0.887344 962 167)" stroke="#8C8C8C"/>
</g>
<rect x="850.5" y="197.5" width="118" height="146" rx="3.5" stroke="#8C8C8C"/>
<circle cx="504" cy="64" r="28" fill="#8C8C8C"/>
<circle cx="106" cy="480" r="41" fill="#8C8C8C"/>
<mask id="path-17-inside-1_165_1352" fill="white">
<path d="M36 427C31.5817 427 28 423.418 28 419L28 28C28 23.5817 31.5817 20 36 20L157 20C161.418 20 165 23.5817 165 28L165 419C165 423.418 161.418 427 157 427L36 427Z"/>
</mask>
<path d="M29 419L29 28L27 28L27 419L29 419ZM36 21L157 21L157 19L36 19L36 21ZM164 28L164 419L166 419L166 28L164 28ZM157 426L36 426L36 428L157 428L157 426ZM164 419C164 422.866 160.866 426 157 426L157 428C161.971 428 166 423.971 166 419L164 419ZM157 21C160.866 21 164 24.134 164 28L166 28C166 23.0294 161.971 19 157 19L157 21ZM29 28C29 24.134 32.134 21 36 21L36 19C31.0294 19 27 23.0294 27 28L29 28ZM27 419C27 423.971 31.0294 428 36 428L36 426C32.134 426 29 422.866 29 419L27 419Z" fill="#8C8C8C" mask="url(#path-17-inside-1_165_1352)"/>
<path fill-rule="evenodd" clip-rule="evenodd" d="M97.406 323.5C97.0211 322.833 96.0589 322.833 95.674 323.5L88.1355 336.557C87.7506 337.224 88.2317 338.057 89.0015 338.057L92.2574 338.057V357.467C92.2574 358.571 93.1529 359.467 94.2574 359.467H98.8212C99.9258 359.467 100.821 358.571 100.821 357.467V338.057L104.079 338.057C104.848 338.057 105.329 337.224 104.945 336.557L97.406 323.5Z" fill="#BFBFBF"/>
<path fill-rule="evenodd" clip-rule="evenodd" d="M97.406 249.5C97.0211 248.833 96.0589 248.833 95.674 249.5L88.1355 262.557C87.7506 263.224 88.2317 264.057 89.0015 264.057L92.2574 264.057V283.467C92.2574 284.571 93.1529 285.467 94.2574 285.467H98.8212C99.9258 285.467 100.821 284.571 100.821 283.467V264.057L104.079 264.057C104.848 264.057 105.329 263.224 104.945 262.557L97.406 249.5Z" fill="#BFBFBF"/>
<path fill-rule="evenodd" clip-rule="evenodd" d="M97.406 160.5C97.0211 159.833 96.0589 159.833 95.674 160.5L88.1355 173.557C87.7506 174.224 88.2317 175.057 89.0015 175.057L92.2574 175.057V194.467C92.2574 195.571 93.1529 196.467 94.2574 196.467H98.8212C99.9258 196.467 100.821 195.571 100.821 194.467V175.057L104.079 175.057C104.848 175.057 105.329 174.224 104.945 173.557L97.406 160.5Z" fill="#BFBFBF"/>
<path fill-rule="evenodd" clip-rule="evenodd" d="M97.406 71.5C97.0211 70.8333 96.0589 70.8333 95.674 71.5L88.1355 84.5571C87.7506 85.2238 88.2317 86.0571 89.0015 86.0571L92.2574 86.0571V105.467C92.2574 106.571 93.1529 107.467 94.2574 107.467H98.8212C99.9258 107.467 100.821 106.571 100.821 105.467V86.0571L104.079 86.0571C104.848 86.0571 105.329 85.2238 104.945 84.5571L97.406 71.5Z" fill="#BFBFBF"/>
<path d="M66.375 226.195L68.6406 216.625H69.9062L70.1953 218.219L67.7812 228H66.4219L66.375 226.195ZM65.2109 216.625L67.0859 226.195L66.9297 228H65.4141L62.8906 216.625H65.2109ZM72.1875 226.156L74.0391 216.625H76.3594L73.8438 228H72.3281L72.1875 226.156ZM70.6172 216.625L72.8984 226.234L72.8359 228H71.4766L69.0469 218.211L69.3594 216.625H70.6172ZM81.9141 218.57L78.8203 228H76.3281L80.5547 216.625H82.1406L81.9141 218.57ZM84.4844 228L81.3828 218.57L81.1328 216.625H82.7344L86.9844 228H84.4844ZM84.3438 223.766V225.602H78.3359V223.766H84.3438ZM88.5703 216.625L90.9453 221.812L93.3203 216.625H95.875L92.1328 223.859V228H89.7578V223.859L86.0078 216.625H88.5703ZM110.242 222.047V222.586C110.242 223.451 110.125 224.227 109.891 224.914C109.656 225.602 109.326 226.188 108.898 226.672C108.471 227.151 107.961 227.518 107.367 227.773C106.779 228.029 106.125 228.156 105.406 228.156C104.693 228.156 104.039 228.029 103.445 227.773C102.857 227.518 102.346 227.151 101.914 226.672C101.482 226.188 101.146 225.602 100.906 224.914C100.672 224.227 100.555 223.451 100.555 222.586V222.047C100.555 221.177 100.672 220.401 100.906 219.719C101.141 219.031 101.471 218.445 101.898 217.961C102.331 217.477 102.841 217.107 103.43 216.852C104.023 216.596 104.677 216.469 105.391 216.469C106.109 216.469 106.763 216.596 107.352 216.852C107.945 217.107 108.456 217.477 108.883 217.961C109.315 218.445 109.648 219.031 109.883 219.719C110.122 220.401 110.242 221.177 110.242 222.047ZM107.875 222.586V222.031C107.875 221.427 107.82 220.896 107.711 220.438C107.602 219.979 107.44 219.594 107.227 219.281C107.013 218.969 106.753 218.734 106.445 218.578C106.138 218.417 105.786 218.336 105.391 218.336C104.995 218.336 104.643 218.417 104.336 218.578C104.034 218.734 103.776 218.969 103.562 219.281C103.354 219.594 103.195 219.979 103.086 220.438C102.977 220.896 102.922 221.427 102.922 222.031V222.586C102.922 223.185 102.977 223.716 103.086 224.18C103.195 224.638 103.357 225.026 103.57 225.344C103.784 225.656 104.044 225.893 104.352 226.055C104.659 226.216 105.01 226.297 105.406 226.297C105.802 226.297 106.154 226.216 106.461 226.055C106.768 225.893 107.026 225.656 107.234 225.344C107.443 225.026 107.602 224.638 107.711 224.18C107.82 223.716 107.875 223.185 107.875 222.586ZM118.211 216.625H120.547V224.141C120.547 225.016 120.359 225.753 119.984 226.352C119.615 226.951 119.102 227.401 118.445 227.703C117.794 228.005 117.044 228.156 116.195 228.156C115.346 228.156 114.591 228.005 113.93 227.703C113.273 227.401 112.758 226.951 112.383 226.352C112.013 225.753 111.828 225.016 111.828 224.141V216.625H114.172V224.141C114.172 224.651 114.253 225.068 114.414 225.391C114.576 225.714 114.807 225.951 115.109 226.102C115.417 226.253 115.779 226.328 116.195 226.328C116.622 226.328 116.984 226.253 117.281 226.102C117.583 225.951 117.812 225.714 117.969 225.391C118.13 225.068 118.211 224.651 118.211 224.141V216.625ZM127.562 216.625V228H125.227V216.625H127.562ZM131.062 216.625V218.461H121.781V216.625H131.062Z" fill="#8C8C8C"/>
<rect x="36.5" y="30.5" width="121" height="110" rx="3.5" fill="#BFBFBF" stroke="#8C8C8C"/>
<path d="M60.1094 92.0234C60.1094 91.8203 60.0781 91.638 60.0156 91.4766C59.9583 91.3099 59.849 91.1589 59.6875 91.0234C59.526 90.8828 59.2995 90.7448 59.0078 90.6094C58.7161 90.474 58.3385 90.3333 57.875 90.1875C57.3594 90.0208 56.8698 89.8333 56.4062 89.625C55.9479 89.4167 55.5417 89.1745 55.1875 88.8984C54.8385 88.6172 54.5625 88.2917 54.3594 87.9219C54.1615 87.5521 54.0625 87.1224 54.0625 86.6328C54.0625 86.1589 54.1667 85.7292 54.375 85.3438C54.5833 84.9531 54.875 84.6198 55.25 84.3438C55.625 84.0625 56.0677 83.8464 56.5781 83.6953C57.0938 83.5443 57.6589 83.4688 58.2734 83.4688C59.112 83.4688 59.8438 83.6198 60.4688 83.9219C61.0938 84.224 61.5781 84.638 61.9219 85.1641C62.2708 85.6901 62.4453 86.2917 62.4453 86.9688H60.1172C60.1172 86.6354 60.0469 86.3438 59.9062 86.0938C59.7708 85.8385 59.5625 85.638 59.2812 85.4922C59.0052 85.3464 58.6562 85.2734 58.2344 85.2734C57.8281 85.2734 57.4896 85.3359 57.2188 85.4609C56.9479 85.5807 56.7448 85.7448 56.6094 85.9531C56.474 86.1562 56.4062 86.3854 56.4062 86.6406C56.4062 86.8333 56.4531 87.0078 56.5469 87.1641C56.6458 87.3203 56.7917 87.4661 56.9844 87.6016C57.1771 87.737 57.4141 87.8646 57.6953 87.9844C57.9766 88.1042 58.3021 88.2214 58.6719 88.3359C59.2917 88.5234 59.8359 88.7344 60.3047 88.9688C60.7786 89.2031 61.1745 89.4661 61.4922 89.7578C61.8099 90.0495 62.0495 90.3802 62.2109 90.75C62.3724 91.1198 62.4531 91.5391 62.4531 92.0078C62.4531 92.5026 62.3568 92.9453 62.1641 93.3359C61.9714 93.7266 61.6927 94.0573 61.3281 94.3281C60.9635 94.599 60.5286 94.8047 60.0234 94.9453C59.5182 95.0859 58.9531 95.1562 58.3281 95.1562C57.7656 95.1562 57.2109 95.0833 56.6641 94.9375C56.1172 94.7865 55.6198 94.5599 55.1719 94.2578C54.7292 93.9557 54.375 93.5703 54.1094 93.1016C53.8438 92.6328 53.7109 92.0781 53.7109 91.4375H56.0625C56.0625 91.7917 56.1172 92.0911 56.2266 92.3359C56.3359 92.5807 56.4896 92.7786 56.6875 92.9297C56.8906 93.0807 57.1302 93.1901 57.4062 93.2578C57.6875 93.3255 57.9948 93.3594 58.3281 93.3594C58.7344 93.3594 59.0677 93.3021 59.3281 93.1875C59.5938 93.0729 59.7891 92.9141 59.9141 92.7109C60.0443 92.5078 60.1094 92.2786 60.1094 92.0234ZM68.0469 86.5469V88.1406H63.125V86.5469H68.0469ZM64.3438 84.4609H66.5938V92.4531C66.5938 92.6979 66.625 92.8854 66.6875 93.0156C66.7552 93.1458 66.8542 93.237 66.9844 93.2891C67.1146 93.3359 67.2786 93.3594 67.4766 93.3594C67.6172 93.3594 67.7422 93.3542 67.8516 93.3438C67.9661 93.3281 68.0625 93.3125 68.1406 93.2969L68.1484 94.9531C67.9557 95.0156 67.7474 95.0651 67.5234 95.1016C67.2995 95.138 67.0521 95.1562 66.7812 95.1562C66.2865 95.1562 65.8542 95.0755 65.4844 94.9141C65.1198 94.7474 64.8385 94.4818 64.6406 94.1172C64.4427 93.7526 64.3438 93.2734 64.3438 92.6797V84.4609ZM73.8906 93.0938V89.3281C73.8906 89.0573 73.8464 88.8255 73.7578 88.6328C73.6693 88.4349 73.5312 88.2812 73.3438 88.1719C73.1615 88.0625 72.9245 88.0078 72.6328 88.0078C72.3828 88.0078 72.1667 88.0521 71.9844 88.1406C71.8021 88.224 71.6615 88.3464 71.5625 88.5078C71.4635 88.6641 71.4141 88.849 71.4141 89.0625H69.1641C69.1641 88.7031 69.2474 88.362 69.4141 88.0391C69.5807 87.7161 69.8229 87.4323 70.1406 87.1875C70.4583 86.9375 70.8359 86.7422 71.2734 86.6016C71.7161 86.4609 72.2109 86.3906 72.7578 86.3906C73.4141 86.3906 73.9974 86.5 74.5078 86.7188C75.0182 86.9375 75.4193 87.2656 75.7109 87.7031C76.0078 88.1406 76.1562 88.6875 76.1562 89.3438V92.9609C76.1562 93.4245 76.1849 93.8047 76.2422 94.1016C76.2995 94.3932 76.3828 94.6484 76.4922 94.8672V95H74.2188C74.1094 94.7708 74.026 94.4844 73.9688 94.1406C73.9167 93.7917 73.8906 93.4427 73.8906 93.0938ZM74.1875 89.8516L74.2031 91.125H72.9453C72.6484 91.125 72.3906 91.1589 72.1719 91.2266C71.9531 91.2943 71.7734 91.3906 71.6328 91.5156C71.4922 91.6354 71.388 91.776 71.3203 91.9375C71.2578 92.099 71.2266 92.276 71.2266 92.4688C71.2266 92.6615 71.2708 92.8359 71.3594 92.9922C71.4479 93.1432 71.5755 93.263 71.7422 93.3516C71.9089 93.4349 72.1042 93.4766 72.3281 93.4766C72.6667 93.4766 72.9609 93.4089 73.2109 93.2734C73.4609 93.138 73.6536 92.9714 73.7891 92.7734C73.9297 92.5755 74.0026 92.388 74.0078 92.2109L74.6016 93.1641C74.5182 93.3776 74.4036 93.599 74.2578 93.8281C74.1172 94.0573 73.9375 94.2734 73.7188 94.4766C73.5 94.6745 73.237 94.8385 72.9297 94.9688C72.6224 95.0938 72.2578 95.1562 71.8359 95.1562C71.2995 95.1562 70.8125 95.0495 70.375 94.8359C69.9427 94.6172 69.599 94.3177 69.3438 93.9375C69.0938 93.5521 68.9688 93.1146 68.9688 92.625C68.9688 92.1823 69.0521 91.7891 69.2188 91.4453C69.3854 91.1016 69.6302 90.8125 69.9531 90.5781C70.2812 90.3385 70.6901 90.1589 71.1797 90.0391C71.6693 89.9141 72.237 89.8516 72.8828 89.8516H74.1875ZM82.0312 86.5469V88.1406H77.1094V86.5469H82.0312ZM78.3281 84.4609H80.5781V92.4531C80.5781 92.6979 80.6094 92.8854 80.6719 93.0156C80.7396 93.1458 80.8385 93.237 80.9688 93.2891C81.099 93.3359 81.263 93.3594 81.4609 93.3594C81.6016 93.3594 81.7266 93.3542 81.8359 93.3438C81.9505 93.3281 82.0469 93.3125 82.125 93.2969L82.1328 94.9531C81.9401 95.0156 81.7318 95.0651 81.5078 95.1016C81.2839 95.138 81.0365 95.1562 80.7656 95.1562C80.2708 95.1562 79.8385 95.0755 79.4688 94.9141C79.1042 94.7474 78.8229 94.4818 78.625 94.1172C78.4271 93.7526 78.3281 93.2734 78.3281 92.6797V84.4609ZM85.6875 86.5469V95H83.4297V86.5469H85.6875ZM83.2891 84.3438C83.2891 84.0156 83.4036 83.7448 83.6328 83.5312C83.862 83.3177 84.1693 83.2109 84.5547 83.2109C84.9349 83.2109 85.2396 83.3177 85.4688 83.5312C85.7031 83.7448 85.8203 84.0156 85.8203 84.3438C85.8203 84.6719 85.7031 84.9427 85.4688 85.1562C85.2396 85.3698 84.9349 85.4766 84.5547 85.4766C84.1693 85.4766 83.862 85.3698 83.6328 85.1562C83.4036 84.9427 83.2891 84.6719 83.2891 84.3438ZM87.1875 90.8594V90.6953C87.1875 90.0755 87.276 89.5052 87.4531 88.9844C87.6302 88.4583 87.888 88.0026 88.2266 87.6172C88.5651 87.2318 88.9818 86.9323 89.4766 86.7188C89.9714 86.5 90.5391 86.3906 91.1797 86.3906C91.8203 86.3906 92.3906 86.5 92.8906 86.7188C93.3906 86.9323 93.8099 87.2318 94.1484 87.6172C94.4922 88.0026 94.7526 88.4583 94.9297 88.9844C95.1068 89.5052 95.1953 90.0755 95.1953 90.6953V90.8594C95.1953 91.474 95.1068 92.0443 94.9297 92.5703C94.7526 93.0911 94.4922 93.5469 94.1484 93.9375C93.8099 94.3229 93.3932 94.6224 92.8984 94.8359C92.4036 95.0495 91.8359 95.1562 91.1953 95.1562C90.5547 95.1562 89.9844 95.0495 89.4844 94.8359C88.9896 94.6224 88.5703 94.3229 88.2266 93.9375C87.888 93.5469 87.6302 93.0911 87.4531 92.5703C87.276 92.0443 87.1875 91.474 87.1875 90.8594ZM89.4375 90.6953V90.8594C89.4375 91.2135 89.4688 91.5443 89.5312 91.8516C89.5938 92.1589 89.6927 92.4297 89.8281 92.6641C89.9688 92.8932 90.151 93.0729 90.375 93.2031C90.599 93.3333 90.8724 93.3984 91.1953 93.3984C91.5078 93.3984 91.776 93.3333 92 93.2031C92.224 93.0729 92.4036 92.8932 92.5391 92.6641C92.6745 92.4297 92.7734 92.1589 92.8359 91.8516C92.9036 91.5443 92.9375 91.2135 92.9375 90.8594V90.6953C92.9375 90.3516 92.9036 90.0286 92.8359 89.7266C92.7734 89.4193 92.6719 89.1484 92.5312 88.9141C92.3958 88.6745 92.2161 88.487 91.9922 88.3516C91.7682 88.2161 91.4974 88.1484 91.1797 88.1484C90.862 88.1484 90.5911 88.2161 90.3672 88.3516C90.1484 88.487 89.9688 88.6745 89.8281 88.9141C89.6927 89.1484 89.5938 89.4193 89.5312 89.7266C89.4688 90.0286 89.4375 90.3516 89.4375 90.6953ZM98.7812 88.3516V95H96.5312V86.5469H98.6406L98.7812 88.3516ZM98.4531 90.4766H97.8438C97.8438 89.8516 97.9245 89.2891 98.0859 88.7891C98.2474 88.2839 98.474 87.8542 98.7656 87.5C99.0573 87.1406 99.4036 86.8672 99.8047 86.6797C100.211 86.487 100.664 86.3906 101.164 86.3906C101.56 86.3906 101.922 86.4479 102.25 86.5625C102.578 86.6771 102.859 86.8594 103.094 87.1094C103.333 87.3594 103.516 87.6901 103.641 88.1016C103.771 88.513 103.836 89.0156 103.836 89.6094V95H101.57V89.6016C101.57 89.2266 101.518 88.9349 101.414 88.7266C101.31 88.5182 101.156 88.3724 100.953 88.2891C100.755 88.2005 100.51 88.1562 100.219 88.1562C99.9167 88.1562 99.6536 88.2161 99.4297 88.3359C99.2109 88.4557 99.0286 88.6224 98.8828 88.8359C98.7422 89.0443 98.6354 89.2891 98.5625 89.5703C98.4896 89.8516 98.4531 90.1536 98.4531 90.4766ZM112.281 91.2266H114.617C114.57 91.9922 114.359 92.6719 113.984 93.2656C113.615 93.8594 113.096 94.3229 112.43 94.6562C111.768 94.9896 110.971 95.1562 110.039 95.1562C109.31 95.1562 108.656 95.0312 108.078 94.7812C107.5 94.526 107.005 94.1615 106.594 93.6875C106.188 93.2135 105.878 92.6406 105.664 91.9688C105.451 91.2969 105.344 90.5443 105.344 89.7109V88.9219C105.344 88.0885 105.453 87.3359 105.672 86.6641C105.896 85.987 106.214 85.4115 106.625 84.9375C107.042 84.4635 107.539 84.099 108.117 83.8438C108.695 83.5885 109.341 83.4609 110.055 83.4609C111.003 83.4609 111.802 83.6328 112.453 83.9766C113.109 84.3203 113.617 84.7943 113.977 85.3984C114.341 86.0026 114.56 86.6901 114.633 87.4609H112.289C112.263 87.0026 112.172 86.6146 112.016 86.2969C111.859 85.974 111.622 85.7318 111.305 85.5703C110.992 85.4036 110.576 85.3203 110.055 85.3203C109.664 85.3203 109.323 85.3932 109.031 85.5391C108.74 85.6849 108.495 85.9062 108.297 86.2031C108.099 86.5 107.951 86.875 107.852 87.3281C107.758 87.776 107.711 88.3021 107.711 88.9062V89.7109C107.711 90.2995 107.755 90.8177 107.844 91.2656C107.932 91.7083 108.068 92.0833 108.25 92.3906C108.438 92.6927 108.677 92.9219 108.969 93.0781C109.266 93.2292 109.622 93.3047 110.039 93.3047C110.529 93.3047 110.932 93.2266 111.25 93.0703C111.568 92.9141 111.81 92.6823 111.977 92.375C112.148 92.0677 112.25 91.6849 112.281 91.2266ZM120.453 89.2344V91H116.039V89.2344H120.453ZM129.891 88.3125V90.2812C129.891 91.1354 129.799 91.8724 129.617 92.4922C129.435 93.1068 129.172 93.612 128.828 94.0078C128.49 94.3984 128.086 94.6875 127.617 94.875C127.148 95.0625 126.628 95.1562 126.055 95.1562C125.596 95.1562 125.169 95.099 124.773 94.9844C124.378 94.8646 124.021 94.6797 123.703 94.4297C123.391 94.1797 123.12 93.8646 122.891 93.4844C122.667 93.099 122.495 92.6406 122.375 92.1094C122.255 91.5781 122.195 90.9688 122.195 90.2812V88.3125C122.195 87.4583 122.286 86.7266 122.469 86.1172C122.656 85.5026 122.919 85 123.258 84.6094C123.602 84.2188 124.008 83.9323 124.477 83.75C124.945 83.5625 125.466 83.4688 126.039 83.4688C126.497 83.4688 126.922 83.5286 127.312 83.6484C127.708 83.763 128.065 83.9427 128.383 84.1875C128.701 84.4323 128.971 84.7474 129.195 85.1328C129.419 85.513 129.591 85.9688 129.711 86.5C129.831 87.026 129.891 87.6302 129.891 88.3125ZM127.633 90.5781V88.0078C127.633 87.5964 127.609 87.237 127.562 86.9297C127.521 86.6224 127.456 86.362 127.367 86.1484C127.279 85.9297 127.169 85.7526 127.039 85.6172C126.909 85.4818 126.76 85.3828 126.594 85.3203C126.427 85.2578 126.242 85.2266 126.039 85.2266C125.784 85.2266 125.557 85.276 125.359 85.375C125.167 85.474 125.003 85.6328 124.867 85.8516C124.732 86.0651 124.628 86.3516 124.555 86.7109C124.487 87.0651 124.453 87.4974 124.453 88.0078V90.5781C124.453 90.9896 124.474 91.3516 124.516 91.6641C124.562 91.9766 124.63 92.2448 124.719 92.4688C124.812 92.6875 124.922 92.8672 125.047 93.0078C125.177 93.1432 125.326 93.2422 125.492 93.3047C125.664 93.3672 125.852 93.3984 126.055 93.3984C126.305 93.3984 126.526 93.349 126.719 93.25C126.917 93.1458 127.083 92.9844 127.219 92.7656C127.359 92.5417 127.464 92.25 127.531 91.8906C127.599 91.5312 127.633 91.0938 127.633 90.5781ZM133.727 88.3359H134.93C135.315 88.3359 135.633 88.2708 135.883 88.1406C136.133 88.0052 136.318 87.8177 136.438 87.5781C136.562 87.3333 136.625 87.0495 136.625 86.7266C136.625 86.4349 136.568 86.1771 136.453 85.9531C136.344 85.724 136.174 85.5469 135.945 85.4219C135.716 85.2917 135.427 85.2266 135.078 85.2266C134.802 85.2266 134.547 85.2812 134.312 85.3906C134.078 85.5 133.891 85.6536 133.75 85.8516C133.609 86.0495 133.539 86.2891 133.539 86.5703H131.281C131.281 85.9453 131.448 85.401 131.781 84.9375C132.12 84.474 132.573 84.112 133.141 83.8516C133.708 83.5911 134.333 83.4609 135.016 83.4609C135.786 83.4609 136.461 83.5859 137.039 83.8359C137.617 84.0807 138.068 84.4427 138.391 84.9219C138.714 85.401 138.875 85.9948 138.875 86.7031C138.875 87.0625 138.792 87.4115 138.625 87.75C138.458 88.0833 138.219 88.3854 137.906 88.6562C137.599 88.9219 137.224 89.1354 136.781 89.2969C136.339 89.4531 135.841 89.5312 135.289 89.5312H133.727V88.3359ZM133.727 90.0469V88.8828H135.289C135.909 88.8828 136.453 88.9531 136.922 89.0938C137.391 89.2344 137.784 89.4375 138.102 89.7031C138.419 89.9635 138.659 90.2734 138.82 90.6328C138.982 90.987 139.062 91.3802 139.062 91.8125C139.062 92.3438 138.961 92.8177 138.758 93.2344C138.555 93.6458 138.268 93.9948 137.898 94.2812C137.534 94.5677 137.107 94.7865 136.617 94.9375C136.128 95.0833 135.594 95.1562 135.016 95.1562C134.536 95.1562 134.065 95.0911 133.602 94.9609C133.143 94.8255 132.727 94.625 132.352 94.3594C131.982 94.0885 131.685 93.75 131.461 93.3438C131.242 92.9323 131.133 92.4453 131.133 91.8828H133.391C133.391 92.1745 133.464 92.4349 133.609 92.6641C133.755 92.8932 133.956 93.0729 134.211 93.2031C134.471 93.3333 134.76 93.3984 135.078 93.3984C135.438 93.3984 135.745 93.3333 136 93.2031C136.26 93.0677 136.458 92.8802 136.594 92.6406C136.734 92.3958 136.805 92.112 136.805 91.7891C136.805 91.3724 136.729 91.0391 136.578 90.7891C136.427 90.5339 136.211 90.3464 135.93 90.2266C135.648 90.1068 135.315 90.0469 134.93 90.0469H133.727Z" fill="#8C8C8C"/>
<rect x="847.5" y="119.5" width="121" height="59" rx="3.5" fill="#BFBFBF" stroke="#8C8C8C"/>
<path d="M871.109 141.564C871.109 141.361 871.078 141.179 871.016 141.017C870.958 140.85 870.849 140.699 870.688 140.564C870.526 140.423 870.299 140.285 870.008 140.15C869.716 140.015 869.339 139.874 868.875 139.728C868.359 139.561 867.87 139.374 867.406 139.166C866.948 138.957 866.542 138.715 866.188 138.439C865.839 138.158 865.562 137.832 865.359 137.462C865.161 137.093 865.062 136.663 865.062 136.173C865.062 135.699 865.167 135.27 865.375 134.884C865.583 134.494 865.875 134.16 866.25 133.884C866.625 133.603 867.068 133.387 867.578 133.236C868.094 133.085 868.659 133.009 869.273 133.009C870.112 133.009 870.844 133.16 871.469 133.462C872.094 133.765 872.578 134.179 872.922 134.705C873.271 135.231 873.445 135.832 873.445 136.509H871.117C871.117 136.176 871.047 135.884 870.906 135.634C870.771 135.379 870.562 135.179 870.281 135.033C870.005 134.887 869.656 134.814 869.234 134.814C868.828 134.814 868.49 134.876 868.219 135.001C867.948 135.121 867.745 135.285 867.609 135.494C867.474 135.697 867.406 135.926 867.406 136.181C867.406 136.374 867.453 136.548 867.547 136.705C867.646 136.861 867.792 137.007 867.984 137.142C868.177 137.278 868.414 137.405 868.695 137.525C868.977 137.645 869.302 137.762 869.672 137.876C870.292 138.064 870.836 138.275 871.305 138.509C871.779 138.744 872.174 139.007 872.492 139.298C872.81 139.59 873.049 139.921 873.211 140.291C873.372 140.66 873.453 141.08 873.453 141.548C873.453 142.043 873.357 142.486 873.164 142.876C872.971 143.267 872.693 143.598 872.328 143.869C871.964 144.14 871.529 144.345 871.023 144.486C870.518 144.626 869.953 144.697 869.328 144.697C868.766 144.697 868.211 144.624 867.664 144.478C867.117 144.327 866.62 144.1 866.172 143.798C865.729 143.496 865.375 143.111 865.109 142.642C864.844 142.173 864.711 141.619 864.711 140.978H867.062C867.062 141.332 867.117 141.632 867.227 141.876C867.336 142.121 867.49 142.319 867.688 142.47C867.891 142.621 868.13 142.731 868.406 142.798C868.688 142.866 868.995 142.9 869.328 142.9C869.734 142.9 870.068 142.843 870.328 142.728C870.594 142.613 870.789 142.455 870.914 142.251C871.044 142.048 871.109 141.819 871.109 141.564ZM879.047 136.087V137.681H874.125V136.087H879.047ZM875.344 134.001H877.594V141.994C877.594 142.238 877.625 142.426 877.688 142.556C877.755 142.686 877.854 142.778 877.984 142.83C878.115 142.876 878.279 142.9 878.477 142.9C878.617 142.9 878.742 142.895 878.852 142.884C878.966 142.869 879.062 142.853 879.141 142.837L879.148 144.494C878.956 144.556 878.747 144.606 878.523 144.642C878.299 144.679 878.052 144.697 877.781 144.697C877.286 144.697 876.854 144.616 876.484 144.455C876.12 144.288 875.839 144.022 875.641 143.658C875.443 143.293 875.344 142.814 875.344 142.22V134.001ZM884.891 142.634V138.869C884.891 138.598 884.846 138.366 884.758 138.173C884.669 137.975 884.531 137.822 884.344 137.712C884.161 137.603 883.924 137.548 883.633 137.548C883.383 137.548 883.167 137.593 882.984 137.681C882.802 137.765 882.661 137.887 882.562 138.048C882.464 138.205 882.414 138.39 882.414 138.603H880.164C880.164 138.244 880.247 137.903 880.414 137.58C880.581 137.257 880.823 136.973 881.141 136.728C881.458 136.478 881.836 136.283 882.273 136.142C882.716 136.001 883.211 135.931 883.758 135.931C884.414 135.931 884.997 136.041 885.508 136.259C886.018 136.478 886.419 136.806 886.711 137.244C887.008 137.681 887.156 138.228 887.156 138.884V142.501C887.156 142.965 887.185 143.345 887.242 143.642C887.299 143.934 887.383 144.189 887.492 144.408V144.541H885.219C885.109 144.311 885.026 144.025 884.969 143.681C884.917 143.332 884.891 142.983 884.891 142.634ZM885.188 139.392L885.203 140.666H883.945C883.648 140.666 883.391 140.699 883.172 140.767C882.953 140.835 882.773 140.931 882.633 141.056C882.492 141.176 882.388 141.317 882.32 141.478C882.258 141.64 882.227 141.817 882.227 142.009C882.227 142.202 882.271 142.376 882.359 142.533C882.448 142.684 882.576 142.804 882.742 142.892C882.909 142.975 883.104 143.017 883.328 143.017C883.667 143.017 883.961 142.949 884.211 142.814C884.461 142.679 884.654 142.512 884.789 142.314C884.93 142.116 885.003 141.929 885.008 141.751L885.602 142.705C885.518 142.918 885.404 143.14 885.258 143.369C885.117 143.598 884.938 143.814 884.719 144.017C884.5 144.215 884.237 144.379 883.93 144.509C883.622 144.634 883.258 144.697 882.836 144.697C882.299 144.697 881.812 144.59 881.375 144.376C880.943 144.158 880.599 143.858 880.344 143.478C880.094 143.093 879.969 142.655 879.969 142.166C879.969 141.723 880.052 141.33 880.219 140.986C880.385 140.642 880.63 140.353 880.953 140.119C881.281 139.879 881.69 139.699 882.18 139.58C882.669 139.455 883.237 139.392 883.883 139.392H885.188ZM893.031 136.087V137.681H888.109V136.087H893.031ZM889.328 134.001H891.578V141.994C891.578 142.238 891.609 142.426 891.672 142.556C891.74 142.686 891.839 142.778 891.969 142.83C892.099 142.876 892.263 142.9 892.461 142.9C892.602 142.9 892.727 142.895 892.836 142.884C892.951 142.869 893.047 142.853 893.125 142.837L893.133 144.494C892.94 144.556 892.732 144.606 892.508 144.642C892.284 144.679 892.036 144.697 891.766 144.697C891.271 144.697 890.839 144.616 890.469 144.455C890.104 144.288 889.823 144.022 889.625 143.658C889.427 143.293 889.328 142.814 889.328 142.22V134.001ZM896.688 136.087V144.541H894.43V136.087H896.688ZM894.289 133.884C894.289 133.556 894.404 133.285 894.633 133.072C894.862 132.858 895.169 132.751 895.555 132.751C895.935 132.751 896.24 132.858 896.469 133.072C896.703 133.285 896.82 133.556 896.82 133.884C896.82 134.212 896.703 134.483 896.469 134.697C896.24 134.91 895.935 135.017 895.555 135.017C895.169 135.017 894.862 134.91 894.633 134.697C894.404 134.483 894.289 134.212 894.289 133.884ZM898.188 140.4V140.236C898.188 139.616 898.276 139.046 898.453 138.525C898.63 137.999 898.888 137.543 899.227 137.158C899.565 136.772 899.982 136.473 900.477 136.259C900.971 136.041 901.539 135.931 902.18 135.931C902.82 135.931 903.391 136.041 903.891 136.259C904.391 136.473 904.81 136.772 905.148 137.158C905.492 137.543 905.753 137.999 905.93 138.525C906.107 139.046 906.195 139.616 906.195 140.236V140.4C906.195 141.015 906.107 141.585 905.93 142.111C905.753 142.632 905.492 143.087 905.148 143.478C904.81 143.863 904.393 144.163 903.898 144.376C903.404 144.59 902.836 144.697 902.195 144.697C901.555 144.697 900.984 144.59 900.484 144.376C899.99 144.163 899.57 143.863 899.227 143.478C898.888 143.087 898.63 142.632 898.453 142.111C898.276 141.585 898.188 141.015 898.188 140.4ZM900.438 140.236V140.4C900.438 140.754 900.469 141.085 900.531 141.392C900.594 141.699 900.693 141.97 900.828 142.205C900.969 142.434 901.151 142.613 901.375 142.744C901.599 142.874 901.872 142.939 902.195 142.939C902.508 142.939 902.776 142.874 903 142.744C903.224 142.613 903.404 142.434 903.539 142.205C903.674 141.97 903.773 141.699 903.836 141.392C903.904 141.085 903.938 140.754 903.938 140.4V140.236C903.938 139.892 903.904 139.569 903.836 139.267C903.773 138.96 903.672 138.689 903.531 138.455C903.396 138.215 903.216 138.028 902.992 137.892C902.768 137.757 902.497 137.689 902.18 137.689C901.862 137.689 901.591 137.757 901.367 137.892C901.148 138.028 900.969 138.215 900.828 138.455C900.693 138.689 900.594 138.96 900.531 139.267C900.469 139.569 900.438 139.892 900.438 140.236ZM909.781 137.892V144.541H907.531V136.087H909.641L909.781 137.892ZM909.453 140.017H908.844C908.844 139.392 908.924 138.83 909.086 138.33C909.247 137.824 909.474 137.395 909.766 137.041C910.057 136.681 910.404 136.408 910.805 136.22C911.211 136.028 911.664 135.931 912.164 135.931C912.56 135.931 912.922 135.988 913.25 136.103C913.578 136.218 913.859 136.4 914.094 136.65C914.333 136.9 914.516 137.231 914.641 137.642C914.771 138.054 914.836 138.556 914.836 139.15V144.541H912.57V139.142C912.57 138.767 912.518 138.475 912.414 138.267C912.31 138.059 912.156 137.913 911.953 137.83C911.755 137.741 911.51 137.697 911.219 137.697C910.917 137.697 910.654 137.757 910.43 137.876C910.211 137.996 910.029 138.163 909.883 138.376C909.742 138.585 909.635 138.83 909.562 139.111C909.49 139.392 909.453 139.694 909.453 140.017ZM923.281 140.767H925.617C925.57 141.533 925.359 142.212 924.984 142.806C924.615 143.4 924.096 143.863 923.43 144.197C922.768 144.53 921.971 144.697 921.039 144.697C920.31 144.697 919.656 144.572 919.078 144.322C918.5 144.067 918.005 143.702 917.594 143.228C917.188 142.754 916.878 142.181 916.664 141.509C916.451 140.837 916.344 140.085 916.344 139.251V138.462C916.344 137.629 916.453 136.876 916.672 136.205C916.896 135.528 917.214 134.952 917.625 134.478C918.042 134.004 918.539 133.64 919.117 133.384C919.695 133.129 920.341 133.001 921.055 133.001C922.003 133.001 922.802 133.173 923.453 133.517C924.109 133.861 924.617 134.335 924.977 134.939C925.341 135.543 925.56 136.231 925.633 137.001H923.289C923.263 136.543 923.172 136.155 923.016 135.837C922.859 135.515 922.622 135.272 922.305 135.111C921.992 134.944 921.576 134.861 921.055 134.861C920.664 134.861 920.323 134.934 920.031 135.08C919.74 135.225 919.495 135.447 919.297 135.744C919.099 136.041 918.951 136.416 918.852 136.869C918.758 137.317 918.711 137.843 918.711 138.447V139.251C918.711 139.84 918.755 140.358 918.844 140.806C918.932 141.249 919.068 141.624 919.25 141.931C919.438 142.233 919.677 142.462 919.969 142.619C920.266 142.77 920.622 142.845 921.039 142.845C921.529 142.845 921.932 142.767 922.25 142.611C922.568 142.455 922.81 142.223 922.977 141.916C923.148 141.608 923.25 141.225 923.281 140.767ZM931.453 138.775V140.541H927.039V138.775H931.453ZM940.891 137.853V139.822C940.891 140.676 940.799 141.413 940.617 142.033C940.435 142.647 940.172 143.153 939.828 143.548C939.49 143.939 939.086 144.228 938.617 144.416C938.148 144.603 937.628 144.697 937.055 144.697C936.596 144.697 936.169 144.64 935.773 144.525C935.378 144.405 935.021 144.22 934.703 143.97C934.391 143.72 934.12 143.405 933.891 143.025C933.667 142.64 933.495 142.181 933.375 141.65C933.255 141.119 933.195 140.509 933.195 139.822V137.853C933.195 136.999 933.286 136.267 933.469 135.658C933.656 135.043 933.919 134.541 934.258 134.15C934.602 133.759 935.008 133.473 935.477 133.291C935.945 133.103 936.466 133.009 937.039 133.009C937.497 133.009 937.922 133.069 938.312 133.189C938.708 133.304 939.065 133.483 939.383 133.728C939.701 133.973 939.971 134.288 940.195 134.673C940.419 135.054 940.591 135.509 940.711 136.041C940.831 136.567 940.891 137.171 940.891 137.853ZM938.633 140.119V137.548C938.633 137.137 938.609 136.778 938.562 136.47C938.521 136.163 938.456 135.903 938.367 135.689C938.279 135.47 938.169 135.293 938.039 135.158C937.909 135.022 937.76 134.923 937.594 134.861C937.427 134.798 937.242 134.767 937.039 134.767C936.784 134.767 936.557 134.817 936.359 134.916C936.167 135.015 936.003 135.173 935.867 135.392C935.732 135.606 935.628 135.892 935.555 136.251C935.487 136.606 935.453 137.038 935.453 137.548V140.119C935.453 140.53 935.474 140.892 935.516 141.205C935.562 141.517 935.63 141.785 935.719 142.009C935.812 142.228 935.922 142.408 936.047 142.548C936.177 142.684 936.326 142.783 936.492 142.845C936.664 142.908 936.852 142.939 937.055 142.939C937.305 142.939 937.526 142.89 937.719 142.791C937.917 142.686 938.083 142.525 938.219 142.306C938.359 142.082 938.464 141.791 938.531 141.431C938.599 141.072 938.633 140.634 938.633 140.119ZM947.906 133.142V144.541H945.656V135.736L942.953 136.595V134.822L947.664 133.142H947.906ZM884.945 165.986L887.211 157.166H888.398L888.266 159.439L885.844 168.541H884.609L884.945 165.986ZM883.25 157.166L885.086 165.916L885.25 168.541H883.938L881.305 157.166H883.25ZM890.969 165.892L892.781 157.166H894.734L892.102 168.541H890.789L890.969 165.892ZM888.859 157.166L891.102 166.009L891.43 168.541H890.195L887.812 159.439L887.688 157.166H888.859ZM900.273 158.681L896.875 168.541H894.82L899.102 157.166H900.414L900.273 158.681ZM903.117 168.541L899.711 158.681L899.562 157.166H900.883L905.18 168.541H903.117ZM902.953 164.322V165.876H896.766V164.322H902.953ZM906.648 157.166L909.289 162.595L911.93 157.166H914.102L910.273 164.353V168.541H908.297V164.353L904.469 157.166H906.648ZM921.422 157.166V168.541H919.461V157.166H921.422ZM932.883 157.166V168.541H930.922L925.82 160.392V168.541H923.859V157.166H925.82L930.938 165.33V157.166H932.883Z" fill="#8C8C8C"/>
<rect x="847.5" y="366.5" width="121" height="59" rx="3.5" fill="#BFBFBF" stroke="#8C8C8C"/>
<path d="M871.109 388.564C871.109 388.361 871.078 388.179 871.016 388.017C870.958 387.85 870.849 387.699 870.688 387.564C870.526 387.423 870.299 387.285 870.008 387.15C869.716 387.014 869.339 386.874 868.875 386.728C868.359 386.561 867.87 386.374 867.406 386.166C866.948 385.957 866.542 385.715 866.188 385.439C865.839 385.158 865.562 384.832 865.359 384.462C865.161 384.093 865.062 383.663 865.062 383.173C865.062 382.699 865.167 382.27 865.375 381.884C865.583 381.494 865.875 381.16 866.25 380.884C866.625 380.603 867.068 380.387 867.578 380.236C868.094 380.085 868.659 380.009 869.273 380.009C870.112 380.009 870.844 380.16 871.469 380.462C872.094 380.764 872.578 381.179 872.922 381.705C873.271 382.231 873.445 382.832 873.445 383.509H871.117C871.117 383.176 871.047 382.884 870.906 382.634C870.771 382.379 870.562 382.179 870.281 382.033C870.005 381.887 869.656 381.814 869.234 381.814C868.828 381.814 868.49 381.876 868.219 382.001C867.948 382.121 867.745 382.285 867.609 382.494C867.474 382.697 867.406 382.926 867.406 383.181C867.406 383.374 867.453 383.548 867.547 383.705C867.646 383.861 867.792 384.007 867.984 384.142C868.177 384.278 868.414 384.405 868.695 384.525C868.977 384.645 869.302 384.762 869.672 384.876C870.292 385.064 870.836 385.275 871.305 385.509C871.779 385.744 872.174 386.007 872.492 386.298C872.81 386.59 873.049 386.921 873.211 387.291C873.372 387.66 873.453 388.08 873.453 388.548C873.453 389.043 873.357 389.486 873.164 389.876C872.971 390.267 872.693 390.598 872.328 390.869C871.964 391.139 871.529 391.345 871.023 391.486C870.518 391.626 869.953 391.697 869.328 391.697C868.766 391.697 868.211 391.624 867.664 391.478C867.117 391.327 866.62 391.1 866.172 390.798C865.729 390.496 865.375 390.111 865.109 389.642C864.844 389.173 864.711 388.619 864.711 387.978H867.062C867.062 388.332 867.117 388.632 867.227 388.876C867.336 389.121 867.49 389.319 867.688 389.47C867.891 389.621 868.13 389.731 868.406 389.798C868.688 389.866 868.995 389.9 869.328 389.9C869.734 389.9 870.068 389.843 870.328 389.728C870.594 389.613 870.789 389.455 870.914 389.251C871.044 389.048 871.109 388.819 871.109 388.564ZM879.047 383.087V384.681H874.125V383.087H879.047ZM875.344 381.001H877.594V388.994C877.594 389.238 877.625 389.426 877.688 389.556C877.755 389.686 877.854 389.778 877.984 389.83C878.115 389.876 878.279 389.9 878.477 389.9C878.617 389.9 878.742 389.895 878.852 389.884C878.966 389.869 879.062 389.853 879.141 389.837L879.148 391.494C878.956 391.556 878.747 391.606 878.523 391.642C878.299 391.679 878.052 391.697 877.781 391.697C877.286 391.697 876.854 391.616 876.484 391.455C876.12 391.288 875.839 391.022 875.641 390.658C875.443 390.293 875.344 389.814 875.344 389.22V381.001ZM884.891 389.634V385.869C884.891 385.598 884.846 385.366 884.758 385.173C884.669 384.975 884.531 384.822 884.344 384.712C884.161 384.603 883.924 384.548 883.633 384.548C883.383 384.548 883.167 384.593 882.984 384.681C882.802 384.764 882.661 384.887 882.562 385.048C882.464 385.205 882.414 385.389 882.414 385.603H880.164C880.164 385.244 880.247 384.903 880.414 384.58C880.581 384.257 880.823 383.973 881.141 383.728C881.458 383.478 881.836 383.283 882.273 383.142C882.716 383.001 883.211 382.931 883.758 382.931C884.414 382.931 884.997 383.041 885.508 383.259C886.018 383.478 886.419 383.806 886.711 384.244C887.008 384.681 887.156 385.228 887.156 385.884V389.501C887.156 389.965 887.185 390.345 887.242 390.642C887.299 390.934 887.383 391.189 887.492 391.408V391.541H885.219C885.109 391.311 885.026 391.025 884.969 390.681C884.917 390.332 884.891 389.983 884.891 389.634ZM885.188 386.392L885.203 387.666H883.945C883.648 387.666 883.391 387.699 883.172 387.767C882.953 387.835 882.773 387.931 882.633 388.056C882.492 388.176 882.388 388.317 882.32 388.478C882.258 388.639 882.227 388.817 882.227 389.009C882.227 389.202 882.271 389.376 882.359 389.533C882.448 389.684 882.576 389.804 882.742 389.892C882.909 389.975 883.104 390.017 883.328 390.017C883.667 390.017 883.961 389.949 884.211 389.814C884.461 389.679 884.654 389.512 884.789 389.314C884.93 389.116 885.003 388.929 885.008 388.751L885.602 389.705C885.518 389.918 885.404 390.139 885.258 390.369C885.117 390.598 884.938 390.814 884.719 391.017C884.5 391.215 884.237 391.379 883.93 391.509C883.622 391.634 883.258 391.697 882.836 391.697C882.299 391.697 881.812 391.59 881.375 391.376C880.943 391.158 880.599 390.858 880.344 390.478C880.094 390.093 879.969 389.655 879.969 389.166C879.969 388.723 880.052 388.33 880.219 387.986C880.385 387.642 880.63 387.353 880.953 387.119C881.281 386.879 881.69 386.699 882.18 386.58C882.669 386.455 883.237 386.392 883.883 386.392H885.188ZM893.031 383.087V384.681H888.109V383.087H893.031ZM889.328 381.001H891.578V388.994C891.578 389.238 891.609 389.426 891.672 389.556C891.74 389.686 891.839 389.778 891.969 389.83C892.099 389.876 892.263 389.9 892.461 389.9C892.602 389.9 892.727 389.895 892.836 389.884C892.951 389.869 893.047 389.853 893.125 389.837L893.133 391.494C892.94 391.556 892.732 391.606 892.508 391.642C892.284 391.679 892.036 391.697 891.766 391.697C891.271 391.697 890.839 391.616 890.469 391.455C890.104 391.288 889.823 391.022 889.625 390.658C889.427 390.293 889.328 389.814 889.328 389.22V381.001ZM896.688 383.087V391.541H894.43V383.087H896.688ZM894.289 380.884C894.289 380.556 894.404 380.285 894.633 380.072C894.862 379.858 895.169 379.751 895.555 379.751C895.935 379.751 896.24 379.858 896.469 380.072C896.703 380.285 896.82 380.556 896.82 380.884C896.82 381.212 896.703 381.483 896.469 381.697C896.24 381.91 895.935 382.017 895.555 382.017C895.169 382.017 894.862 381.91 894.633 381.697C894.404 381.483 894.289 381.212 894.289 380.884ZM898.188 387.4V387.236C898.188 386.616 898.276 386.046 898.453 385.525C898.63 384.999 898.888 384.543 899.227 384.158C899.565 383.772 899.982 383.473 900.477 383.259C900.971 383.041 901.539 382.931 902.18 382.931C902.82 382.931 903.391 383.041 903.891 383.259C904.391 383.473 904.81 383.772 905.148 384.158C905.492 384.543 905.753 384.999 905.93 385.525C906.107 386.046 906.195 386.616 906.195 387.236V387.4C906.195 388.014 906.107 388.585 905.93 389.111C905.753 389.632 905.492 390.087 905.148 390.478C904.81 390.863 904.393 391.163 903.898 391.376C903.404 391.59 902.836 391.697 902.195 391.697C901.555 391.697 900.984 391.59 900.484 391.376C899.99 391.163 899.57 390.863 899.227 390.478C898.888 390.087 898.63 389.632 898.453 389.111C898.276 388.585 898.188 388.014 898.188 387.4ZM900.438 387.236V387.4C900.438 387.754 900.469 388.085 900.531 388.392C900.594 388.699 900.693 388.97 900.828 389.205C900.969 389.434 901.151 389.613 901.375 389.744C901.599 389.874 901.872 389.939 902.195 389.939C902.508 389.939 902.776 389.874 903 389.744C903.224 389.613 903.404 389.434 903.539 389.205C903.674 388.97 903.773 388.699 903.836 388.392C903.904 388.085 903.938 387.754 903.938 387.4V387.236C903.938 386.892 903.904 386.569 903.836 386.267C903.773 385.96 903.672 385.689 903.531 385.455C903.396 385.215 903.216 385.028 902.992 384.892C902.768 384.757 902.497 384.689 902.18 384.689C901.862 384.689 901.591 384.757 901.367 384.892C901.148 385.028 900.969 385.215 900.828 385.455C900.693 385.689 900.594 385.96 900.531 386.267C900.469 386.569 900.438 386.892 900.438 387.236ZM909.781 384.892V391.541H907.531V383.087H909.641L909.781 384.892ZM909.453 387.017H908.844C908.844 386.392 908.924 385.83 909.086 385.33C909.247 384.824 909.474 384.395 909.766 384.041C910.057 383.681 910.404 383.408 910.805 383.22C911.211 383.028 911.664 382.931 912.164 382.931C912.56 382.931 912.922 382.988 913.25 383.103C913.578 383.218 913.859 383.4 914.094 383.65C914.333 383.9 914.516 384.231 914.641 384.642C914.771 385.054 914.836 385.556 914.836 386.15V391.541H912.57V386.142C912.57 385.767 912.518 385.475 912.414 385.267C912.31 385.059 912.156 384.913 911.953 384.83C911.755 384.741 911.51 384.697 911.219 384.697C910.917 384.697 910.654 384.757 910.43 384.876C910.211 384.996 910.029 385.163 909.883 385.376C909.742 385.585 909.635 385.83 909.562 386.111C909.49 386.392 909.453 386.694 909.453 387.017ZM923.281 387.767H925.617C925.57 388.533 925.359 389.212 924.984 389.806C924.615 390.4 924.096 390.863 923.43 391.197C922.768 391.53 921.971 391.697 921.039 391.697C920.31 391.697 919.656 391.572 919.078 391.322C918.5 391.067 918.005 390.702 917.594 390.228C917.188 389.754 916.878 389.181 916.664 388.509C916.451 387.837 916.344 387.085 916.344 386.251V385.462C916.344 384.629 916.453 383.876 916.672 383.205C916.896 382.528 917.214 381.952 917.625 381.478C918.042 381.004 918.539 380.639 919.117 380.384C919.695 380.129 920.341 380.001 921.055 380.001C922.003 380.001 922.802 380.173 923.453 380.517C924.109 380.861 924.617 381.335 924.977 381.939C925.341 382.543 925.56 383.231 925.633 384.001H923.289C923.263 383.543 923.172 383.155 923.016 382.837C922.859 382.514 922.622 382.272 922.305 382.111C921.992 381.944 921.576 381.861 921.055 381.861C920.664 381.861 920.323 381.934 920.031 382.08C919.74 382.225 919.495 382.447 919.297 382.744C919.099 383.041 918.951 383.416 918.852 383.869C918.758 384.317 918.711 384.843 918.711 385.447V386.251C918.711 386.84 918.755 387.358 918.844 387.806C918.932 388.249 919.068 388.624 919.25 388.931C919.438 389.233 919.677 389.462 919.969 389.619C920.266 389.77 920.622 389.845 921.039 389.845C921.529 389.845 921.932 389.767 922.25 389.611C922.568 389.455 922.81 389.223 922.977 388.916C923.148 388.608 923.25 388.225 923.281 387.767ZM931.453 385.775V387.541H927.039V385.775H931.453ZM940.891 384.853V386.822C940.891 387.676 940.799 388.413 940.617 389.033C940.435 389.647 940.172 390.153 939.828 390.548C939.49 390.939 939.086 391.228 938.617 391.416C938.148 391.603 937.628 391.697 937.055 391.697C936.596 391.697 936.169 391.639 935.773 391.525C935.378 391.405 935.021 391.22 934.703 390.97C934.391 390.72 934.12 390.405 933.891 390.025C933.667 389.639 933.495 389.181 933.375 388.65C933.255 388.119 933.195 387.509 933.195 386.822V384.853C933.195 383.999 933.286 383.267 933.469 382.658C933.656 382.043 933.919 381.541 934.258 381.15C934.602 380.759 935.008 380.473 935.477 380.291C935.945 380.103 936.466 380.009 937.039 380.009C937.497 380.009 937.922 380.069 938.312 380.189C938.708 380.304 939.065 380.483 939.383 380.728C939.701 380.973 939.971 381.288 940.195 381.673C940.419 382.054 940.591 382.509 940.711 383.041C940.831 383.567 940.891 384.171 940.891 384.853ZM938.633 387.119V384.548C938.633 384.137 938.609 383.778 938.562 383.47C938.521 383.163 938.456 382.903 938.367 382.689C938.279 382.47 938.169 382.293 938.039 382.158C937.909 382.022 937.76 381.923 937.594 381.861C937.427 381.798 937.242 381.767 937.039 381.767C936.784 381.767 936.557 381.817 936.359 381.916C936.167 382.014 936.003 382.173 935.867 382.392C935.732 382.606 935.628 382.892 935.555 383.251C935.487 383.606 935.453 384.038 935.453 384.548V387.119C935.453 387.53 935.474 387.892 935.516 388.205C935.562 388.517 935.63 388.785 935.719 389.009C935.812 389.228 935.922 389.408 936.047 389.548C936.177 389.684 936.326 389.783 936.492 389.845C936.664 389.908 936.852 389.939 937.055 389.939C937.305 389.939 937.526 389.889 937.719 389.791C937.917 389.686 938.083 389.525 938.219 389.306C938.359 389.082 938.464 388.791 938.531 388.431C938.599 388.072 938.633 387.634 938.633 387.119ZM950.203 389.783V391.541H942.422V390.041L946.102 386.095C946.471 385.684 946.763 385.322 946.977 385.009C947.19 384.692 947.344 384.408 947.438 384.158C947.536 383.903 947.586 383.66 947.586 383.431C947.586 383.087 947.529 382.793 947.414 382.548C947.299 382.298 947.13 382.106 946.906 381.97C946.688 381.835 946.417 381.767 946.094 381.767C945.75 381.767 945.453 381.85 945.203 382.017C944.958 382.184 944.771 382.416 944.641 382.712C944.516 383.009 944.453 383.345 944.453 383.72H942.195C942.195 383.043 942.357 382.423 942.68 381.861C943.003 381.293 943.458 380.843 944.047 380.509C944.635 380.171 945.333 380.001 946.141 380.001C946.938 380.001 947.609 380.132 948.156 380.392C948.708 380.647 949.125 381.017 949.406 381.501C949.693 381.981 949.836 382.554 949.836 383.22C949.836 383.595 949.776 383.962 949.656 384.322C949.536 384.676 949.365 385.03 949.141 385.384C948.922 385.733 948.656 386.087 948.344 386.447C948.031 386.806 947.685 387.179 947.305 387.564L945.328 389.783H950.203ZM884.945 412.986L887.211 404.166H888.398L888.266 406.439L885.844 415.541H884.609L884.945 412.986ZM883.25 404.166L885.086 412.916L885.25 415.541H883.938L881.305 404.166H883.25ZM890.969 412.892L892.781 404.166H894.734L892.102 415.541H890.789L890.969 412.892ZM888.859 404.166L891.102 413.009L891.43 415.541H890.195L887.812 406.439L887.688 404.166H888.859ZM900.273 405.681L896.875 415.541H894.82L899.102 404.166H900.414L900.273 405.681ZM903.117 415.541L899.711 405.681L899.562 404.166H900.883L905.18 415.541H903.117ZM902.953 411.322V412.876H896.766V411.322H902.953ZM906.648 404.166L909.289 409.595L911.93 404.166H914.102L910.273 411.353V415.541H908.297V411.353L904.469 404.166H906.648ZM921.422 404.166V415.541H919.461V404.166H921.422ZM932.883 404.166V415.541H930.922L925.82 407.392V415.541H923.859V404.166H925.82L930.938 412.33V404.166H932.883Z" fill="#8C8C8C"/>
</g>
<defs>
<filter id="filter0_d_165_1352" x="0" y="0" width="1008" height="549.469" filterUnits="userSpaceOnUse" color-interpolation-filters="sRGB">
<feFlood flood-opacity="0" result="BackgroundImageFix"/>
<feColorMatrix in="SourceAlpha" type="matrix" values="0 0 0 0 0 0 0 0 0 0 0 0 0 0 0 0 0 0 127 0" result="hardAlpha"/>
<feOffset/>
<feGaussianBlur stdDeviation="2"/>
<feComposite in2="hardAlpha" operator="out"/>
<feColorMatrix type="matrix" values="0 0 0 0 0 0 0 0 0 0 0 0 0 0 0 0 0 0 0.25 0"/>
<feBlend mode="normal" in2="BackgroundImageFix" result="effect1_dropShadow_165_1352"/>
<feBlend mode="normal" in="SourceGraphic" in2="effect1_dropShadow_165_1352" result="shape"/>
</filter>
<clipPath id="clip0_165_1352">
<rect x="850" y="197" width="119" height="147" rx="4" fill="white"/>
</clipPath>
</defs>
</svg>
