<svg width="58" height="58" viewBox="0 0 58 58" fill="none" xmlns="http://www.w3.org/2000/svg">
<path fill-rule="evenodd" clip-rule="evenodd" d="M26.3474 24.4139L28.1497 22.7661L29.8975 24.4139V27.5997H26.3474V24.4139Z" fill="#007C82"/>
<path fill-rule="evenodd" clip-rule="evenodd" d="M34.2669 28.5334C25.692 28.5884 15.5877 28.5334 8.21436 28.5884C6.4666 28.5884 8.48744 31.6094 7.88665 33.9712C7.7228 34.6304 5.92042 35.3444 5.92042 36.0035C5.92042 36.4979 5.97504 36.9922 5.92042 37.4866C5.8658 38.64 5.81119 39.8484 5.75657 41.0019C5.70195 42.3751 6.4666 43.3088 7.44971 43.3637L36.0693 46.3847C36.9978 46.4946 36.9978 45.1214 36.9978 43.8032C36.9978 42.6497 36.9978 41.4962 36.9978 40.3428C36.9978 39.1893 37.2163 38.0908 36.9978 36.9922C36.8339 36.1683 36.0147 35.619 35.8508 34.7951C35.6323 33.422 35.8508 32.0488 35.8508 30.6756C35.8508 29.5221 35.1408 28.5334 34.2669 28.5334Z" fill="#00B0B8"/>
<path fill-rule="evenodd" clip-rule="evenodd" d="M50.0514 37.7063L47.4297 37.8711L35.687 37.2119C35.5777 37.0472 35.4685 36.8824 35.3593 36.7176C36.0693 35.9486 36.7247 35.2346 37.4347 34.4656C37.9809 33.0375 38.5271 31.6094 39.0732 30.1813C39.5102 29.0278 40.0564 27.38 41.4218 27.38H50.3245C52.0722 27.3251 52.1814 29.3574 51.8537 30.3461L50.3791 34.4656L50.106 35.0698L50.0514 37.7063Z" fill="#03212B"/>
<path fill-rule="evenodd" clip-rule="evenodd" d="M46.0097 28.2041C44.6989 28.2041 43.388 28.2041 42.0772 28.259C40.7664 28.259 39.4556 28.259 38.0901 28.314C37.1616 28.314 36.397 29.3576 36.3424 30.566C36.2878 31.9941 36.2331 33.4222 36.1785 34.8503C35.7416 35.6193 35.3046 36.3882 34.8677 37.1572C34.8131 38.3107 34.7585 39.4641 34.7585 40.6176C34.7038 41.7711 34.6492 42.9795 34.5946 44.1329C34.54 45.5061 35.3046 46.5497 36.2878 46.4948C38.0901 46.4399 39.8925 46.33 41.6949 46.2751C43.4973 46.2202 45.245 46.1103 46.9928 46.0554C47.9213 46.0005 48.6859 44.9019 48.6859 43.5837C48.6859 42.4302 48.6859 41.2767 48.6859 40.1233C48.6859 38.9698 48.6859 37.8713 48.6859 36.7727C48.3036 36.0587 47.9213 35.2897 47.539 34.5756C47.539 33.2025 47.539 31.8293 47.539 30.4561C47.6482 29.1928 46.8836 28.2041 46.0097 28.2041Z" fill="#00949C"/>
<path fill-rule="evenodd" clip-rule="evenodd" d="M46.0097 28.2041C45.3543 28.2041 44.6989 28.2041 44.0434 28.2041C43.388 28.2041 42.7326 28.2041 42.0772 28.2041C42.0226 31.0603 41.968 34.0264 41.9134 36.9924C41.8587 40.0134 41.8041 43.0893 41.7495 46.2202C42.6234 46.1652 43.5519 46.1652 44.4258 46.1103C45.2997 46.0554 46.1735 46.0554 47.0474 46.0005C47.9759 45.9455 48.7406 44.847 48.7406 43.5287C48.7406 42.3753 48.7406 41.2218 48.7406 40.0683C48.7406 38.9149 48.7406 37.8163 48.7406 36.7178C48.3582 36.0037 47.9759 35.2348 47.5936 34.5207C47.5936 33.1475 47.5936 31.7744 47.5936 30.4012C47.6482 29.1928 46.8836 28.2041 46.0097 28.2041Z" fill="#007C82"/>
<path fill-rule="evenodd" clip-rule="evenodd" d="M38.3632 31.4995C39.6194 31.4995 40.821 31.4446 42.0772 31.4446C43.2788 31.4446 44.535 31.3896 45.7366 31.3896C46.0643 31.3896 46.392 31.7741 46.3374 32.2685C46.3374 33.9163 46.3374 35.5641 46.2828 37.2119C46.2828 38.9147 46.2282 40.5625 46.2282 42.2652C46.2282 42.7595 45.9004 43.199 45.5727 43.199C44.3165 43.2539 43.0603 43.3088 41.8041 43.3637C40.5479 43.4187 39.2371 43.4736 37.9809 43.5285C37.5986 43.5285 37.3255 43.144 37.3255 42.5948C37.3801 40.8371 37.4347 39.1344 37.4894 37.4316C37.544 35.7289 37.5986 34.0811 37.6532 32.3783C37.7078 31.9389 37.9809 31.5544 38.3632 31.4995Z" fill="#0D4D63"/>
<path fill-rule="evenodd" clip-rule="evenodd" d="M42.0226 31.4995C42.6234 31.4995 43.2242 31.4995 43.825 31.4995C44.4258 31.4995 45.0266 31.4995 45.6273 31.4995C45.9551 31.4995 46.2828 31.884 46.2281 32.3783C46.2281 34.0262 46.2281 35.674 46.1735 37.3218C46.1735 39.0245 46.1189 40.6723 46.1189 42.3751C46.1189 42.8694 45.7912 43.3088 45.4635 43.3088C44.8627 43.3088 44.2073 43.3638 43.6065 43.3638C42.9511 43.3638 42.3503 43.4187 41.6949 43.4187C41.7495 41.3864 41.7495 39.3541 41.8041 37.3767C41.968 35.3444 42.0226 33.422 42.0226 31.4995Z" fill="#063443"/>
<path fill-rule="evenodd" clip-rule="evenodd" d="M39.401 32.5432C40.2749 32.5432 41.1487 32.5432 42.0226 32.4883C42.8965 32.4883 43.7158 32.4333 44.5896 32.4333C44.8627 32.4333 45.0812 32.5981 45.245 32.8178C45.4089 33.0375 45.5181 33.3671 45.5181 33.7516C45.5181 34.9051 45.5181 36.0585 45.4635 37.2669C45.4635 38.4204 45.4635 39.6288 45.4089 40.8372C45.4089 41.2217 45.2997 41.5512 45.0812 41.8259C44.9173 42.1005 44.6442 42.2653 44.3712 42.2653C43.4973 42.3202 42.6234 42.3202 41.7495 42.3751C40.8756 42.4301 39.9471 42.4301 39.0733 42.485C38.8002 42.485 38.5271 42.3202 38.3632 42.1005C38.1994 41.8259 38.0901 41.4963 38.0901 41.1118C38.1448 39.9034 38.1448 38.695 38.1994 37.4866C38.254 36.2782 38.254 35.1248 38.3086 33.9164C38.3086 33.5319 38.4179 33.2023 38.6363 32.9826C38.9094 32.6531 39.1279 32.5432 39.401 32.5432ZM44.5896 33.3671C43.7158 33.3671 42.8965 33.422 42.0226 33.422C41.1487 33.422 40.2749 33.477 39.401 33.477C39.2917 33.477 39.2371 33.5319 39.1825 33.5868C39.1279 33.6417 39.0733 33.7516 39.0733 33.9164C39.0186 35.0698 39.0186 36.2782 38.964 37.4866C38.9094 38.695 38.9094 39.9034 38.8548 41.1118C38.8548 41.2217 38.9094 41.3315 38.964 41.4414C39.0186 41.4963 39.0733 41.5512 39.1825 41.5512C40.0564 41.4963 40.9849 41.4963 41.8588 41.4414C42.7326 41.3865 43.6065 41.3865 44.4804 41.3315C44.5896 41.3315 44.6442 41.2766 44.6989 41.2217C44.7535 41.1668 44.8081 41.002 44.8081 40.8921C44.8081 39.6837 44.8627 38.5303 44.8627 37.3219C44.8627 36.1684 44.9173 34.96 44.9173 33.8065C44.9173 33.6967 44.8627 33.5868 44.8081 33.5319C44.7535 33.3671 44.6443 33.3671 44.5896 33.3671Z" fill="#063443"/>
<path fill-rule="evenodd" clip-rule="evenodd" d="M42.0226 32.4883C42.8965 32.4883 43.7157 32.4333 44.5896 32.4333C44.8627 32.4333 45.0812 32.5981 45.245 32.8178C45.4089 33.0375 45.5181 33.3671 45.5181 33.7516C45.5181 34.9051 45.5181 36.0585 45.4635 37.2669C45.4635 38.4204 45.4635 39.6288 45.4089 40.8372C45.4089 41.2217 45.2997 41.5512 45.0812 41.8259C44.9173 42.1005 44.6442 42.2653 44.3712 42.2653C43.4973 42.3202 42.6234 42.3202 41.7495 42.3751C41.7495 42.0456 41.7495 41.716 41.7495 41.4414C42.6234 41.3865 43.4973 41.3865 44.3712 41.3315C44.4804 41.3315 44.535 41.2766 44.5896 41.2217C44.6442 41.1668 44.6989 41.002 44.6989 40.8921C44.6989 39.6837 44.7535 38.5303 44.7535 37.3219C44.7535 36.1684 44.8081 34.96 44.8081 33.8065C44.8081 33.6967 44.7535 33.5868 44.6989 33.5319C44.6442 33.477 44.5896 33.422 44.4804 33.422C43.6065 33.422 42.7872 33.477 41.9134 33.477C42.0226 33.0925 42.0226 32.7629 42.0226 32.4883Z" fill="#03212B"/>
<path fill-rule="evenodd" clip-rule="evenodd" d="M41.968 34.6304C43.0603 34.6304 43.9342 35.7838 43.8796 37.3218C43.8796 38.8048 42.9511 40.0681 41.8587 40.1231C40.7664 40.178 39.8925 38.9147 39.9471 37.4317C39.9471 35.8937 40.8756 34.6304 41.968 34.6304Z" fill="#063443"/>
<path fill-rule="evenodd" clip-rule="evenodd" d="M41.968 34.6304C43.0603 34.6304 43.9342 35.7838 43.8796 37.3218C43.8796 38.8048 42.9511 40.0681 41.8587 40.1231C41.8587 39.1893 41.9134 38.2556 41.9134 37.3767C41.968 36.443 41.968 35.5092 41.968 34.6304Z" fill="#03212B"/>
<path fill-rule="evenodd" clip-rule="evenodd" d="M5.04654 35.4543L34.5946 36.8275V37.8711L5.04654 36.498V35.4543Z" fill="#0D4D63"/>
<path fill-rule="evenodd" clip-rule="evenodd" d="M5.04654 35.4544L34.5946 36.8276L38.6363 33.9164L6.73968 33.2024L5.04654 35.4544Z" fill="#063443"/>
<path fill-rule="evenodd" clip-rule="evenodd" d="M6.95816 28.8081L40.4933 28.5334L38.6363 33.9163L6.73969 33.2022L6.95816 28.8081Z" fill="#0D4D63"/>
<path fill-rule="evenodd" clip-rule="evenodd" d="M6.95816 28.8632L40.4933 28.5336L41.4218 27.3252L8.10513 27.7646L6.95816 28.8632Z" fill="#063443"/>
<path fill-rule="evenodd" clip-rule="evenodd" d="M23.9988 16.5594H28.0951C28.2044 16.5594 28.259 16.5045 28.259 16.3946V11.6709C28.259 11.561 28.2044 11.5061 28.0951 11.5061H23.9988C23.8896 11.5061 23.835 11.561 23.835 11.6709V16.4495C23.8896 16.5045 23.9442 16.5594 23.9988 16.5594Z" fill="#0D4D63"/>
<path fill-rule="evenodd" clip-rule="evenodd" d="M26.0743 16.5594H28.0951C28.2044 16.5594 28.259 16.5045 28.259 16.3946V11.6709C28.259 11.561 28.2044 11.5061 28.0951 11.5061H26.0743V16.5594Z" fill="#063443"/>
<path fill-rule="evenodd" clip-rule="evenodd" d="M23.0157 16.2297H29.0783C29.1875 16.2297 29.2967 16.3396 29.2967 16.4494V26.7208C29.2967 26.8307 29.1875 26.9405 29.0783 26.9405H23.0157C22.9065 26.9405 22.7972 26.8307 22.7972 26.7208V16.4494C22.7972 16.3396 22.9065 16.2297 23.0157 16.2297Z" fill="#063443"/>
<path fill-rule="evenodd" clip-rule="evenodd" d="M26.0743 16.2297H29.0783C29.1875 16.2297 29.2967 16.3396 29.2967 16.4494V26.7208C29.2967 26.8307 29.1875 26.9405 29.0783 26.9405H26.0197V16.2297H26.0743Z" fill="#03212B"/>
<path fill-rule="evenodd" clip-rule="evenodd" d="M21.8141 17.7678H30.3345C30.5529 17.7678 30.6622 17.9326 30.6622 18.0974V19.0861C30.6622 19.3058 30.4983 19.4156 30.3345 19.4156H21.8141C21.5957 19.4156 21.4864 19.2509 21.4864 19.0861V18.0974C21.4318 17.9326 21.5957 17.7678 21.8141 17.7678Z" fill="#0D4D63"/>
<path fill-rule="evenodd" clip-rule="evenodd" d="M26.0743 17.7678H30.3344C30.5529 17.7678 30.6622 17.9326 30.6622 18.0974V19.0861C30.6622 19.3058 30.4983 19.4156 30.3344 19.4156H26.0743V17.7678Z" fill="#063443"/>
<path fill-rule="evenodd" clip-rule="evenodd" d="M21.8687 24.4139L23.7257 22.7112L25.4735 24.4139V27.5997H21.8687V24.4139Z" fill="#00B0B8"/>
</svg>
