<svg width="58" height="33" viewBox="0 0 58 33" fill="none" xmlns="http://www.w3.org/2000/svg">
<g clip-path="url(#clip0_276_3932)">
<path fill-rule="evenodd" clip-rule="evenodd" d="M14.3469 10.9127C14.3469 9.51588 15.4842 8.46826 16.8839 8.46826C18.2836 8.46826 19.3333 9.60318 19.3333 11L18.9834 28.8095C18.9834 30.2064 17.8461 31.254 16.4464 31.254C15.0468 31.254 13.997 30.1191 13.997 28.7222L14.3469 10.9127Z" fill="#00949C"/>
<path fill-rule="evenodd" clip-rule="evenodd" d="M1.13725 19.2937L2.62443 19.1191L4.98642 19.381C5.42383 19.381 5.77376 19.4683 5.68627 19.9922L5.42383 31.6033C5.42383 32.2144 5.07391 32.6509 4.6365 32.6509L2.18703 32.9128L0.78733 32.7382C0.349925 32.7382 0 32.3017 0 31.6906C0.0874811 29.6826 0.0874811 27.8493 0.174962 25.8414C0.262443 23.9207 0.262443 22.1747 0.349925 20.2541C0.349925 19.7303 0.699849 19.381 1.13725 19.2937Z" fill="#007C82"/>
<path fill-rule="evenodd" clip-rule="evenodd" d="M2.62442 19.2063L6.56108 19.4682C6.99848 19.4682 7.34841 19.9047 7.26093 20.4286L6.911 31.5159C6.911 32.127 6.56108 32.5635 6.12367 32.6508L2.18702 33C1.74961 33 1.39969 32.5635 1.39969 31.9524C1.48717 29.9444 1.57465 27.9365 1.57465 25.9286C1.66213 23.9206 1.66213 22.1746 1.74961 20.254C1.83709 19.6428 2.18702 19.119 2.62442 19.2063Z" fill="#00949C"/>
<path fill-rule="evenodd" clip-rule="evenodd" d="M4.54903 28.635C3.23682 28.2858 2.44949 26.889 2.79941 25.5795C3.14934 24.27 4.54903 23.4842 5.86125 23.8335L16.7964 26.2779C18.1086 26.6271 18.8959 28.0239 18.546 29.3334C18.1961 30.643 16.7964 31.4287 15.4842 31.0795L4.54903 28.635Z" fill="#007C82"/>
<path fill-rule="evenodd" clip-rule="evenodd" d="M34.1176 1.57149C22.5701 1.65879 18.1086 1.13498 8.22322 1.65879C6.56108 1.83339 5.68627 2.008 5.42383 5.41276L6.0362 18.508C6.12368 20.3413 8.74811 21.7382 10.0603 21.9128L36.7421 25.2302C37.9668 25.4048 37.7919 23.8334 37.7919 22.0874C37.7919 20.5159 37.7919 19.0318 37.7919 17.4604C37.7919 15.9762 38.1418 14.4048 37.7919 12.9207C37.5294 11.7858 36.3922 11.0874 36.2172 9.95244C35.8673 8.11911 36.2172 6.28577 36.2172 4.45244C36.2172 2.88101 35.2549 1.57149 34.1176 1.57149Z" fill="#007C82"/>
<path fill-rule="evenodd" clip-rule="evenodd" d="M55.3756 13.881L51.7888 14.0556L35.9547 13.1826C35.7798 12.9207 35.6923 12.7461 35.5173 12.4842C36.4796 11.4366 37.3544 10.4762 38.3167 9.42862C39.0166 7.50798 39.8039 5.58735 40.5038 3.66671C41.2036 2.26989 41.9035 4.67673e-05 43.7406 4.67673e-05H55.813C58.1749 -0.0872548 58.2624 2.7064 57.825 3.92862L55.9004 9.51592L55.5505 10.3016L55.3756 13.881Z" fill="#007C82"/>
<path fill-rule="evenodd" clip-rule="evenodd" d="M37.5294 1.22221L51.0015 1.04761C52.5762 1.04761 53.8009 2.26983 53.8009 3.84126V22.3492C53.8009 23.9206 52.5762 25.1428 51.0015 25.2301L37.5294 25.3174C35.9547 25.3174 34.73 24.0952 34.73 22.5238V4.10316C34.73 2.53173 36.0422 1.22221 37.5294 1.22221Z" fill="#00949C"/>
<path fill-rule="evenodd" clip-rule="evenodd" d="M44.0905 5.93677C41.3786 5.93677 39.1916 9.51613 39.1041 13.8812C39.0166 18.2463 41.1161 21.8257 43.7406 21.8257L46.365 21.913C48.8145 21.0399 49.8643 17.4606 48.8145 13.8812L46.365 5.93677H44.0905Z" fill="#007C82"/>
<path fill-rule="evenodd" clip-rule="evenodd" d="M46.54 6.37329C43.9155 6.37329 41.641 9.77805 41.5535 13.8812C41.4661 18.0717 43.5656 21.3892 46.19 21.3892C48.8145 21.3892 51.089 17.9844 51.1765 13.8812C51.2639 9.69075 49.1644 6.37329 46.54 6.37329Z" fill="#075A60"/>
<path fill-rule="evenodd" clip-rule="evenodd" d="M46.54 5.84937C45.1403 5.84937 43.8281 6.72238 42.8658 8.20651C41.9035 9.69063 41.2911 11.6986 41.2036 13.8811C41.1161 16.0637 41.7285 18.0716 42.6033 19.5557C43.4781 21.0398 44.7904 21.9129 46.19 21.9129C47.5897 21.9129 48.902 21.0398 49.8643 19.5557C50.8266 18.0716 51.4389 16.0637 51.5264 13.8811C51.6139 11.6986 51.0015 9.69063 50.1267 8.20651C49.2519 6.80968 47.9397 5.84937 46.54 5.84937ZM43.3032 8.90492C44.178 7.5954 45.3152 6.80968 46.54 6.80968C47.7647 6.80968 48.902 7.5954 49.6893 8.90492C50.4766 10.2144 50.914 11.9605 50.914 13.8811C50.914 15.8017 50.3017 17.5478 49.5143 18.8573C48.6395 20.1668 47.5023 20.9525 46.2775 20.9525C45.0528 20.9525 43.9155 20.1668 43.1282 18.8573C42.3409 17.5478 41.9035 15.8017 41.9035 13.8811C41.9035 11.9605 42.4284 10.2144 43.3032 8.90492Z" fill="#063443"/>
<path fill-rule="evenodd" clip-rule="evenodd" d="M46.4525 8.55566C44.5279 8.55566 42.9532 10.9128 42.8658 13.8811C42.8658 16.8493 44.3529 19.2065 46.2775 19.2065C48.2021 19.2065 49.7768 16.8493 49.8642 13.8811C49.8642 10.9128 48.3771 8.55566 46.4525 8.55566Z" fill="#075A60"/>
<path fill-rule="evenodd" clip-rule="evenodd" d="M46.4525 8.03198C45.4027 8.03198 44.4404 8.64309 43.7406 9.77801C43.0407 10.8256 42.6033 12.3098 42.5158 13.8812C42.5158 15.4526 42.8658 16.9367 43.5656 17.9844C44.178 19.032 45.1403 19.7304 46.19 19.7304C47.2398 19.7304 48.2021 19.1193 48.902 17.9844C49.6018 16.9367 50.0392 15.4526 50.1267 13.8812C50.1267 12.3098 49.7768 10.8256 49.0769 9.77801C48.4646 8.7304 47.5023 8.03198 46.4525 8.03198ZM44.2655 10.4764C44.8778 9.60341 45.6652 9.0796 46.54 9.0796C47.4148 9.0796 48.2021 9.60341 48.727 10.4764C49.2519 11.3494 49.6018 12.5717 49.6018 13.8812C49.6018 15.1907 49.1644 16.4129 48.6395 17.286C48.0272 18.159 47.2398 18.6828 46.365 18.6828C45.4902 18.6828 44.7029 18.159 44.178 17.286C43.6531 16.4129 43.3032 15.1907 43.3032 13.8812C43.3032 12.5717 43.6531 11.3494 44.2655 10.4764Z" fill="#063443"/>
<path fill-rule="evenodd" clip-rule="evenodd" d="M46.4525 10.4763C45.2278 10.4763 44.2655 11.9604 44.2655 13.8811C44.2655 15.7144 45.1403 17.1985 46.365 17.1985C47.5898 17.1985 48.552 15.7144 48.552 13.8811C48.552 12.0477 47.5898 10.4763 46.4525 10.4763Z" fill="#063443"/>
<path fill-rule="evenodd" clip-rule="evenodd" d="M39.8039 13.881L4.63651 12.4841L4.98643 3.05556C5.24887 0.261905 6.64857 0.349206 9.36049 0.174603L28.1689 0H40.2413C40.6787 0 41.1161 0 41.4661 0H43.7406L42.6033 1.48413V1.57143L39.8914 10.3016L39.8039 13.881Z" fill="#00B0B8"/>
</g>
<defs>
<clipPath id="clip0_276_3932">
<rect width="58" height="33" fill="white"/>
</clipPath>
</defs>
</svg>
