<svg width="58" height="58" viewBox="0 0 58 58" fill="none" xmlns="http://www.w3.org/2000/svg">
<path fill-rule="evenodd" clip-rule="evenodd" d="M47.6703 23.594C47.8474 24.7552 48.0246 26.0056 48.0246 27.2561C48.0246 38.1528 39.6993 47.0846 29.5142 47.0846C19.329 47.0846 11.0038 38.2422 11.0038 27.2561C11.0038 26.0056 11.0924 24.7552 11.358 23.594L29.4256 20.8252L47.6703 23.594Z" fill="#007C82"/>
<path fill-rule="evenodd" clip-rule="evenodd" d="M47.6703 23.594C47.8474 24.7552 48.0245 26.0056 48.0245 27.2561C48.0245 38.1528 39.6993 47.0846 29.5142 47.0846V20.8252L47.6703 23.594Z" fill="#075A60"/>
<path fill-rule="evenodd" clip-rule="evenodd" d="M29.5142 45.3872C35.1824 45.3872 39.7879 40.7427 39.7879 35.0264C39.7879 29.31 35.1824 24.6655 29.5142 24.6655C23.8459 24.6655 19.2404 29.31 19.2404 35.0264C19.2404 40.7427 23.8459 45.3872 29.5142 45.3872Z" fill="#0D4D63"/>
<path fill-rule="evenodd" clip-rule="evenodd" d="M29.5142 24.6655C35.1824 24.6655 39.7879 29.31 39.7879 35.0264C39.7879 40.7427 35.1824 45.3872 29.5142 45.3872V24.6655Z" fill="#063443"/>
<path fill-rule="evenodd" clip-rule="evenodd" d="M49.973 19.3958C50.2387 20.5569 50.3273 20.1996 50.3273 23.0578C50.3273 25.9159 49.4416 31.543 46.8732 34.8477C45.3676 34.1332 43.0648 33.5973 41.2049 33.1507C40.3193 27.4343 35.3596 23.0578 29.4256 23.0578C23.3145 23.0578 18.2662 27.7023 17.6463 33.6866C16.0521 34.2225 13.8379 34.8477 12.5094 35.4729C9.67529 32.0789 8.61249 26.0946 8.61249 23.0578C8.61249 20.1103 8.70105 20.5569 8.96675 19.3958H49.973Z" fill="#00949C"/>
<path fill-rule="evenodd" clip-rule="evenodd" d="M49.973 19.3958C50.2387 20.5569 50.3273 20.1996 50.3273 23.0578C50.3273 25.9159 49.4416 31.543 46.8732 34.8477C45.3676 34.1332 43.0648 33.5973 41.2049 33.1507C40.3193 27.4343 35.3595 23.0578 29.4256 23.0578V19.3958H49.973Z" fill="#007C82"/>
<path fill-rule="evenodd" clip-rule="evenodd" d="M52.1872 11C52.3643 14.93 51.9215 18.7706 50.9472 22.522H7.99251C7.01828 18.7706 6.66402 14.93 6.75258 11H52.1872Z" fill="#00B0B8"/>
<path fill-rule="evenodd" clip-rule="evenodd" d="M52.1872 11C52.3643 14.93 51.9215 18.7706 50.9472 22.522H29.5142V11H52.1872Z" fill="#00949C"/>
<path fill-rule="evenodd" clip-rule="evenodd" d="M29.5141 28.5061C30.3112 28.5061 30.9312 27.8809 30.9312 27.077C30.9312 26.2732 30.3112 25.6479 29.5141 25.6479C28.717 25.6479 28.0971 26.2732 28.0971 27.077C28.0971 27.8809 28.717 28.5061 29.5141 28.5061Z" fill="#BDE6DD"/>
<path fill-rule="evenodd" clip-rule="evenodd" d="M29.5141 44.4048C30.3112 44.4048 30.9312 43.7796 30.9312 42.9757C30.9312 42.1719 30.3112 41.5466 29.5141 41.5466C28.717 41.5466 28.0971 42.1719 28.0971 42.9757C28.0971 43.7796 28.717 44.4048 29.5141 44.4048Z" fill="#BDE6DD"/>
<path fill-rule="evenodd" clip-rule="evenodd" d="M38.7251 35.0265C38.7251 35.8304 38.1051 36.4556 37.308 36.4556C36.5109 36.4556 35.891 35.8304 35.891 35.0265C35.891 34.2226 36.5109 33.5974 37.308 33.5974C38.1051 33.6867 38.7251 34.312 38.7251 35.0265Z" fill="#BDE6DD"/>
<path fill-rule="evenodd" clip-rule="evenodd" d="M23.0488 35.0265C23.0488 35.8304 22.4289 36.4556 21.6318 36.4556C20.8347 36.4556 20.2147 35.8304 20.2147 35.0265C20.2147 34.2226 20.8347 33.5974 21.6318 33.5974C22.4289 33.6867 23.0488 34.312 23.0488 35.0265Z" fill="#BDE6DD"/>
<path fill-rule="evenodd" clip-rule="evenodd" d="M36.068 28.4171C36.5994 28.953 36.5994 29.8462 36.068 30.3821C35.5366 30.918 34.651 30.918 34.1196 30.3821C33.5882 29.8462 33.5882 28.953 34.1196 28.4171C34.651 27.8812 35.5366 27.8812 36.068 28.4171Z" fill="#BDE6DD"/>
<path fill-rule="evenodd" clip-rule="evenodd" d="M24.9087 39.6712C25.4401 40.2071 25.4401 41.1003 24.9087 41.6362C24.3773 42.1721 23.4916 42.1721 22.9602 41.6362C22.4288 41.1003 22.4288 40.2071 22.9602 39.6712C23.4916 39.1353 24.3773 39.1353 24.9087 39.6712Z" fill="#BDE6DD"/>
<path fill-rule="evenodd" clip-rule="evenodd" d="M36.068 41.6362C35.5366 42.1721 34.651 42.1721 34.1196 41.6362C33.5882 41.1003 33.5882 40.2071 34.1196 39.6712C34.651 39.1353 35.5366 39.1353 36.068 39.6712C36.5994 40.2071 36.5994 41.1003 36.068 41.6362Z" fill="#BDE6DD"/>
<path fill-rule="evenodd" clip-rule="evenodd" d="M24.9087 30.3821C24.3773 30.918 23.4916 30.918 22.9602 30.3821C22.4288 29.8462 22.4288 28.953 22.9602 28.4171C23.4916 27.8812 24.3773 27.8812 24.9087 28.4171C25.4401 28.953 25.4401 29.8462 24.9087 30.3821Z" fill="#BDE6DD"/>
<path fill-rule="evenodd" clip-rule="evenodd" d="M29.5142 25.7375C30.3113 25.7375 30.9312 26.3628 30.9312 27.1666C30.9312 27.9705 30.3113 28.5957 29.5142 28.5957V25.7375Z" fill="#A9D6CC"/>
<path fill-rule="evenodd" clip-rule="evenodd" d="M29.5142 41.5469C30.3113 41.5469 30.9312 42.1721 30.9312 42.976C30.9312 43.7798 30.3113 44.405 29.5142 44.405V41.5469Z" fill="#A9D6CC"/>
<path fill-rule="evenodd" clip-rule="evenodd" d="M38.7251 35.0265C38.7251 35.8304 38.1051 36.4556 37.308 36.4556C36.5109 36.4556 35.8909 35.8304 35.8909 35.0265C35.8909 34.2226 36.5109 33.5974 37.308 33.5974C38.1051 33.6867 38.7251 34.312 38.7251 35.0265Z" fill="#A9D6CC"/>
<path fill-rule="evenodd" clip-rule="evenodd" d="M36.068 28.4171C36.5994 28.953 36.5994 29.8462 36.068 30.3821C35.5366 30.918 34.651 30.918 34.1196 30.3821C33.5882 29.8462 33.5882 28.953 34.1196 28.4171C34.651 27.8812 35.5366 27.8812 36.068 28.4171Z" fill="#A9D6CC"/>
<path fill-rule="evenodd" clip-rule="evenodd" d="M36.068 41.6362C35.5366 42.1721 34.651 42.1721 34.1196 41.6362C33.5882 41.1003 33.5882 40.2071 34.1196 39.6712C34.651 39.1353 35.5366 39.1353 36.068 39.6712C36.5994 40.2071 36.5994 41.1003 36.068 41.6362Z" fill="#A9D6CC"/>
<path fill-rule="evenodd" clip-rule="evenodd" d="M29.5142 39.5816C31.994 39.5816 34.0311 37.5273 34.0311 35.0264C34.0311 32.5255 31.994 30.4712 29.5142 30.4712C27.0343 30.4712 24.9973 32.5255 24.9973 35.0264C24.9973 37.5273 27.0343 39.5816 29.5142 39.5816Z" fill="#BDE6DD"/>
<path fill-rule="evenodd" clip-rule="evenodd" d="M29.5142 30.4712C31.994 30.4712 34.031 32.5255 34.031 35.0264C34.031 37.5273 31.994 39.5816 29.5142 39.5816V30.4712Z" fill="#A9D6CC"/>
<path fill-rule="evenodd" clip-rule="evenodd" d="M29.5142 38.4205C31.3741 38.4205 32.7911 36.9021 32.7911 35.1158C32.7911 33.2401 31.2855 31.811 29.5142 31.811C27.6543 31.811 26.2372 33.3294 26.2372 35.1158C26.1486 36.9021 27.6543 38.4205 29.5142 38.4205Z" fill="#063443"/>
<path fill-rule="evenodd" clip-rule="evenodd" d="M29.5142 31.7217C31.3741 31.7217 32.7911 33.2401 32.7911 35.0264C32.7911 36.9021 31.2855 38.3312 29.5142 38.3312V31.7217Z" fill="#03212B"/>
</svg>
