<svg width="43" height="34" viewBox="0 0 43 34" fill="none" xmlns="http://www.w3.org/2000/svg">
<g clip-path="url(#clip0_276_3931)">
<path fill-rule="evenodd" clip-rule="evenodd" d="M38.6498 11.8959C38.8171 12.9927 38.9844 14.1738 38.9844 15.355C38.9844 25.6478 31.1206 34.0845 21.5 34.0845C11.8794 34.0845 4.01556 25.7321 4.01556 15.355C4.01556 14.1738 4.09922 12.9927 4.35019 11.8959L21.4163 9.28052L38.6498 11.8959Z" fill="#007C82"/>
<path fill-rule="evenodd" clip-rule="evenodd" d="M38.6498 11.8959C38.8171 12.9927 38.9844 14.1738 38.9844 15.355C38.9844 25.6478 31.1206 34.0845 21.5 34.0845V9.28052L38.6498 11.8959Z" fill="#075A60"/>
<path fill-rule="evenodd" clip-rule="evenodd" d="M21.5 32.4814C26.8541 32.4814 31.2043 28.0943 31.2043 22.6948C31.2043 17.2953 26.8541 12.9082 21.5 12.9082C16.1459 12.9082 11.7957 17.2953 11.7957 22.6948C11.7957 28.0943 16.1459 32.4814 21.5 32.4814Z" fill="#0D4D63"/>
<path fill-rule="evenodd" clip-rule="evenodd" d="M21.5 12.9082C26.8541 12.9082 31.2043 17.2953 31.2043 22.6948C31.2043 28.0943 26.8541 32.4814 21.5 32.4814V12.9082Z" fill="#063443"/>
<path fill-rule="evenodd" clip-rule="evenodd" d="M40.8249 7.93042C41.0759 9.02719 41.1595 8.68973 41.1595 11.3895C41.1595 14.0892 40.323 19.4044 37.8969 22.526C36.4747 21.851 34.2996 21.3448 32.5428 20.923C31.7062 15.5235 27.0214 11.3895 21.4163 11.3895C15.644 11.3895 10.8755 15.7766 10.2899 21.4292C8.78404 21.9354 6.6926 22.526 5.43774 23.1165C2.7607 19.9106 1.75681 14.258 1.75681 11.3895C1.75681 8.60536 1.84046 9.02719 2.09144 7.93042H40.8249Z" fill="#00949C"/>
<path fill-rule="evenodd" clip-rule="evenodd" d="M40.8249 7.93042C41.0759 9.02719 41.1595 8.68973 41.1595 11.3895C41.1595 14.0892 40.323 19.4044 37.8969 22.526C36.4747 21.851 34.2996 21.3448 32.5428 20.923C31.7062 15.5235 27.0214 11.3895 21.4164 11.3895V7.93042H40.8249Z" fill="#007C82"/>
<path fill-rule="evenodd" clip-rule="evenodd" d="M42.9163 0C43.0837 3.71216 42.6654 7.33995 41.7451 10.8834H1.1712C0.250969 7.33995 -0.0836616 3.71216 -3.98513e-06 0H42.9163Z" fill="#00B0B8"/>
<path fill-rule="evenodd" clip-rule="evenodd" d="M42.9163 0C43.0837 3.71216 42.6654 7.33995 41.7451 10.8834H21.5V0H42.9163Z" fill="#00949C"/>
<path fill-rule="evenodd" clip-rule="evenodd" d="M21.5 16.5359C22.2529 16.5359 22.8385 15.9454 22.8385 15.1861C22.8385 14.4268 22.2529 13.8362 21.5 13.8362C20.7471 13.8362 20.1615 14.4268 20.1615 15.1861C20.1615 15.9454 20.7471 16.5359 21.5 16.5359Z" fill="#BDE6DD"/>
<path fill-rule="evenodd" clip-rule="evenodd" d="M21.5 31.5533C22.2529 31.5533 22.8385 30.9627 22.8385 30.2034C22.8385 29.4441 22.2529 28.8535 21.5 28.8535C20.7471 28.8535 20.1615 29.4441 20.1615 30.2034C20.1615 30.9627 20.7471 31.5533 21.5 31.5533Z" fill="#BDE6DD"/>
<path fill-rule="evenodd" clip-rule="evenodd" d="M30.2004 22.6948C30.2004 23.4542 29.6148 24.0447 28.8619 24.0447C28.1089 24.0447 27.5233 23.4542 27.5233 22.6948C27.5233 21.9355 28.1089 21.345 28.8619 21.345C29.6148 21.4293 30.2004 22.0199 30.2004 22.6948Z" fill="#BDE6DD"/>
<path fill-rule="evenodd" clip-rule="evenodd" d="M15.393 22.6948C15.393 23.4542 14.8074 24.0447 14.0545 24.0447C13.3015 24.0447 12.7159 23.4542 12.7159 22.6948C12.7159 21.9355 13.3015 21.345 14.0545 21.345C14.8074 21.4293 15.393 22.0199 15.393 22.6948Z" fill="#BDE6DD"/>
<path fill-rule="evenodd" clip-rule="evenodd" d="M27.6906 16.4517C28.1926 16.9579 28.1926 17.8016 27.6906 18.3078C27.1887 18.814 26.3521 18.814 25.8502 18.3078C25.3482 17.8016 25.3482 16.9579 25.8502 16.4517C26.3521 15.9455 27.1887 15.9455 27.6906 16.4517Z" fill="#BDE6DD"/>
<path fill-rule="evenodd" clip-rule="evenodd" d="M17.1498 27.082C17.6517 27.5882 17.6517 28.4319 17.1498 28.9381C16.6478 29.4443 15.8113 29.4443 15.3093 28.9381C14.8074 28.4319 14.8074 27.5882 15.3093 27.082C15.8113 26.5758 16.6478 26.5758 17.1498 27.082Z" fill="#BDE6DD"/>
<path fill-rule="evenodd" clip-rule="evenodd" d="M27.6906 28.9381C27.1887 29.4443 26.3521 29.4443 25.8502 28.9381C25.3482 28.4319 25.3482 27.5882 25.8502 27.082C26.3521 26.5758 27.1887 26.5758 27.6906 27.082C28.1926 27.5882 28.1926 28.4319 27.6906 28.9381Z" fill="#BDE6DD"/>
<path fill-rule="evenodd" clip-rule="evenodd" d="M17.1498 18.3078C16.6478 18.814 15.8113 18.814 15.3093 18.3078C14.8074 17.8016 14.8074 16.9579 15.3093 16.4517C15.8113 15.9455 16.6478 15.9455 17.1498 16.4517C17.6517 16.9579 17.6517 17.8016 17.1498 18.3078Z" fill="#BDE6DD"/>
<path fill-rule="evenodd" clip-rule="evenodd" d="M21.5 13.9207C22.2529 13.9207 22.8385 14.5112 22.8385 15.2705C22.8385 16.0298 22.2529 16.6204 21.5 16.6204V13.9207Z" fill="#A9D6CC"/>
<path fill-rule="evenodd" clip-rule="evenodd" d="M21.5 28.8538C22.2529 28.8538 22.8385 29.4443 22.8385 30.2036C22.8385 30.9629 22.2529 31.5535 21.5 31.5535V28.8538Z" fill="#A9D6CC"/>
<path fill-rule="evenodd" clip-rule="evenodd" d="M30.2004 22.6948C30.2004 23.4542 29.6148 24.0447 28.8619 24.0447C28.1089 24.0447 27.5233 23.4542 27.5233 22.6948C27.5233 21.9355 28.1089 21.345 28.8619 21.345C29.6148 21.4293 30.2004 22.0199 30.2004 22.6948Z" fill="#A9D6CC"/>
<path fill-rule="evenodd" clip-rule="evenodd" d="M27.6906 16.4517C28.1926 16.9579 28.1926 17.8016 27.6906 18.3078C27.1887 18.814 26.3521 18.814 25.8502 18.3078C25.3482 17.8016 25.3482 16.9579 25.8502 16.4517C26.3521 15.9455 27.1887 15.9455 27.6906 16.4517Z" fill="#A9D6CC"/>
<path fill-rule="evenodd" clip-rule="evenodd" d="M27.6906 28.9381C27.1887 29.4443 26.3521 29.4443 25.8502 28.9381C25.3482 28.4319 25.3482 27.5882 25.8502 27.082C26.3521 26.5758 27.1887 26.5758 27.6906 27.082C28.1926 27.5882 28.1926 28.4319 27.6906 28.9381Z" fill="#A9D6CC"/>
<path fill-rule="evenodd" clip-rule="evenodd" d="M21.5 26.9976C23.8424 26.9976 25.7665 25.0571 25.7665 22.6948C25.7665 20.3325 23.8424 18.3921 21.5 18.3921C19.1576 18.3921 17.2335 20.3325 17.2335 22.6948C17.2335 25.0571 19.1576 26.9976 21.5 26.9976Z" fill="#BDE6DD"/>
<path fill-rule="evenodd" clip-rule="evenodd" d="M21.5 18.3921C23.8424 18.3921 25.7665 20.3325 25.7665 22.6948C25.7665 25.0571 23.8424 26.9976 21.5 26.9976V18.3921Z" fill="#A9D6CC"/>
<path fill-rule="evenodd" clip-rule="evenodd" d="M21.5 25.9006C23.2568 25.9006 24.5953 24.4664 24.5953 22.7791C24.5953 21.0073 23.1731 19.6575 21.5 19.6575C19.7432 19.6575 18.4047 21.0917 18.4047 22.7791C18.321 24.4664 19.7432 25.9006 21.5 25.9006Z" fill="#063443"/>
<path fill-rule="evenodd" clip-rule="evenodd" d="M21.5 19.5732C23.2568 19.5732 24.5953 21.0075 24.5953 22.6948C24.5953 24.4665 23.1732 25.8164 21.5 25.8164V19.5732Z" fill="#03212B"/>
</g>
<defs>
<clipPath id="clip0_276_3931">
<rect width="43" height="34" fill="white"/>
</clipPath>
</defs>
</svg>
