<svg width="58" height="58" viewBox="0 0 58 58" fill="none" xmlns="http://www.w3.org/2000/svg">
<path fill-rule="evenodd" clip-rule="evenodd" d="M16.6133 24.2281C16.6133 23.0471 17.5749 22.1614 18.7583 22.1614C19.9417 22.1614 20.8293 23.1209 20.8293 24.3019L20.5334 39.3597C20.5334 40.5407 19.5719 41.4264 18.3885 41.4264C17.205 41.4264 16.3175 40.4669 16.3175 39.2859L16.6133 24.2281Z" fill="#00949C"/>
<path fill-rule="evenodd" clip-rule="evenodd" d="M5.44472 31.3144L6.70211 31.1667L8.69915 31.3882C9.06897 31.3882 9.36483 31.462 9.29086 31.9049L9.06897 41.7219C9.06897 42.2386 8.77311 42.6077 8.40329 42.6077L6.33229 42.8291L5.14886 42.6815C4.77904 42.6815 4.48318 42.3124 4.48318 41.7957C4.55715 40.0981 4.55715 38.548 4.63111 36.8503C4.70508 35.2264 4.70508 33.7502 4.77904 32.1263C4.77904 31.6834 5.0749 31.3882 5.44472 31.3144Z" fill="#007C82"/>
<path fill-rule="evenodd" clip-rule="evenodd" d="M6.7021 31.2403L10.0305 31.4617C10.4003 31.4617 10.6962 31.8308 10.6222 32.2736L10.3263 41.6478C10.3263 42.1645 10.0305 42.5336 9.66067 42.6074L6.33227 42.9026C5.96245 42.9026 5.6666 42.5336 5.6666 42.0169C5.74056 40.3192 5.81452 38.6215 5.81452 36.9238C5.88849 35.2261 5.88849 33.7499 5.96245 32.126C6.03642 31.6093 6.33227 31.1664 6.7021 31.2403Z" fill="#00949C"/>
<path fill-rule="evenodd" clip-rule="evenodd" d="M8.32933 39.2123C7.21986 38.9171 6.55419 37.7361 6.85004 36.6289C7.1459 35.5217 8.32933 34.8574 9.43879 35.1527L18.6843 37.2194C19.7938 37.5147 20.4595 38.6957 20.1636 39.8028C19.8678 40.91 18.6843 41.5743 17.5749 41.2791L8.32933 39.2123Z" fill="#007C82"/>
<path fill-rule="evenodd" clip-rule="evenodd" d="M33.3292 16.3302C23.5659 16.404 19.7938 15.9612 11.4358 16.404C10.0305 16.5517 9.29083 16.6993 9.06894 19.578L9.58669 30.6498C9.66065 32.1999 11.8796 33.3809 12.989 33.5285L35.5482 36.3334C36.5837 36.481 36.4357 35.1524 36.4357 33.6762C36.4357 32.3475 36.4357 31.0927 36.4357 29.7641C36.4357 28.5093 36.7316 27.1807 36.4357 25.9258C36.2138 24.9663 35.2523 24.3758 35.1044 23.4162C34.8085 21.8662 35.1044 20.3161 35.1044 18.766C35.1044 17.4374 34.2908 16.3302 33.3292 16.3302Z" fill="#007C82"/>
<path fill-rule="evenodd" clip-rule="evenodd" d="M51.3026 26.7379L48.27 26.8855L34.8825 26.1474C34.7346 25.9259 34.6606 25.7783 34.5127 25.5569C35.3263 24.6711 36.0659 23.8592 36.8795 22.9734C37.4712 21.3496 38.1369 19.7257 38.7286 18.1018C39.3203 16.9208 39.9121 15.0017 41.4653 15.0017H51.6724C53.6694 14.9279 53.7434 17.2899 53.3736 18.3233L51.7463 23.0473L51.4505 23.7116L51.3026 26.7379Z" fill="#007C82"/>
<path fill-rule="evenodd" clip-rule="evenodd" d="M36.2138 16.0351L47.6043 15.8875C48.9357 15.8875 49.9712 16.9208 49.9712 18.2495V33.8977C49.9712 35.2263 48.9357 36.2597 47.6043 36.3335L36.2138 36.4073C34.8825 36.4073 33.847 35.3739 33.847 34.0453V18.4709C33.847 17.1423 34.9564 16.0351 36.2138 16.0351Z" fill="#00949C"/>
<path fill-rule="evenodd" clip-rule="evenodd" d="M41.7612 20.021C39.4683 20.021 37.6192 23.0473 37.5452 26.7379C37.4713 30.4286 39.2464 33.4549 41.4653 33.4549L43.6843 33.5287C45.7553 32.7906 46.6428 29.7642 45.7553 26.7379L43.6843 20.021H41.7612Z" fill="#007C82"/>
<path fill-rule="evenodd" clip-rule="evenodd" d="M43.8322 20.3901C41.6133 20.3901 39.6902 23.2688 39.6162 26.738C39.5422 30.281 41.3174 33.0859 43.5363 33.0859C45.7552 33.0859 47.6783 30.2072 47.7523 26.738C47.8263 23.195 46.0511 20.3901 43.8322 20.3901Z" fill="#075A60"/>
<path fill-rule="evenodd" clip-rule="evenodd" d="M43.8322 19.9473C42.6488 19.9473 41.5393 20.6854 40.7257 21.9402C39.9121 23.195 39.3943 24.8927 39.3204 26.738C39.2464 28.5833 39.7642 30.281 40.5038 31.5358C41.2435 32.7906 42.3529 33.5288 43.5363 33.5288C44.7198 33.5288 45.8292 32.7906 46.6428 31.5358C47.4565 30.281 47.9742 28.5833 48.0482 26.738C48.1221 24.8927 47.6044 23.195 46.8647 21.9402C46.1251 20.7592 45.0156 19.9473 43.8322 19.9473ZM41.0955 22.5307C41.8352 21.4235 42.7967 20.7592 43.8322 20.7592C44.8677 20.7592 45.8292 21.4235 46.4949 22.5307C47.1606 23.6379 47.5304 25.1141 47.5304 26.738C47.5304 28.3619 47.0127 29.8381 46.347 30.9453C45.6073 32.0525 44.6458 32.7168 43.6103 32.7168C42.5748 32.7168 41.6133 32.0525 40.9476 30.9453C40.2819 29.8381 39.9121 28.3619 39.9121 26.738C39.9121 25.1141 40.3559 23.6379 41.0955 22.5307Z" fill="#063443"/>
<path fill-rule="evenodd" clip-rule="evenodd" d="M43.7582 22.2356C42.131 22.2356 40.7996 24.2285 40.7257 26.7382C40.7257 29.2478 41.9831 31.2407 43.6103 31.2407C45.2375 31.2407 46.5689 29.2478 46.6428 26.7382C46.6428 24.2285 45.3854 22.2356 43.7582 22.2356Z" fill="#075A60"/>
<path fill-rule="evenodd" clip-rule="evenodd" d="M43.7582 21.7925C42.8706 21.7925 42.057 22.3092 41.4653 23.2687C40.8736 24.1545 40.5038 25.4093 40.4298 26.7379C40.4298 28.0665 40.7257 29.3214 41.3174 30.2071C41.8351 31.0929 42.6487 31.6834 43.5363 31.6834C44.4239 31.6834 45.2375 31.1667 45.8292 30.2071C46.4209 29.3214 46.7907 28.0665 46.8647 26.7379C46.8647 25.4093 46.5688 24.1545 45.9771 23.2687C45.4594 22.383 44.6458 21.7925 43.7582 21.7925ZM41.9091 23.8592C42.4268 23.1211 43.0925 22.6782 43.8322 22.6782C44.5718 22.6782 45.2375 23.1211 45.6813 23.8592C46.1251 24.5974 46.4209 25.6307 46.4209 26.7379C46.4209 27.8451 46.0511 28.8785 45.6073 29.6166C45.0896 30.3547 44.4239 30.7976 43.6842 30.7976C42.9446 30.7976 42.2789 30.3547 41.8351 29.6166C41.3913 28.8785 41.0955 27.8451 41.0955 26.7379C41.0955 25.6307 41.3913 24.5974 41.9091 23.8592Z" fill="#063443"/>
<path fill-rule="evenodd" clip-rule="evenodd" d="M43.7582 23.8594C42.7227 23.8594 41.9091 25.1142 41.9091 26.7381C41.9091 28.2881 42.6488 29.5429 43.6843 29.5429C44.7198 29.5429 45.5334 28.2881 45.5334 26.7381C45.5334 25.188 44.7198 23.8594 43.7582 23.8594Z" fill="#063443"/>
<path fill-rule="evenodd" clip-rule="evenodd" d="M38.137 26.7379L8.40332 25.5569L8.69918 17.5851C8.92107 15.2231 10.1045 15.297 12.3974 15.1493L28.2997 15.0017H38.5068C38.8766 15.0017 39.2464 15.0017 39.5423 15.0017H41.4654L40.5038 16.2565V16.3303L38.2109 23.7116L38.137 26.7379Z" fill="#00B0B8"/>
</svg>
