<svg width="59" height="44" viewBox="0 0 59 44" fill="none" xmlns="http://www.w3.org/2000/svg">
<g clip-path="url(#clip0_276_4084)">
<path fill-rule="evenodd" clip-rule="evenodd" d="M26.787 16.2324L29.0535 14.1602L31.2515 16.2324V20.2386H26.787V16.2324Z" fill="#007C82"/>
<path fill-rule="evenodd" clip-rule="evenodd" d="M36.7462 21.4128C25.9627 21.4819 13.2561 21.4128 3.9837 21.4819C1.7858 21.4819 4.32712 25.281 3.57159 28.2511C3.36554 29.08 1.09895 29.978 1.09895 30.8069C1.09895 31.4285 1.16764 32.0502 1.09895 32.6719C1.03027 34.1224 0.961582 35.642 0.892898 37.0926C0.824213 38.8194 1.7858 39.9937 3.02212 40.0628L39.0128 43.8618C40.1804 44 40.1804 42.2731 40.1804 40.6154C40.1804 39.1648 40.1804 37.7143 40.1804 36.2637C40.1804 34.8132 40.4552 33.4317 40.1804 32.0502C39.9744 31.0141 38.9441 30.3234 38.7381 29.2873C38.4633 27.5604 38.7381 25.8336 38.7381 24.1067C38.7381 22.6562 37.8452 21.4128 36.7462 21.4128Z" fill="#00B0B8"/>
<path fill-rule="evenodd" clip-rule="evenodd" d="M56.596 32.9482L53.2992 33.1554L38.532 32.3265C38.3946 32.1193 38.2573 31.9121 38.1199 31.7049C39.0128 30.7378 39.837 29.8399 40.7299 28.8728C41.4168 27.0769 42.1036 25.281 42.7905 23.4851C43.3399 22.0345 44.0268 19.9623 45.7439 19.9623H56.9395C59.1374 19.8932 59.2747 22.449 58.8626 23.6923L57.0081 28.8728L56.6647 29.6326L56.596 32.9482Z" fill="#03212B"/>
<path fill-rule="evenodd" clip-rule="evenodd" d="M51.5134 20.9985C49.8649 20.9985 48.2165 20.9985 46.5681 21.0676C44.9197 21.0676 43.2712 21.0676 41.5541 21.1367C40.3865 21.1367 39.4249 22.4491 39.3562 23.9687C39.2875 25.7646 39.2188 27.5605 39.1502 29.3565C38.6007 30.3235 38.0512 31.2905 37.5017 32.2576C37.433 33.7081 37.3644 35.1587 37.3644 36.6092C37.2957 38.0598 37.227 39.5794 37.1583 41.0299C37.0896 42.7568 38.0512 44.0692 39.2875 44.0001C41.5541 43.931 43.8207 43.7929 46.0873 43.7238C48.3539 43.6547 50.5518 43.5166 52.7497 43.4475C53.9173 43.3784 54.8789 41.997 54.8789 40.3392C54.8789 38.8886 54.8789 37.4381 54.8789 35.9875C54.8789 34.537 54.8789 33.1555 54.8789 31.774C54.3981 30.8761 53.9173 29.9091 53.4365 29.0111C53.4365 27.2842 53.4365 25.5574 53.4365 23.8306C53.5739 22.2419 52.6123 20.9985 51.5134 20.9985Z" fill="#00949C"/>
<path fill-rule="evenodd" clip-rule="evenodd" d="M51.5134 20.9985C50.6892 20.9985 49.865 20.9985 49.0408 20.9985C48.2165 20.9985 47.3923 20.9985 46.5681 20.9985C46.4994 24.5904 46.4307 28.3204 46.3621 32.0503C46.2934 35.8494 46.2247 39.7175 46.156 43.6547C47.255 43.5857 48.4226 43.5857 49.5215 43.5166C50.6205 43.4475 51.7195 43.4475 52.8184 43.3784C53.986 43.3094 54.9476 41.9279 54.9476 40.2701C54.9476 38.8196 54.9476 37.369 54.9476 35.9185C54.9476 34.4679 54.9476 33.0864 54.9476 31.705C54.4668 30.807 53.986 29.84 53.5053 28.942C53.5053 27.2152 53.5053 25.4883 53.5053 23.7615C53.5739 22.2419 52.6124 20.9985 51.5134 20.9985Z" fill="#007C82"/>
<path fill-rule="evenodd" clip-rule="evenodd" d="M41.8976 25.1428C43.4773 25.1428 44.9884 25.0737 46.5681 25.0737C48.0792 25.0737 49.6589 25.0046 51.17 25.0046C51.5821 25.0046 51.9942 25.4882 51.9255 26.1098C51.9255 28.182 51.9255 30.2542 51.8568 32.3265C51.8568 34.4677 51.7881 36.54 51.7881 38.6812C51.7881 39.3029 51.376 39.8555 50.9639 39.8555C49.3842 39.9246 47.8044 39.9936 46.2247 40.0627C44.6449 40.1318 42.9965 40.2009 41.4168 40.2699C40.936 40.2699 40.5926 39.7864 40.5926 39.0957C40.6612 36.8853 40.7299 34.744 40.7986 32.6028C40.8673 30.4615 40.936 28.3893 41.0047 26.248C41.0734 25.6954 41.4168 25.2119 41.8976 25.1428Z" fill="#0D4D63"/>
<path fill-rule="evenodd" clip-rule="evenodd" d="M46.4994 25.1428C47.2549 25.1428 48.0105 25.1428 48.766 25.1428C49.5215 25.1428 50.2771 25.1428 51.0326 25.1428C51.4447 25.1428 51.8568 25.6263 51.7881 26.248C51.7881 28.3202 51.7881 30.3924 51.7194 32.4646C51.7194 34.6059 51.6508 36.6781 51.6508 38.8194C51.6508 39.4411 51.2387 39.9937 50.8265 39.9937C50.071 39.9937 49.2468 40.0628 48.4913 40.0628C47.6671 40.0628 46.9115 40.1318 46.0873 40.1318C46.156 37.5761 46.156 35.0204 46.2247 32.5337C46.4307 29.978 46.4994 27.5604 46.4994 25.1428Z" fill="#063443"/>
<path fill-rule="evenodd" clip-rule="evenodd" d="M43.2026 26.4553C44.3015 26.4553 45.4005 26.4553 46.4994 26.3862C47.5984 26.3862 48.6286 26.3171 49.7276 26.3171C50.071 26.3171 50.3458 26.5244 50.5518 26.8007C50.7579 27.077 50.8952 27.4914 50.8952 27.9749C50.8952 29.4255 50.8952 30.876 50.8265 32.3956C50.8265 33.8462 50.8265 35.3658 50.7579 36.8854C50.7579 37.3689 50.6205 37.7834 50.3458 38.1288C50.1397 38.4741 49.7963 38.6813 49.4529 38.6813C48.3539 38.7504 47.255 38.7504 46.156 38.8195C45.057 38.8886 43.8894 38.8886 42.7905 38.9576C42.447 38.9576 42.1036 38.7504 41.8976 38.4741C41.6915 38.1288 41.5541 37.7143 41.5541 37.2308C41.6228 35.7112 41.6228 34.1916 41.6915 32.6719C41.7602 31.1523 41.7602 29.7018 41.8289 28.1821C41.8289 27.6986 41.9662 27.2842 42.241 27.0079C42.5844 26.5934 42.8591 26.4553 43.2026 26.4553ZM49.7276 27.4914C48.6286 27.4914 47.5984 27.5605 46.4994 27.5605C45.4005 27.5605 44.3015 27.6295 43.2026 27.6295C43.0652 27.6295 42.9965 27.6986 42.9278 27.7677C42.8591 27.8368 42.7905 27.9749 42.7905 28.1821C42.7218 29.6327 42.7218 31.1523 42.6531 32.6719C42.5844 34.1916 42.5844 35.7112 42.5157 37.2308C42.5157 37.3689 42.5844 37.5071 42.6531 37.6452C42.7218 37.7143 42.7905 37.7834 42.9278 37.7834C44.0268 37.7143 45.1944 37.7143 46.2934 37.6452C47.3923 37.5762 48.4913 37.5762 49.5902 37.5071C49.7276 37.5071 49.7963 37.438 49.865 37.3689C49.9336 37.2999 50.0023 37.0927 50.0023 36.9545C50.0023 35.4349 50.071 33.9843 50.071 32.4647C50.071 31.0142 50.1397 29.4945 50.1397 28.044C50.1397 27.9058 50.071 27.7677 50.0023 27.6986C49.9337 27.4914 49.7963 27.4914 49.7276 27.4914Z" fill="#063443"/>
<path fill-rule="evenodd" clip-rule="evenodd" d="M46.4994 26.3862C47.5984 26.3862 48.6287 26.3171 49.7276 26.3171C50.071 26.3171 50.3458 26.5244 50.5518 26.8007C50.7579 27.077 50.8952 27.4914 50.8952 27.9749C50.8952 29.4255 50.8952 30.876 50.8266 32.3956C50.8266 33.8462 50.8266 35.3658 50.7579 36.8854C50.7579 37.3689 50.6205 37.7834 50.3458 38.1288C50.1397 38.4741 49.7963 38.6813 49.4529 38.6813C48.3539 38.7504 47.255 38.7504 46.156 38.8195C46.156 38.4051 46.156 37.9906 46.156 37.6452C47.255 37.5762 48.3539 37.5762 49.4529 37.5071C49.5902 37.5071 49.6589 37.438 49.7276 37.3689C49.7963 37.2999 49.865 37.0927 49.865 36.9545C49.865 35.4349 49.9337 33.9843 49.9337 32.4647C49.9337 31.0142 50.0023 29.4945 50.0023 28.044C50.0023 27.9058 49.9337 27.7677 49.865 27.6986C49.7963 27.6295 49.7276 27.5605 49.5902 27.5605C48.4913 27.5605 47.461 27.6295 46.3621 27.6295C46.4994 27.146 46.4994 26.7316 46.4994 26.3862Z" fill="#03212B"/>
<path fill-rule="evenodd" clip-rule="evenodd" d="M46.4307 29.0801C47.8044 29.0801 48.9034 30.5306 48.8347 32.4647C48.8347 34.3297 47.6671 35.9184 46.2934 35.9875C44.9197 36.0565 43.8207 34.4678 43.8894 32.6028C43.8894 30.6688 45.057 29.0801 46.4307 29.0801Z" fill="#063443"/>
<path fill-rule="evenodd" clip-rule="evenodd" d="M46.4307 29.0801C47.8044 29.0801 48.9034 30.5306 48.8347 32.4647C48.8347 34.3297 47.6671 35.9184 46.2934 35.9875C46.2934 34.8132 46.362 33.6389 46.362 32.5338C46.4307 31.3595 46.4307 30.1853 46.4307 29.0801Z" fill="#03212B"/>
<path fill-rule="evenodd" clip-rule="evenodd" d="M0 30.1162L37.1583 31.8431V33.1555L0 31.4286V30.1162Z" fill="#0D4D63"/>
<path fill-rule="evenodd" clip-rule="evenodd" d="M0 30.1162L37.1583 31.843L42.241 28.1821L2.12922 27.2842L0 30.1162Z" fill="#063443"/>
<path fill-rule="evenodd" clip-rule="evenodd" d="M2.40395 21.7582L44.5762 21.4128L42.241 28.1821L2.12921 27.2841L2.40395 21.7582Z" fill="#0D4D63"/>
<path fill-rule="evenodd" clip-rule="evenodd" d="M2.40396 21.8274L44.5763 21.4129L45.7439 19.8933L3.84634 20.4459L2.40396 21.8274Z" fill="#063443"/>
<path fill-rule="evenodd" clip-rule="evenodd" d="M23.8335 6.35479H28.9849C29.1222 6.35479 29.1909 6.28571 29.1909 6.14757V0.207221C29.1909 0.0690738 29.1222 0 28.9849 0H23.8335C23.6962 0 23.6275 0.0690738 23.6275 0.207221V6.21664C23.6962 6.28571 23.7648 6.35479 23.8335 6.35479Z" fill="#0D4D63"/>
<path fill-rule="evenodd" clip-rule="evenodd" d="M26.4435 6.35479H28.9849C29.1222 6.35479 29.1909 6.28571 29.1909 6.14757V0.207221C29.1909 0.0690738 29.1222 0 28.9849 0H26.4435V6.35479Z" fill="#063443"/>
<path fill-rule="evenodd" clip-rule="evenodd" d="M22.5972 5.94043H30.2212C30.3586 5.94043 30.4959 6.07858 30.4959 6.21672V19.1335C30.4959 19.2717 30.3586 19.4098 30.2212 19.4098H22.5972C22.4598 19.4098 22.3225 19.2717 22.3225 19.1335V6.21672C22.3225 6.07858 22.4598 5.94043 22.5972 5.94043Z" fill="#063443"/>
<path fill-rule="evenodd" clip-rule="evenodd" d="M26.4436 5.94043H30.2212C30.3586 5.94043 30.4959 6.07858 30.4959 6.21672V19.1335C30.4959 19.2717 30.3586 19.4098 30.2212 19.4098H26.3749V5.94043H26.4436Z" fill="#03212B"/>
<path fill-rule="evenodd" clip-rule="evenodd" d="M21.0862 7.87451H31.8009C32.0757 7.87451 32.213 8.08173 32.213 8.28895V9.53228C32.213 9.80858 32.007 9.94673 31.8009 9.94673H21.0862C20.8114 9.94673 20.674 9.7395 20.674 9.53228V8.28895C20.6054 8.08173 20.8114 7.87451 21.0862 7.87451Z" fill="#0D4D63"/>
<path fill-rule="evenodd" clip-rule="evenodd" d="M26.4435 7.87451H31.8009C32.0757 7.87451 32.213 8.08173 32.213 8.28895V9.53228C32.213 9.80858 32.007 9.94673 31.8009 9.94673H26.4435V7.87451Z" fill="#063443"/>
<path fill-rule="evenodd" clip-rule="evenodd" d="M21.1548 16.2324L23.4901 14.0911L25.688 16.2324V20.2386H21.1548V16.2324Z" fill="#00B0B8"/>
</g>
<defs>
<clipPath id="clip0_276_4084">
<rect width="59" height="44" fill="white"/>
</clipPath>
</defs>
</svg>
